<svg width="150" height="150" viewBox="0 0 150 150" fill="none" xmlns="http://www.w3.org/2000/svg">
<path d="M74.9998 18.7051L39.5322 23.7679L12.7988 61.2039L74.9998 133.769L137.192 61.2039L110.458 23.7679L74.9998 18.7051ZM63.1437 29.8654L47.8269 47.3702L48.8889 31.907L63.1437 29.8654ZM86.8558 29.8654L101.111 31.8978L102.173 47.3702L86.8558 29.8654ZM74.9998 30.5612L97.4851 56.2509H52.5144L74.9998 30.5612ZM38.8822 40.8151L37.811 56.2509H27.8593L38.8822 40.8151ZM111.117 40.8242L122.14 56.2509H112.188L111.117 40.8242ZM28.9487 65.6259H39.2942L53.7778 94.6023L28.9487 65.6259ZM49.777 65.6259H100.223L74.9998 116.081L49.777 65.6259ZM110.705 65.6259H121.051L96.2217 94.6023L110.705 65.6259Z" fill="#EC7323"/>
</svg>
