<svg width="150" height="150" viewBox="0 0 150 150" fill="none" xmlns="http://www.w3.org/2000/svg">
<path d="M42.1875 18.75C29.2984 18.75 18.75 29.2984 18.75 42.1875V107.812C18.75 120.702 29.2984 131.25 42.1875 131.25H107.812C120.702 131.25 131.25 120.702 131.25 107.812V42.1875C131.25 29.2984 120.702 18.75 107.812 18.75H42.1875ZM42.1875 28.125H107.812C115.636 28.125 121.875 34.3641 121.875 42.1875V107.812C121.875 115.636 115.636 121.875 107.812 121.875H42.1875C34.3641 121.875 28.125 115.636 28.125 107.812V42.1875C28.125 34.3641 34.3641 28.125 42.1875 28.125ZM51.5625 46.875C50.3193 46.8751 49.1271 47.369 48.2481 48.2481C47.369 49.1271 46.8751 50.3193 46.875 51.5625V98.4375C46.8662 99.0586 46.981 99.6754 47.2126 100.252C47.4442 100.828 47.7881 101.353 48.2242 101.795C48.6604 102.238 49.1801 102.589 49.7532 102.829C50.3263 103.068 50.9413 103.192 51.5625 103.192C52.1837 103.192 52.7987 103.068 53.3718 102.829C53.9449 102.589 54.4646 102.238 54.9007 101.795C55.3369 101.353 55.6808 100.828 55.9124 100.252C56.144 99.6754 56.2588 99.0586 56.25 98.4375V81.25H59.375C68.8118 81.25 76.5625 73.4993 76.5625 64.0625C76.5625 54.6257 68.8118 46.875 59.375 46.875H51.5625ZM56.25 56.25H59.375C63.7445 56.25 67.1875 59.693 67.1875 64.0625C67.1875 68.432 63.7445 71.875 59.375 71.875H56.25V56.25ZM90.7837 65.625C84.3676 65.625 79.0649 70.9277 79.0649 77.3438C79.0649 83.7598 84.3676 89.0625 90.7837 89.0625H94.5312C95.8839 89.0625 96.875 90.0536 96.875 91.4062C96.875 92.7589 95.8839 93.75 94.5312 93.75H87.8113C87.3911 93.75 87.06 93.6053 86.7798 93.3594C86.7247 93.3111 86.6699 93.2626 86.6333 93.219C86.2454 92.7241 85.7618 92.3124 85.2115 92.0083C84.6611 91.7041 84.0552 91.5138 83.4298 91.4486C82.8044 91.3835 82.1723 91.4448 81.5711 91.6289C80.9699 91.813 80.4118 92.1163 79.9302 92.5205C79.4486 92.9247 79.0532 93.4217 78.7675 93.9819C78.4819 94.5421 78.3119 95.154 78.2676 95.7812C78.2233 96.4084 78.3057 97.0382 78.5098 97.6329C78.7139 98.2277 79.0355 98.7753 79.4556 99.2432C79.8127 99.6683 80.1958 100.057 80.5969 100.409C82.5167 102.094 85.069 103.125 87.8113 103.125H94.5312C100.947 103.125 106.25 97.8223 106.25 91.4062C106.25 84.9902 100.947 79.6875 94.5312 79.6875H90.7837C89.431 79.6875 88.4399 78.6964 88.4399 77.3438C88.4399 75.9911 89.431 75 90.7837 75H95.0012C95.7105 75 96.2412 75.4271 96.46 76.001C96.6686 76.5901 96.993 77.1316 97.414 77.5936C97.835 78.0555 98.3441 78.4286 98.9114 78.6909C99.4787 78.9533 100.093 79.0995 100.717 79.121C101.342 79.1426 101.965 79.039 102.549 78.8164C103.133 78.5937 103.666 78.2566 104.118 77.8247C104.57 77.3928 104.931 76.875 105.18 76.3016C105.428 75.7282 105.56 75.1109 105.567 74.4859C105.573 73.8609 105.455 73.2409 105.219 72.6624C103.643 68.53 99.6232 65.625 95.0012 65.625H90.7837Z" fill="#EC7323"/>
</svg>
