<svg width="66" height="71" viewBox="0 0 66 71" fill="none" xmlns="http://www.w3.org/2000/svg">
<path d="M25.9402 38.9028C25.9402 45.0916 20.7882 50.1806 14.3431 50.1806C7.8981 50.1806 2.74609 45.0916 2.74609 38.9028C2.74609 32.7139 7.8981 27.625 14.3431 27.625C20.7882 27.625 25.9402 32.7139 25.9402 38.9028Z" stroke="#EC7323" stroke-width="3.5"/>
<path d="M25.9441 55.0278C25.9441 61.2166 20.7921 66.3056 14.347 66.3056C7.902 66.3056 2.75 61.2166 2.75 55.0278C2.75 48.8389 7.902 43.75 14.347 43.75C20.7921 43.75 25.9441 48.8389 25.9441 55.0278Z" stroke="#EC7323" stroke-width="3.5"/>
<path d="M34.3984 66.1576V26.5357C34.3984 14.0104 44.3819 3.68293 57.1147 2.80978V42.5099L57.1092 42.8311C56.9002 55.1746 46.995 65.2936 34.3984 66.1576Z" stroke="#EC7323" stroke-width="3.5"/>
</svg>
