<svg width="150" height="150" viewBox="0 0 150 150" fill="none" xmlns="http://www.w3.org/2000/svg">
<path d="M55.5 6C41.4526 6 30 17.4526 30 31.5C30 41.4009 35.8498 49.7786 44.127 54C35.8498 58.2214 30 66.5991 30 76.5C30 86.4009 35.8498 94.7786 44.127 99C35.8498 103.221 30 111.599 30 121.5C30 135.547 41.4526 147 55.5 147C69.5474 147 81 135.547 81 121.5V99V88.9688C85.0241 96.6052 92.7962 102 102 102C115.219 102 126 91.2193 126 78C126 67.1347 118.579 58.2861 108.645 55.3477C118.661 51.9051 126 42.6607 126 31.5C126 17.4526 114.547 6 100.5 6H78H55.5ZM55.5 12H75V51H55.5C44.6954 51 36 42.3046 36 31.5C36 20.6954 44.6954 12 55.5 12ZM81 12H100.5C111.305 12 120 20.6954 120 31.5C120 42.3046 111.305 51 100.5 51H81V12ZM55.5 57H75V96H55.5C44.6954 96 36 87.3046 36 76.5C36 65.6954 44.6954 57 55.5 57ZM81 57H91.0312C86.7265 59.2684 83.2684 62.7265 81 67.0312V57ZM102 60C111.977 60 120 68.0233 120 78C120 87.9767 111.977 96 102 96C92.0233 96 84 87.9767 84 78C84 68.0233 92.0233 60 102 60ZM55.5 102H75V121.5C75 132.305 66.3046 141 55.5 141C44.6954 141 36 132.305 36 121.5C36 110.695 44.6954 102 55.5 102Z" fill="#EC7323"/>
</svg>
