<svg width="150" height="150" viewBox="0 0 150 150" fill="none" xmlns="http://www.w3.org/2000/svg">
<path d="M146.5 75C146.5 114.488 114.488 146.5 75 146.5C35.5116 146.5 3.5 114.488 3.5 75C3.5 35.5116 35.5116 3.5 75 3.5C114.488 3.5 146.5 35.5116 146.5 75Z" stroke="#EC7323" stroke-width="7"/>
<path fill-rule="evenodd" clip-rule="evenodd" d="M50.138 47.2013C55.1243 47.2013 59.301 43.2928 59.301 38.1707C59.301 33.0519 55.1243 29.1445 50.138 29.1445C45.1516 29.1445 40.9755 33.0519 40.9755 38.1707C40.9755 43.2928 45.1516 47.2013 50.138 47.2013ZM31.138 95.5531C30.5999 97.844 30.3294 100.318 30.3294 102.336C30.3294 110.288 34.6414 115.567 43.805 115.567C51.405 115.567 57.5658 111.053 62.0016 103.766L59.2931 114.637H74.384L83.009 80.044C85.1647 71.2849 89.3419 66.7388 95.676 66.7388C100.662 66.7388 103.761 69.8394 103.761 74.9582C103.761 76.4417 103.626 78.057 103.087 79.8093L98.6397 95.7099C97.9658 98.0008 97.6976 100.293 97.6976 102.447C97.6976 109.996 102.144 115.518 111.441 115.518C119.392 115.518 125.725 110.4 129.229 98.1366L123.3 95.8474C120.335 104.063 117.775 105.549 115.754 105.549C113.732 105.549 112.654 104.202 112.654 101.508C112.654 100.296 112.924 98.9496 113.328 97.3292L117.641 81.8377C118.718 78.2002 119.123 74.9746 119.123 72.011C119.123 60.4224 112.115 54.3746 103.626 54.3746C95.676 54.3746 87.5902 61.5457 83.5488 69.0928L86.5124 55.5462H63.4703L60.2357 67.478H71.0164L64.3783 94.0565C59.1647 105.645 49.5885 105.833 48.3868 105.564C46.4135 105.119 45.1516 104.37 45.1516 101.805C45.1516 100.326 45.4209 98.2008 46.0948 95.6383L56.2022 55.5462H30.5999L27.3652 67.478H38.0101L31.138 95.5531Z" fill="#EC7323"/>
</svg>
