<svg width="150" height="150" viewBox="0 0 150 150" fill="none" xmlns="http://www.w3.org/2000/svg">
<path d="M42.1875 18.75C29.2984 18.75 18.75 29.2984 18.75 42.1875V107.812C18.75 120.702 29.2984 131.25 42.1875 131.25H107.812C120.702 131.25 131.25 120.702 131.25 107.812V42.1875C131.25 29.2984 120.702 18.75 107.812 18.75H42.1875ZM42.1875 28.125H107.812C115.636 28.125 121.875 34.3641 121.875 42.1875V107.812C121.875 115.636 115.636 121.875 107.812 121.875H42.1875C34.3641 121.875 28.125 115.636 28.125 107.812V42.1875C28.125 34.3641 34.3641 28.125 42.1875 28.125ZM65.5273 46.875C64.5359 46.8952 63.5764 47.2292 62.7867 47.8291C61.9971 48.429 61.418 49.2639 61.1328 50.2136L47.0703 97.0886C46.893 97.6786 46.8337 98.2977 46.8957 98.9106C46.9577 99.5235 47.1398 100.118 47.4317 100.661C47.7235 101.203 48.1194 101.683 48.5967 102.072C49.074 102.462 49.6233 102.754 50.2133 102.931C50.8033 103.108 51.4225 103.167 52.0353 103.105C52.6482 103.043 53.2429 102.861 53.7853 102.569C54.3278 102.277 54.8074 101.881 55.1968 101.403C55.5861 100.926 55.8777 100.376 56.0547 99.7864L57.8674 93.75H73.3826L75.1953 99.7864C75.3723 100.376 75.6639 100.926 76.0532 101.403C76.4426 101.881 76.9222 102.277 77.4647 102.569C78.0071 102.861 78.6018 103.043 79.2147 103.105C79.8275 103.167 80.4467 103.108 81.0367 102.931C81.6267 102.754 82.176 102.462 82.6533 102.072C83.1306 101.683 83.5265 101.203 83.8183 100.661C84.1102 100.118 84.2923 99.5235 84.3543 98.9106C84.4163 98.2977 84.357 97.6786 84.1797 97.0886L70.1172 50.2136C69.8224 49.2319 69.2139 48.3738 68.3849 47.7708C67.556 47.1678 66.5522 46.8531 65.5273 46.875ZM95.3125 51.5625C93.6549 51.5625 92.0652 52.221 90.8931 53.3931C89.721 54.5652 89.0625 56.1549 89.0625 57.8125C89.0625 59.4701 89.721 61.0598 90.8931 62.2319C92.0652 63.404 93.6549 64.0625 95.3125 64.0625C96.9701 64.0625 98.5598 63.404 99.7319 62.2319C100.904 61.0598 101.562 59.4701 101.562 57.8125C101.562 56.1549 100.904 54.5652 99.7319 53.3931C98.5598 52.221 96.9701 51.5625 95.3125 51.5625ZM65.625 67.8833L70.5688 84.375H60.6812L65.625 67.8833ZM95.2393 68.6829C93.9971 68.7023 92.8135 69.2139 91.9483 70.1054C91.0831 70.9969 90.6072 72.1953 90.625 73.4375V98.4375C90.6162 99.0586 90.731 99.6754 90.9626 100.252C91.1942 100.828 91.5381 101.353 91.9743 101.795C92.4104 102.238 92.9301 102.589 93.5032 102.829C94.0763 103.068 94.6913 103.192 95.3125 103.192C95.9337 103.192 96.5487 103.068 97.1218 102.829C97.6949 102.589 98.2146 102.238 98.6507 101.795C99.0869 101.353 99.4308 100.828 99.6624 100.252C99.894 99.6754 100.009 99.0586 100 98.4375V73.4375C100.009 72.8101 99.892 72.1873 99.6558 71.606C99.4197 71.0246 99.0692 70.4966 98.6253 70.0532C98.1813 69.6098 97.6529 69.2601 97.0712 69.0247C96.4896 68.7893 95.8666 68.6731 95.2393 68.6829Z" fill="#EC7323"/>
</svg>
