<svg width="150" height="150" viewBox="0 0 150 150" fill="none" xmlns="http://www.w3.org/2000/svg">
<path d="M23.4375 23.4375V28.125V126.562H126.562V23.4375H23.4375ZM32.8125 32.8125H117.188V117.188H32.8125V32.8125ZM54.8676 51.5625L42.1875 91.6901V98.4375H51.5625V93.75H65.625V98.4375H75V91.6901L62.3199 51.5625H54.8676ZM93.7683 60.9375C87.5066 60.9155 82.8382 65.0127 81.189 69.1498C79.5397 73.2869 79.6875 77.35 79.6875 79.6875C79.6875 82.2266 79.733 86.2586 81.4545 90.3076C83.176 94.3566 87.6814 98.431 93.7408 98.4375C100.782 98.4469 103.143 98.4375 103.143 98.4375L103.107 89.0625C103.107 89.0625 100.79 89.0719 93.7592 89.0625C91.0295 89.0596 90.8475 88.4444 90.0787 86.6364C89.8285 86.048 89.8986 85.1446 89.7491 84.375H103.125L107.812 79.7058C107.812 79.7058 107.891 75.6001 106.43 71.1914C105.7 68.987 104.571 66.5741 102.512 64.5172C100.452 62.4603 97.2895 60.9497 93.7683 60.9375ZM93.7317 70.3125C94.9308 70.3167 95.2996 70.5719 95.8832 71.1548C96.4668 71.7377 97.098 72.8322 97.5311 74.1394C97.6658 74.546 97.5705 74.5912 97.6685 75H89.6118C89.7353 74.2046 89.6633 73.2025 89.8956 72.6196C90.5854 70.8892 90.5996 70.3016 93.7317 70.3125ZM58.5938 70.8801L62.8601 84.375H54.3274L58.5938 70.8801Z" fill="#EC7323"/>
</svg>
