<svg width="50" height="50" viewBox="0 0 50 50" fill="none" xmlns="http://www.w3.org/2000/svg">
<g clip-path="url(#clip0_1568_414)">
<path d="M48.3346 24.9993C48.3346 37.8859 37.8879 48.3327 25.0013 48.3327C12.1147 48.3327 1.66797 37.8859 1.66797 24.9993C1.66797 12.1127 12.1147 1.66602 25.0013 1.66602C37.8879 1.66602 48.3346 12.1127 48.3346 24.9993Z" stroke="#EC7323" stroke-width="3.5"/>
<path d="M31.36 21.9245C29.8114 14.9069 26.1513 12.5996 25.7572 11.718C25.3262 11.0961 24.8895 9.98982 24.8895 9.98982C24.8823 9.97115 24.8708 9.93822 24.8574 9.90625C24.8129 10.5282 24.7899 10.7682 24.2172 11.3955C23.3303 12.1074 18.7801 16.0275 18.4099 24.0003C18.0646 31.4362 23.6416 35.867 24.3958 36.432L24.4815 36.4943V36.489C24.4863 36.5263 24.7209 38.259 24.8857 40.095H25.4766C25.6153 38.7973 25.8231 37.5083 26.0991 36.234L26.147 36.202C26.4844 35.9536 26.8061 35.6833 27.11 35.393L27.1445 35.3613C28.7478 33.8403 31.6301 30.3231 31.6019 24.7152C31.5959 23.7797 31.515 22.8463 31.36 21.9245ZM24.8229 32.2337C24.8229 32.2337 24.8229 21.8045 25.1582 21.8065C25.4196 21.8065 25.7582 35.259 25.7582 35.259C25.2927 35.2013 24.8229 33.045 24.8229 32.2337Z" fill="#EC7323"/>
</g>
<defs>
<clipPath id="clip0_1568_414">
<rect width="50" height="50" fill="white"/>
</clipPath>
</defs>
</svg>
