<svg width="150" height="150" viewBox="0 0 150 150" fill="none" xmlns="http://www.w3.org/2000/svg">
<path d="M138.156 116.015C129.991 115.804 123.669 116.641 118.363 118.928C116.831 119.551 114.395 119.551 114.182 121.523C115.01 122.358 115.105 123.705 115.824 124.856C117.047 126.934 119.18 129.73 121.127 131.188C123.265 132.857 125.411 134.51 127.662 135.965C131.63 138.466 136.127 139.921 139.994 142.413C142.247 143.863 144.486 145.738 146.742 147.299C147.851 148.13 148.561 149.48 150 150V149.683C149.279 148.748 149.074 147.396 148.367 146.356L145.303 143.345C142.343 139.295 138.664 135.759 134.696 132.855C131.43 130.562 124.286 127.446 122.962 123.613L122.754 123.401C124.999 123.187 127.662 122.358 129.795 121.721C133.265 120.789 136.43 121 139.991 120.068C141.63 119.651 143.255 119.128 144.899 118.613V117.676C143.053 115.804 141.736 113.317 139.795 111.547C134.601 106.976 128.877 102.506 122.962 98.7639C119.794 96.6802 115.72 95.3392 112.347 93.5671C111.132 92.9412 109.084 92.6324 108.368 91.5919C106.539 89.3051 105.509 86.295 104.182 83.5881C101.233 77.8766 98.368 71.5392 95.8228 65.4995C93.9822 61.4489 92.8626 57.4039 90.6179 53.6565C80.1041 35.9908 68.6865 25.2912 51.1381 14.7892C47.3668 12.6025 42.88 11.6706 38.0874 10.5244L30.4329 10.1126C28.7998 9.38377 27.1641 7.40576 25.7386 6.47101C19.9164 2.732 4.92681 -5.37197 0.644857 5.3276C-2.11329 12.0906 4.72472 18.7396 7.07325 22.1698C8.80733 24.5512 11.0548 27.2609 12.2673 29.965C12.9855 31.7316 13.1876 33.6066 13.9058 35.4734C15.5389 40.047 17.0654 45.1352 19.2118 49.4028C20.3315 51.5784 21.5522 53.8652 22.9831 55.8348C23.8024 56.9866 25.2279 57.4957 25.5392 59.3735C24.1164 61.4433 24.0045 64.5675 23.1879 67.1659C19.5177 78.9087 20.9514 93.4558 26.1536 102.086C27.7812 104.684 31.6645 110.404 36.8585 108.212C41.4573 106.342 40.4387 100.419 41.7604 95.2252C42.0635 93.9705 41.8642 93.147 42.4759 92.3236V92.5266C43.8986 95.4338 45.3351 98.2353 46.6541 101.151C49.8191 106.239 55.3299 111.542 59.9205 115.066C62.3646 116.947 64.3008 120.163 67.362 121.312V121H67.16C66.5401 120.068 65.6334 119.651 64.8196 118.928C62.979 117.056 60.9418 114.769 59.5136 112.693C55.2371 106.871 51.4521 100.425 48.0932 93.773C46.4492 90.5459 45.0319 87.0183 43.7075 83.7967C43.0903 82.5532 43.0903 80.6781 42.0662 80.0521C40.5315 82.3362 38.295 84.3142 37.1753 87.1129C35.2337 91.5891 35.0316 97.0947 34.3107 102.82L33.9092 103.02C30.6595 102.189 29.529 98.7639 28.2946 95.8567C25.2388 88.4733 24.7254 76.6219 27.3771 68.1034C28.0871 65.9251 31.1593 59.0647 29.9331 56.9894C29.3187 55.0002 27.276 53.8679 26.1564 52.3017C24.8401 50.332 23.3982 47.8394 22.4807 45.6527C20.0338 39.8355 18.8022 33.3897 16.1669 27.5753C14.9353 24.8656 12.7971 22.0613 11.0657 19.5659C9.12139 16.7616 6.98313 14.7864 5.44566 11.4619C4.93773 10.3185 4.22499 8.44901 5.04151 7.20545C5.24086 6.37085 5.65594 6.05927 6.46973 5.85062C7.79145 4.71278 11.5682 6.15942 12.8927 6.78537C16.6749 8.34329 19.8372 9.79828 22.9941 11.9794C24.4223 13.0226 25.9543 14.9978 27.7867 15.5181H29.9331C33.191 16.2414 36.864 15.7184 39.9307 16.6587C45.3351 18.4281 50.2315 21.0236 54.6227 23.8251C67.9847 32.4577 79.0036 44.7235 86.4424 59.3735C87.6631 61.7605 88.1819 63.9471 89.2961 66.437C91.4453 71.5337 94.1024 76.7304 96.2352 81.7186C98.3789 86.601 100.422 91.5863 103.483 95.6425C105.009 97.8236 111.143 98.967 113.893 100.11C115.927 101.042 119.095 101.871 120.93 103.015C124.401 105.193 127.858 107.694 131.122 110.089C132.747 111.336 137.853 113.934 138.156 116.015ZM34.0949 25.7002C32.6865 25.6853 31.2824 25.8612 29.9195 26.2232V26.4319H30.1161C30.9381 28.0927 32.3663 29.2445 33.3849 30.6939C34.2069 32.3603 34.9196 34.0128 35.7252 35.6765L35.9219 35.4706C37.361 34.4329 38.0765 32.7693 38.0765 30.2738C37.4566 29.5394 37.361 28.8216 36.8449 28.0927C36.2441 27.0522 34.9196 26.5348 34.0949 25.7002Z" fill="#EC7323"/>
</svg>
