<svg width="150" height="150" viewBox="0 0 150 150" fill="none" xmlns="http://www.w3.org/2000/svg">
<path opacity="0.5" d="M0 127.174L25.0228 3.03521C25.3331 1.50797 26.8534 0.317454 28.808 0.0528945C30.7627 -0.211665 32.7173 0.533913 33.6636 1.89279L59.5397 39.316L69.8559 24.0918C70.6471 22.9133 72.2295 22.1797 73.9514 22.1797C75.6734 22.1797 77.2402 22.9133 78.0469 24.0918L147.887 127.174H0Z" fill="#EC7323"/>
<path opacity="0.75" d="M84.507 76.9292L58.1981 35.8691L0 127.173L84.507 76.9292Z" fill="#EC7323"/>
<path d="M150 127.173L122.456 38.5865C122.195 37.3823 121.123 36.397 119.667 36.0248C118.211 35.6526 116.617 35.9591 115.532 36.824L8.45117 122.289L67.693 148.76C71.4162 150.413 75.95 150.413 79.6595 148.76L150 127.173Z" fill="#EC7323"/>
</svg>
