<svg width="150" height="150" viewBox="0 0 150 150" fill="none" xmlns="http://www.w3.org/2000/svg">
<path d="M85.5 33C72.6266 33 61.4371 39.6593 54.6914 49.5645C52.5448 48.8156 50.406 48 48 48C37.9908 48 29.8324 55.1594 27.7559 64.5703C16.9356 68.0929 9 78.036 9 90C9 104.876 21.1245 117 36 117H117C130.219 117 141 106.219 141 93C141 81.8859 133.256 72.8298 122.965 70.125C122.758 49.6268 106.046 33 85.5 33ZM85.5 39C102.932 39 117 53.0685 117 70.5C117 70.8758 116.95 71.3904 116.918 72.082C116.882 72.8304 117.127 73.5653 117.605 74.1422C118.083 74.7191 118.76 75.0961 119.502 75.1992C128.262 76.4187 135 83.8762 135 93C135 102.977 126.977 111 117 111H36C24.3675 111 15 101.632 15 90C15 80.1412 21.7672 71.9415 30.8848 69.6562C31.4719 69.5096 32.001 69.1889 32.4026 68.7361C32.8041 68.2833 33.0594 67.7196 33.1348 67.1191C34.0603 59.7198 40.3209 54 48 54C50.3623 54 52.577 54.5596 54.5801 55.541C55.2559 55.8725 56.0317 55.9378 56.7535 55.724C57.4753 55.5102 58.0903 55.0329 58.4766 54.3867C63.9801 45.1804 73.9808 39 85.5 39Z" fill="#EC7323"/>
</svg>
