<svg width="150" height="150" viewBox="0 0 150 150" fill="none" xmlns="http://www.w3.org/2000/svg">
<g clip-path="url(#clip0_3163_6864)">
<path d="M49.7809 0.000357962C49.6168 0.0237955 49.4645 0.047233 49.3121 0.094108L14.0621 11.0629C13.6051 11.2152 13.1832 11.473 12.8434 11.8129C12.8082 11.8715 12.773 11.9418 12.7496 12.0004C12.691 12.0238 12.6207 12.059 12.5621 12.0941C12.5621 12.1293 12.5621 12.1527 12.5621 12.1879C12.527 12.223 12.5035 12.2465 12.4684 12.2816C12.4332 12.3402 12.398 12.4105 12.3746 12.4691C12.3395 12.5043 12.316 12.5277 12.2809 12.5629C12.2809 12.6215 12.2809 12.6918 12.2809 12.7504C12.2457 12.7855 12.2223 12.809 12.1871 12.8441C12.1871 12.9027 12.1871 12.973 12.1871 13.0316C12.152 13.0668 12.1285 13.0902 12.0934 13.1254C12.0934 13.184 12.0934 13.2543 12.0934 13.3129C12.0582 13.43 12.023 13.559 11.9996 13.6879C11.9996 13.7465 11.9996 13.8168 11.9996 13.8754C11.9762 14.3558 12.0699 14.848 12.2809 15.2816L19.9684 52.5004C20.0855 53.1918 20.4605 53.8246 20.9996 54.2816L28.9684 60.4691L25.0309 62.3441L24.7496 62.4379C24.6207 62.4964 24.4918 62.555 24.3746 62.6254C24.2105 62.7074 24.0582 62.8011 23.9059 62.9066C23.8473 62.93 23.777 62.9652 23.7184 63.0004C23.6832 63.0355 23.6598 63.0589 23.6246 63.0941C23.402 63.3168 23.2145 63.5629 23.0621 63.8441C23.027 63.8793 23.0035 63.9027 22.9684 63.9379C22.8277 64.2074 22.734 64.4886 22.6871 64.7816C22.6871 64.8402 22.6871 64.9105 22.6871 64.9691C22.6637 65.1566 22.6637 65.3441 22.6871 65.5316C22.6754 65.6605 22.6754 65.7777 22.6871 65.9066C22.7105 66.0004 22.7457 66.0941 22.7809 66.1879L28.5934 94.5004C28.734 95.1214 29.0621 95.6722 29.5309 96.0941L34.8746 101.157L32.7184 102.469L32.3434 102.657C32.2496 102.715 32.1559 102.774 32.0621 102.844C32.027 102.879 32.0035 102.903 31.9684 102.938C31.8629 103.02 31.7691 103.114 31.6871 103.219C31.652 103.278 31.6168 103.348 31.5934 103.407C31.5582 103.442 31.5348 103.465 31.4996 103.5C31.4645 103.559 31.4293 103.629 31.4059 103.688C31.3707 103.723 31.3473 103.746 31.3121 103.782C31.277 103.817 31.2535 103.84 31.2184 103.875C31.2184 103.911 31.2184 103.934 31.2184 103.969C31.1832 104.028 31.148 104.098 31.1246 104.157C31.1246 104.192 31.1246 104.215 31.1246 104.25C31.0895 104.344 31.0543 104.438 31.0309 104.532C31.0309 104.567 31.0309 104.59 31.0309 104.625C31.0309 104.684 31.0309 104.754 31.0309 104.813C30.9957 104.848 30.9723 104.871 30.9371 104.907C30.9371 104.965 30.9371 105.036 30.9371 105.094C30.9371 105.129 30.9371 105.153 30.9371 105.188C30.9371 105.246 30.9371 105.317 30.9371 105.375C30.9371 105.411 30.9371 105.434 30.9371 105.469C30.9605 105.528 30.9957 105.598 31.0309 105.657C31.0309 105.692 31.0309 105.715 31.0309 105.75C31.0309 105.786 31.0309 105.809 31.0309 105.844C31.0543 105.903 31.0895 105.973 31.1246 106.032L35.6246 127.969C35.7418 128.496 35.9996 128.989 36.3746 129.375L54.8434 149.063C55.0309 149.286 55.2535 149.473 55.4996 149.625C55.5348 149.625 55.5582 149.625 55.5934 149.625C55.652 149.661 55.7223 149.696 55.7809 149.719C55.816 149.719 55.8395 149.719 55.8746 149.719C55.9332 149.789 55.9918 149.848 56.0621 149.907C56.273 149.965 56.4957 149.989 56.7184 150C57.7145 150.118 58.6988 149.731 59.3434 148.969L82.7809 130.407C83.5426 129.797 83.9645 128.848 83.9059 127.875L83.5309 119.719L87.4684 122.907C87.527 123 87.5855 123.094 87.6559 123.188L87.8434 123.282C88.898 124.137 90.398 124.172 91.4996 123.375C91.5348 123.375 91.5582 123.375 91.5934 123.375L110.718 108.094C111.386 107.567 111.785 106.782 111.843 105.938L112.218 100.219L114.375 101.625C114.515 101.766 114.679 101.895 114.843 102L114.937 102.094C114.996 102.129 115.066 102.164 115.125 102.188C115.16 102.223 115.183 102.246 115.218 102.282C115.254 102.282 115.277 102.282 115.312 102.282C115.371 102.317 115.441 102.352 115.5 102.375C115.535 102.375 115.558 102.375 115.593 102.375C115.652 102.411 115.722 102.446 115.781 102.469C115.816 102.469 115.839 102.469 115.875 102.469C115.933 102.504 116.004 102.539 116.062 102.563C116.121 102.563 116.191 102.563 116.25 102.563C116.285 102.563 116.308 102.563 116.343 102.563C116.402 102.563 116.472 102.563 116.531 102.563C116.625 102.563 116.718 102.563 116.812 102.563C117.316 102.528 117.796 102.364 118.218 102.094C118.254 102.094 118.277 102.094 118.312 102.094C118.382 102.036 118.441 101.977 118.5 101.907L118.781 101.719C118.851 101.661 118.91 101.602 118.968 101.532L134.062 89.5316C134.683 89.0511 135.082 88.3363 135.187 87.5629L137.906 67.5004C137.941 67.4418 137.976 67.3714 138 67.3129V67.2191C138 67.1839 138 67.1605 138 67.1254C138 67.0316 138 66.9379 138 66.8441C138.023 66.6214 138.023 66.4105 138 66.1879C137.976 66.1293 137.941 66.0589 137.906 66.0004C137.906 65.9652 137.906 65.9418 137.906 65.9066C137.882 65.848 137.847 65.7777 137.812 65.7191C137.812 65.6839 137.812 65.6605 137.812 65.6254C137.789 65.5668 137.754 65.4964 137.718 65.4379C137.718 65.4027 137.718 65.3793 137.718 65.3441C137.66 65.2738 137.601 65.2152 137.531 65.1566C137.379 64.9105 137.191 64.6879 136.968 64.5004C136.605 64.1371 136.148 63.8793 135.656 63.7504L116.531 53.0629C116.097 52.8285 115.617 52.6996 115.125 52.6879C115.031 52.6879 114.937 52.6879 114.843 52.6879C114.375 52.7347 113.929 52.8988 113.531 53.1566L96.9371 63.2816C96.6676 63.3988 96.4098 63.5629 96.1871 63.7504C96.1871 63.7855 96.1871 63.8089 96.1871 63.8441C96.0465 63.9613 95.9293 64.0785 95.8121 64.2191C95.8121 64.2543 95.8121 64.2777 95.8121 64.3129C95.7418 64.3714 95.6832 64.43 95.6246 64.5004C95.6246 64.5355 95.6246 64.5589 95.6246 64.5941C95.4957 64.8285 95.402 65.0863 95.3434 65.3441C95.3434 65.3793 95.3434 65.4027 95.3434 65.4379C95.3082 65.4964 95.273 65.5668 95.2496 65.6254C95.2496 65.6605 95.2496 65.6839 95.2496 65.7191C95.2496 65.7777 95.2496 65.848 95.2496 65.9066C95.2379 66.0355 95.2379 66.1527 95.2496 66.2816L95.1559 71.0629L91.4996 68.6254C91.0074 68.2738 90.4215 68.0746 89.8121 68.0629C89.6246 68.0746 89.4371 68.1097 89.2496 68.1566C88.9215 68.2269 88.6051 68.3558 88.3121 68.5316L81.5621 72.6566L81.2809 66.8441C81.3043 66.6566 81.3043 66.4691 81.2809 66.2816C81.2574 66.1527 81.2223 66.0238 81.1871 65.9066C81.1871 65.848 81.1871 65.7777 81.1871 65.7191C81.1871 65.6839 81.1871 65.6605 81.1871 65.6254C81.1637 65.5668 81.1285 65.4964 81.0934 65.4379C81.0934 65.4027 81.0934 65.3793 81.0934 65.3441C81.0699 65.2855 81.0348 65.2152 80.9996 65.1566C80.9996 65.1214 80.9996 65.098 80.9996 65.0629C80.9762 65.0043 80.941 64.9339 80.9059 64.8754C80.8707 64.8402 80.8473 64.8168 80.8121 64.7816C80.7887 64.723 80.7535 64.6527 80.7184 64.5941C80.6832 64.5941 80.6598 64.5941 80.6246 64.5941C80.6012 64.5355 80.566 64.4652 80.5309 64.4066C80.4957 64.3714 80.4723 64.348 80.4371 64.3129C80.4137 64.2543 80.3785 64.1839 80.3434 64.1254C80.3082 64.1254 80.2848 64.1254 80.2496 64.1254C80.191 64.055 80.1324 63.9964 80.0621 63.9379C80.027 63.9379 80.0035 63.9379 79.9684 63.9379L79.7809 63.8441C79.7457 63.8089 79.7223 63.7855 79.6871 63.7504L79.5934 63.6566C79.4996 63.6214 79.4059 63.5863 79.3121 63.5629L72.5621 59.0629L79.0309 55.6879C80.0738 55.1839 80.7301 54.1293 80.7184 52.9691L79.1246 15.4691C79.1246 15.4105 79.1246 15.3402 79.1246 15.2816C79.1246 15.2465 79.1246 15.223 79.1246 15.1879C79.1246 15.1293 79.1246 15.059 79.1246 15.0004C79.0895 14.9652 79.066 14.9418 79.0309 14.9066C79.0309 14.848 79.0309 14.7777 79.0309 14.7191C78.9957 14.684 78.9723 14.6605 78.9371 14.6254C78.9371 14.5668 78.9371 14.4965 78.9371 14.4379C78.902 14.4027 78.8785 14.3793 78.8434 14.3441C78.8434 14.2855 78.8434 14.2152 78.8434 14.1566C78.5855 13.6527 78.1988 13.2308 77.7184 12.9379C77.6832 12.9027 77.6598 12.8793 77.6246 12.8441C77.3902 12.68 77.1441 12.5629 76.8746 12.4691L51.5621 0.281608C51.0113 0.0120767 50.3902 -0.093392 49.7809 0.000357962ZM50.0621 6.28161L68.4371 15.1879L48.6559 22.6879L40.1246 25.9691L22.2184 14.9066L50.0621 6.28161ZM73.3121 19.7816L74.6246 51.2816L65.9059 55.8754L65.6246 55.9691C65.4254 56.0394 65.2379 56.1332 65.0621 56.2504L48.0934 65.1566L43.1246 31.3129L73.3121 19.7816ZM19.3121 20.1566L37.0309 31.1254L41.6246 62.7191L36.4684 58.6879C36.316 58.5824 36.1637 58.4886 35.9996 58.4066L25.4996 50.1566L19.3121 20.1566ZM115.218 59.1566L129.375 67.0316L121.875 72.3754L118.312 75.0004L103.968 66.0004L115.218 59.1566ZM66.6559 62.2504L72.5621 66.1879L48.0934 80.0629L31.2184 66.0004L34.2184 64.5941L43.3121 71.5316L43.4996 71.7191C43.5582 71.7894 43.6168 71.848 43.6871 71.9066L43.8746 72.0004C43.9098 72.0355 43.9332 72.0589 43.9684 72.0941C44.027 72.1293 44.0973 72.1644 44.1559 72.1879C44.191 72.223 44.2145 72.2464 44.2496 72.2816C44.2848 72.3168 44.3082 72.3402 44.3434 72.3754C44.3785 72.3754 44.402 72.3754 44.4371 72.3754C44.4957 72.4105 44.566 72.4457 44.6246 72.4691C44.6598 72.5043 44.6832 72.5277 44.7184 72.5629C44.777 72.5629 44.8473 72.5629 44.9059 72.5629C44.941 72.598 44.9645 72.6214 44.9996 72.6566C45.0582 72.6566 45.1285 72.6566 45.1871 72.6566C45.2457 72.6566 45.316 72.6566 45.3746 72.6566C45.4332 72.6566 45.5035 72.6566 45.5621 72.6566C45.5973 72.6566 45.6207 72.6566 45.6559 72.6566C45.7145 72.6566 45.7848 72.6566 45.8434 72.6566C45.8785 72.6566 45.902 72.6566 45.9371 72.6566C46.1246 72.6449 46.3121 72.6097 46.4996 72.5629C46.5934 72.5394 46.6871 72.5043 46.7809 72.4691C46.8395 72.4457 46.9098 72.4105 46.9684 72.3754C47.0035 72.3754 47.027 72.3754 47.0621 72.3754L66.6559 62.2504ZM101.156 71.3441L115.312 80.1566L114.468 89.5316L114.093 94.2191L112.593 93.1879L113.156 84.8441C113.156 84.7855 113.156 84.7152 113.156 84.6566C113.168 84.5277 113.168 84.4105 113.156 84.2816C113.156 84.223 113.156 84.1527 113.156 84.0941C113.132 83.9652 113.097 83.8363 113.062 83.7191C113.039 83.6254 113.004 83.5316 112.968 83.4379C112.898 83.2386 112.804 83.0511 112.687 82.8754C112.664 82.8168 112.629 82.7464 112.593 82.6879C112.558 82.6527 112.535 82.6293 112.5 82.5941C112.476 82.5355 112.441 82.4652 112.406 82.4066C112.23 82.266 112.043 82.1371 111.843 82.0316L111.656 81.8441C111.504 81.7738 111.351 81.7035 111.187 81.6566L101.062 74.9066L101.156 71.3441ZM75.4684 71.4379L75.7496 77.6254C75.7496 77.7191 75.7496 77.8129 75.7496 77.9066V78.0004C75.7496 78.0355 75.7496 78.0589 75.7496 78.0941V78.4691L76.4059 93.1879L70.9684 96.9379C70.8043 97.0199 70.652 97.1136 70.4996 97.2191C70.4059 97.2777 70.3121 97.3363 70.2184 97.4066L55.4996 107.344L54.3746 108.094L50.9996 85.4066L64.9684 77.4379L75.4684 71.4379ZM30.3746 73.1254L44.9996 85.3129V85.4066L47.9059 105.094L41.9059 99.4691C41.8473 99.3988 41.7887 99.3402 41.7184 99.2816L34.3121 92.2504L30.3746 73.1254ZM131.062 73.3129L129.468 85.5941L120.187 92.9066L121.312 80.2504L131.062 73.3129ZM89.8121 74.6254L96.0934 78.7504C96.3863 79.0433 96.7379 79.266 97.1246 79.4066L104.812 84.5629L89.6246 95.4379L82.4059 90.0004L81.8434 79.5004L89.8121 74.6254ZM106.781 90.5629L106.593 93.4691C106.324 94.1254 106.289 94.8519 106.5 95.5316L105.937 104.25L92.6246 114.844L92.5309 100.782L106.781 90.5629ZM81.5621 96.9379L86.5309 100.688L86.6246 114.469L83.2496 111.563L82.9684 106.5C82.9918 106.313 82.9918 106.125 82.9684 105.938C82.9801 105.809 82.9801 105.692 82.9684 105.563C82.9449 105.504 82.9098 105.434 82.8746 105.375C82.8746 105.34 82.8746 105.317 82.8746 105.282C82.8512 105.223 82.816 105.153 82.7809 105.094C82.7809 105.059 82.7809 105.036 82.7809 105C82.7574 104.942 82.7223 104.871 82.6871 104.813C82.6871 104.778 82.6871 104.754 82.6871 104.719C82.6637 104.661 82.6285 104.59 82.5934 104.532C82.5582 104.496 82.5348 104.473 82.4996 104.438C82.4762 104.379 82.441 104.309 82.4059 104.25C82.3707 104.25 82.3473 104.25 82.3121 104.25C82.2887 104.192 82.2535 104.121 82.2184 104.063C82.1832 104.028 82.1598 104.004 82.1246 103.969C82.1012 103.911 82.066 103.84 82.0309 103.782C81.9957 103.782 81.9723 103.782 81.9371 103.782C81.902 103.746 81.8785 103.723 81.8434 103.688L81.7496 103.594C81.5973 103.489 81.4449 103.395 81.2809 103.313L77.1559 99.9379L81.1871 97.2191C81.316 97.1371 81.4449 97.0433 81.5621 96.9379ZM71.9996 103.407L74.9996 105.844L54.0934 120.844L38.8121 105.844L39.4684 105.469L49.6871 115.032C49.7457 115.102 49.8043 115.161 49.8746 115.219L50.0621 115.407C50.1207 115.477 50.1793 115.536 50.2496 115.594C50.2848 115.594 50.3082 115.594 50.3434 115.594C50.402 115.664 50.4605 115.723 50.5309 115.782C50.7066 115.899 50.8941 115.993 51.0934 116.063C51.2809 116.11 51.4684 116.145 51.6559 116.157C51.7496 116.192 51.8434 116.227 51.9371 116.25C51.9723 116.25 51.9957 116.25 52.0309 116.25C52.2184 116.239 52.4059 116.203 52.5934 116.157C52.6871 116.157 52.7809 116.157 52.8746 116.157C53.0738 116.086 53.2613 115.993 53.4371 115.875C53.5309 115.817 53.6246 115.758 53.7184 115.688C53.7535 115.688 53.777 115.688 53.8121 115.688L71.9996 103.407ZM77.2496 111.75L77.3434 113.157C77.3434 113.25 77.3434 113.344 77.3434 113.438L77.8121 126.657L59.2496 141.469L56.9996 126.188L77.2496 111.75ZM38.8121 114.282L50.9996 126.282L52.0309 133.5L52.6871 138L41.2496 125.813L38.8121 114.282Z" fill="#EC7323"/>
</g>
<defs>
<clipPath id="clip0_3163_6864">
<rect width="150" height="150" fill="white"/>
</clipPath>
</defs>
</svg>
