<svg width="150" height="150" viewBox="0 0 150 150" fill="none" xmlns="http://www.w3.org/2000/svg">
<g clip-path="url(#clip0_3163_6866)">
<path d="M42.2719 67.2781C42.2719 69.1437 42.4719 70.6531 42.8219 71.7625C43.2219 72.8719 43.7187 74.0813 44.4187 75.3906C44.6687 75.7937 44.7687 76.1969 44.7687 76.55C44.7687 77.0531 44.4687 77.5562 43.8219 78.0625L40.6781 80.1781C40.2281 80.4812 39.7812 80.6313 39.3812 80.6313C38.8812 80.6313 38.3844 80.3781 37.8844 79.925C37.1844 79.1688 36.5875 78.3625 36.0875 77.5563C35.5875 76.7 35.0906 75.7438 34.5406 74.5844C30.65 79.2188 25.7594 81.5375 19.8719 81.5375C15.6812 81.5375 12.3375 80.3281 9.89375 77.9094C7.45 75.4906 6.20312 72.2656 6.20312 68.2344C6.20312 63.9531 7.7 60.475 10.7437 57.8562C13.7875 55.2375 17.8281 53.925 22.9656 53.925C24.6625 53.925 26.4094 54.075 28.2531 54.3281C30.0969 54.5813 31.9937 54.9844 33.9906 55.4375V51.7594C33.9906 47.9312 33.1937 45.2594 31.6469 43.6969C30.05 42.1344 27.3562 41.3781 23.5156 41.3781C21.7687 41.3781 19.975 41.5781 18.1281 42.0344C16.2812 42.4875 14.4875 43.0406 12.7406 43.7469C11.9437 44.1 11.3437 44.3 10.9937 44.4031C10.6437 44.5031 10.3937 44.5531 10.1969 44.5531C9.49687 44.5531 9.15 44.05 9.15 42.9906V40.5219C9.15 39.7156 9.25 39.1125 9.5 38.7594C9.75 38.4062 10.2 38.0531 10.8969 37.7C12.6437 36.7938 14.7375 36.0375 17.1844 35.4313C19.6281 34.775 22.2219 34.475 24.9656 34.475C30.9031 34.475 35.2437 35.8344 38.0375 38.5563C40.7812 41.2781 42.1781 45.4094 42.1781 50.95V67.275L42.2719 67.2781ZM22.0156 74.9344C23.6625 74.9344 25.3594 74.6312 27.1531 74.0281C28.95 73.425 30.5469 72.3156 31.8938 70.8031C32.6906 69.8469 33.2906 68.7875 33.5906 67.5781C33.8906 66.3688 34.0906 64.9063 34.0906 63.1938V61.0781C32.6438 60.725 31.0969 60.4219 29.5 60.2219C27.9031 60.0219 26.3562 59.9187 24.8094 59.9187C21.4656 59.9187 19.0219 60.575 17.375 61.9344C15.7281 63.2938 14.9312 65.2094 14.9312 67.7281C14.9312 70.0969 15.5312 71.8594 16.7781 73.0687C17.975 74.3312 19.7219 74.9344 22.0156 74.9344ZM62.0781 80.3781C61.1812 80.3781 60.5812 80.2281 60.1812 79.875C59.7812 79.5719 59.4344 78.8687 59.1344 77.9094L47.4094 38.9625C47.1094 37.9563 46.9594 37.3 46.9594 36.9469C46.9594 36.1406 47.3594 35.6875 48.1562 35.6875H53.0469C53.9937 35.6875 54.6437 35.8375 54.9937 36.1906C55.3937 36.4938 55.6906 37.1969 55.9906 38.1563L64.3719 71.5125L72.1531 38.1563C72.4031 37.15 72.7031 36.4938 73.1 36.1906C73.5 35.8875 74.1969 35.6875 75.0969 35.6875H79.0875C80.0344 35.6875 80.6844 35.8375 81.0844 36.1906C81.4844 36.4938 81.8312 37.1969 82.0312 38.1563L89.9125 71.9156L98.5437 38.1563C98.8437 37.15 99.1937 36.4938 99.5406 36.1906C99.9406 35.8875 100.587 35.6875 101.487 35.6875H106.128C106.925 35.6875 107.375 36.0906 107.375 36.9469C107.375 37.2 107.325 37.45 107.275 37.7531C107.225 38.0563 107.125 38.4594 106.925 39.0125L94.9031 77.9594C94.6031 78.9656 94.2531 79.6219 93.8562 79.925C93.4594 80.2281 92.8094 80.4281 91.9594 80.4281H87.6687C86.7219 80.4281 86.0719 80.2781 85.6719 79.925C85.2719 79.5719 84.925 78.9187 84.725 77.9094L76.9937 45.4094L69.3125 77.8594C69.0625 78.8656 68.7625 79.5219 68.3656 79.875C67.9656 80.2281 67.2687 80.3781 66.3687 80.3781H62.0781ZM126.184 81.7375C123.591 81.7375 120.997 81.4344 118.503 80.8312C116.009 80.2281 114.062 79.5719 112.766 78.8156C111.969 78.3625 111.419 77.8594 111.219 77.4063C111.019 76.9531 110.919 76.45 110.919 75.9969V73.4281C110.919 72.3687 111.319 71.8656 112.066 71.8656C112.366 71.8656 112.666 71.9156 112.962 72.0156C113.262 72.1156 113.709 72.3187 114.209 72.5187C115.906 73.275 117.75 73.8781 119.697 74.2813C121.694 74.6844 123.637 74.8844 125.634 74.8844C128.778 74.8844 131.222 74.3312 132.919 73.2219C134.616 72.1125 135.512 70.5 135.512 68.4344C135.512 67.025 135.062 65.8656 134.166 64.9063C133.269 63.95 131.572 63.0937 129.128 62.2875L121.894 60.0187C118.253 58.8594 115.559 57.1469 113.912 54.8781C112.266 52.6625 111.419 50.1937 111.419 47.5719C111.419 45.4562 111.869 43.5906 112.766 41.9781C113.662 40.3656 114.862 38.9563 116.356 37.8469C117.853 36.6875 119.55 35.8312 121.544 35.2281C123.541 34.6281 125.634 34.375 127.831 34.375C128.928 34.375 130.075 34.425 131.175 34.575C132.322 34.725 133.369 34.9281 134.419 35.1281C135.416 35.3813 136.366 35.6312 137.262 35.9344C138.159 36.2375 138.859 36.5375 139.359 36.8406C140.059 37.2437 140.556 37.6469 140.856 38.1C141.156 38.5031 141.306 39.0562 141.306 39.7625V42.1313C141.306 43.1906 140.906 43.7438 140.159 43.7438C139.759 43.7438 139.112 43.5438 138.262 43.1406C135.419 41.8313 132.225 41.175 128.684 41.175C125.841 41.175 123.597 41.6281 122.05 42.5844C120.503 43.5406 119.706 45.0031 119.706 47.0688C119.706 48.4781 120.206 49.6875 121.203 50.6469C122.2 51.6031 124.047 52.5625 126.691 53.4187L133.775 55.6875C137.366 56.8469 139.962 58.4594 141.506 60.525C143.05 62.5906 143.8 64.9594 143.8 67.5781C143.8 69.7438 143.35 71.7094 142.503 73.4219C141.606 75.1344 140.406 76.6469 138.862 77.8562C137.316 79.1156 135.469 80.0219 133.325 80.6781C131.072 81.3844 128.728 81.7375 126.184 81.7375Z" fill="#EC7323"/>
<path d="M135.613 106.225C119.2 118.469 95.3534 124.969 74.8471 124.969C46.1128 124.969 20.219 114.238 0.662762 96.4C-0.884113 94.9906 0.512762 93.075 2.35964 94.1844C23.5128 106.578 49.6034 114.088 76.594 114.088C94.8034 114.088 114.81 110.259 133.216 102.397C135.963 101.138 138.307 104.209 135.613 106.225ZM142.447 98.3656C140.35 95.6438 128.578 97.0563 123.241 97.7094C121.644 97.9094 121.394 96.5 122.841 95.4406C132.219 88.7906 147.635 90.7031 149.432 92.9219C151.228 95.1906 148.932 110.759 140.153 118.216C138.807 119.375 137.51 118.769 138.107 117.259C140.103 112.272 144.544 101.034 142.447 98.3656Z" fill="#EC7323"/>
</g>
<defs>
<clipPath id="clip0_3163_6866">
<rect width="150" height="150" fill="white"/>
</clipPath>
</defs>
</svg>
