<svg width="102" height="102" viewBox="0 0 102 102" fill="none" xmlns="http://www.w3.org/2000/svg">
<g clip-path="url(#clip0_3151_5691)">
<path d="M51 102.008C22.8777 102.008 0 79.1301 0 51.0078C0 22.8856 22.8777 0.0078125 51 0.0078125C79.1223 0.0078125 102 22.8856 102 51.0078C102 79.1301 79.1223 102.008 51 102.008ZM51 4.25781C25.2237 4.25781 4.25 25.2316 4.25 51.0078C4.25 76.7841 25.2237 97.7578 51 97.7578C76.7763 97.7578 97.75 76.7841 97.75 51.0078C97.75 25.2316 76.7763 4.25781 51 4.25781Z" fill="#EC7323"/>
<path d="M50.905 30.8247H47.9895C44.4407 30.8374 39.0602 30.8544 35.452 29.6474C35.1874 29.5592 34.9428 29.4198 34.7322 29.2371C34.5215 29.0544 34.3489 28.832 34.2242 28.5826C34.0995 28.3331 34.0251 28.0616 34.0053 27.7835C33.9856 27.5053 34.0208 27.226 34.109 26.9614C34.1972 26.6969 34.3366 26.4523 34.5193 26.2416C34.702 26.031 34.9244 25.8583 35.1738 25.7336C35.4232 25.6089 35.6948 25.5346 35.9729 25.5148C36.2511 25.495 36.5304 25.5302 36.795 25.6184C39.7445 26.6002 44.9082 26.5747 47.9767 26.5747H49.7617C52.8557 26.5747 57.9982 26.6002 60.9435 25.6184C61.211 25.5178 61.4961 25.4722 61.7817 25.4843C62.0673 25.4965 62.3475 25.5661 62.6056 25.6891C62.8636 25.812 63.0942 25.9858 63.2835 26.1999C63.4729 26.4141 63.617 26.6643 63.7074 26.9354C63.7978 27.2066 63.8326 27.4932 63.8096 27.7782C63.7866 28.0631 63.7064 28.3405 63.5738 28.5937C63.4411 28.8468 63.2587 29.0707 63.0375 29.2517C62.8163 29.4328 62.5609 29.5674 62.2865 29.6474C59.0565 30.7312 54.3942 30.8247 50.905 30.8247Z" fill="#EC7323"/>
<path d="M65.8739 97.7585C65.435 97.7582 65.0068 97.622 64.6484 97.3686C64.29 97.1152 64.0188 96.757 63.8722 96.3432L40.4972 30.4682C40.3301 29.9427 40.3738 29.3727 40.6192 28.8788C40.8646 28.3849 41.2924 28.0058 41.8121 27.8215C42.3319 27.6372 42.903 27.6622 43.4047 27.8912C43.9064 28.1202 44.2994 28.5353 44.5007 29.0487L67.8757 94.9237C67.9892 95.2442 68.0242 95.5872 67.9778 95.924C67.9313 96.2608 67.8047 96.5815 67.6086 96.8592C67.4124 97.1369 67.1526 97.3636 66.8507 97.52C66.5489 97.6765 66.2139 97.7583 65.8739 97.7585ZM74.3739 85.0085C73.9235 85.0082 73.4848 84.8647 73.1212 84.5989C72.7576 84.3331 72.4879 83.9586 72.3509 83.5295L55.3509 30.4045C55.2544 30.1358 55.213 29.8505 55.2292 29.5655C55.2454 29.2805 55.3189 29.0017 55.4452 28.7457C55.5715 28.4897 55.7481 28.2618 55.9645 28.0756C56.1808 27.8893 56.4325 27.7486 56.7044 27.6618C56.9763 27.5749 57.263 27.5438 57.5472 27.5701C57.8314 27.5965 58.1074 27.6799 58.3587 27.8153C58.6101 27.9507 58.8315 28.1354 59.0099 28.3582C59.1882 28.5811 59.3199 28.8376 59.3969 29.1125L76.3969 82.2375C76.4986 82.5559 76.5236 82.8939 76.4701 83.2238C76.4165 83.5538 76.2859 83.8665 76.0888 84.1365C75.8917 84.4064 75.6337 84.6261 75.3357 84.7776C75.0377 84.9292 74.7082 85.0082 74.3739 85.0085ZM16.9012 30.8252H14.8739C10.1522 30.8252 7.77218 29.6565 7.51718 29.5205C7.04819 29.2428 6.70353 28.7959 6.55417 28.2717C6.40481 27.7476 6.46214 27.1861 6.71434 26.703C6.96654 26.2198 7.39441 25.8517 7.90984 25.6746C8.42526 25.4975 8.98899 25.5247 9.48494 25.7507C9.48494 25.7507 11.2402 26.571 14.8782 26.571H15.7622C18.8562 26.6092 24.0072 26.5965 26.9524 25.6147C27.4873 25.4366 28.071 25.4783 28.5751 25.7306C29.0792 25.9828 29.4625 26.425 29.6406 26.9598C29.8187 27.4947 29.777 28.0784 29.5247 28.5825C29.2725 29.0866 28.8303 29.4699 28.2954 29.648C25.0569 30.7275 20.3989 30.8252 16.9012 30.8252Z" fill="#EC7323"/>
<path d="M31.8751 97.7578C31.4361 97.7576 31.008 97.6214 30.6496 97.3679C30.2911 97.1145 30.02 96.7563 29.8734 96.3426L6.49835 30.4676C6.33124 29.942 6.37499 29.3721 6.62036 28.8782C6.86574 28.3843 7.29352 28.0051 7.81331 27.8208C8.33309 27.6365 8.90417 27.6615 9.40587 27.8905C9.90756 28.1195 10.3006 28.5346 10.5019 29.0481L33.8769 94.9231C33.9904 95.2435 34.0254 95.5865 33.9789 95.9233C33.9324 96.2601 33.8058 96.5808 33.6097 96.8586C33.4136 97.1363 33.1537 97.3629 32.8519 97.5194C32.5501 97.6758 32.2151 97.7576 31.8751 97.7578ZM40.3751 85.0078C39.9247 85.0075 39.486 84.8641 39.1224 84.5983C38.7588 84.3324 38.489 83.9579 38.3521 83.5288L21.3521 30.4038C21.2556 30.1352 21.2142 29.8498 21.2304 29.5648C21.2466 29.2798 21.32 29.001 21.4464 28.745C21.5727 28.489 21.7493 28.2611 21.9656 28.0749C22.182 27.8887 22.4336 27.7479 22.7056 27.6611C22.9775 27.5743 23.2641 27.5431 23.5484 27.5695C23.8326 27.5959 24.1086 27.6792 24.3599 27.8146C24.6112 27.95 24.8327 28.1347 25.011 28.3576C25.1894 28.5804 25.3211 28.8369 25.3981 29.1118L42.3981 82.2368C42.4997 82.5553 42.5248 82.8932 42.4712 83.2232C42.4177 83.5531 42.2871 83.8658 42.09 84.1358C41.8929 84.4058 41.6348 84.6255 41.3369 84.777C41.0389 84.9285 40.7094 85.0076 40.3751 85.0078ZM74.2774 94.1538L70.2271 92.8618C70.2271 92.8618 77.8983 68.8153 82.8793 53.1328C82.8801 52.927 82.9101 52.7224 82.9686 52.5251C84.5411 47.2508 80.3421 40.1193 76.9676 34.3818C74.4346 30.0893 72.2501 26.3791 72.2501 23.3828C72.2501 14.1391 77.5753 12.7578 80.7501 12.7578C85.0256 12.7578 88.5191 15.2866 91.1329 20.2718C93.8274 25.4101 93.1431 34.7941 89.1523 47.3996C84.7238 61.3906 74.2774 94.1538 74.2774 94.1538ZM80.7501 17.0078C79.2626 17.0078 76.5001 17.0078 76.5001 23.3828C76.5001 25.2188 78.5996 28.7846 80.6269 32.2313C82.5394 35.4783 84.6898 39.1291 86.0796 42.8563C89.8748 29.3966 88.2896 24.0033 87.3716 22.2481C84.9109 17.5518 82.4118 17.0078 80.7501 17.0078Z" fill="#EC7323"/>
<path d="M36.1255 97.7579C35.7869 97.756 35.4535 97.6735 35.153 97.5172C34.8526 97.361 34.5936 97.1354 34.3976 96.8593C34.2016 96.5831 34.0741 96.2642 34.0258 95.929C33.9774 95.5938 34.0095 95.2519 34.1195 94.9316L48.9945 52.4316C49.1805 51.8996 49.5702 51.4632 50.0779 51.2185C50.5856 50.9738 51.1697 50.9409 51.7018 51.1269C52.2338 51.3128 52.6701 51.7025 52.9148 52.2103C53.1595 52.718 53.1925 53.3021 53.0065 53.8341L38.1315 96.3341C37.9861 96.7501 37.7149 97.1107 37.3555 97.3658C36.9961 97.6208 36.5662 97.7579 36.1255 97.7579Z" fill="#EC7323"/>
</g>
<defs>
<clipPath id="clip0_3151_5691">
<rect width="102" height="102" fill="white"/>
</clipPath>
</defs>
</svg>
