<svg width="99" height="109" viewBox="0 0 99 109" fill="none" xmlns="http://www.w3.org/2000/svg">
<path d="M44.8067 1.15883C47.4982 -0.382793 51.0039 -0.389756 53.693 1.15883C67.2219 8.80853 80.7551 16.4462 94.2817 24.1006C96.8258 25.5346 98.5276 28.368 98.5017 31.3015V77.325C98.5207 80.38 96.6507 83.2811 93.9666 84.6826C80.4821 92.2902 67.0047 99.907 53.5225 107.515C50.7754 109.086 47.1994 108.965 44.5381 107.265C40.4954 104.919 36.4458 102.586 32.4028 100.243C31.5767 99.7503 30.6454 99.358 30.062 98.5565C30.5777 97.8609 31.4997 97.7742 32.249 97.4706C33.9364 96.9336 35.4863 96.0717 37.0366 95.2353C37.4286 94.9668 37.9072 95.0697 38.2829 95.31C41.7399 97.2934 45.1663 99.3344 48.6348 101.299C49.3747 101.726 50.124 101.159 50.7564 100.806C63.9888 93.3223 77.2374 85.8668 90.4675 78.3808C90.9577 78.1448 91.2287 77.6241 91.1889 77.0867C91.1982 61.9045 91.1912 46.7197 91.1935 31.5375C91.2496 30.9278 90.897 30.3672 90.3461 30.1177C76.9085 22.545 63.4777 14.9607 50.0424 7.38605C49.8096 7.22592 49.5339 7.13999 49.2514 7.13958C48.9689 7.13916 48.6929 7.22428 48.4597 7.38373C35.0243 14.9607 21.5959 22.552 8.16059 30.1243C7.61162 30.3742 7.2432 30.9255 7.30853 31.5375C7.31085 46.7197 7.30853 61.9045 7.30853 77.089C7.28523 77.3512 7.34278 77.6143 7.47342 77.8427C7.60405 78.0712 7.80151 78.2541 8.0392 78.3668C11.6245 80.4013 15.2144 82.4215 18.802 84.449C20.8231 85.5376 23.3047 86.1844 25.5315 85.3504C27.4965 84.6451 28.874 82.6385 28.8365 80.5506C28.855 65.457 28.8272 50.3611 28.8504 35.2699C28.8013 34.5998 29.4365 34.0463 30.0875 34.1093C31.8102 34.0977 33.5352 34.0861 35.2578 34.114C35.9769 34.0977 36.4717 34.8192 36.3828 35.4943C36.3759 50.6834 36.4014 65.8729 36.3712 81.0621C36.3759 85.1101 34.7139 89.5149 30.972 91.4956C26.3623 93.8852 20.6646 93.3784 16.1105 91.087C12.168 89.1179 8.40569 86.7941 4.53316 84.6846C1.84207 83.2907 -0.0186104 80.3781 0.000332743 77.3254V31.3015C-0.0278887 28.3072 1.74156 25.4225 4.36499 24.0093C17.8471 16.3956 31.3269 8.77603 44.8067 1.15883Z" fill="#EC7323"/>
<path d="M56.5642 33.0621C62.4443 32.6834 68.7392 32.8377 74.0306 35.7365C78.1273 37.9578 80.3986 42.6198 80.4709 47.1743C80.3564 47.7886 79.7147 48.1275 79.1286 48.0853C77.4226 48.083 75.7161 48.1085 74.0101 48.0737C73.2864 48.1015 72.8658 47.4338 72.7749 46.7936C72.2847 44.6144 71.0971 42.4562 69.0474 41.4051C65.9009 39.8286 62.2526 39.9079 58.8215 39.9408C56.3168 40.0739 53.6234 40.2909 51.5013 41.7648C49.8722 42.8813 49.3774 45.1351 49.9588 46.9503C50.507 48.2536 52.0105 48.6741 53.2406 49.0617C60.3269 50.9163 67.8361 50.7318 74.7871 53.1725C77.6649 54.1675 80.4801 56.1017 81.4652 59.1169C82.7537 63.158 82.1889 67.9883 79.3157 71.2325C76.9857 73.9022 73.5922 75.3552 70.2075 76.1444C65.7048 77.149 61.0321 77.1746 56.4594 76.7285C52.1597 76.238 47.6853 75.1076 44.3659 72.176C41.5276 69.7098 40.1412 65.8671 40.2789 62.1584C40.3117 61.532 40.9349 61.0953 41.5345 61.1467C43.2526 61.1328 44.9706 61.1282 46.6886 61.1491C47.3748 61.0999 47.8836 61.6934 47.9188 62.3406C48.2358 64.4168 49.0155 66.596 50.8248 67.827C54.3165 70.0812 58.6978 69.9268 62.696 69.9899C66.0083 69.8429 69.7266 69.7984 72.4297 67.6076C73.8558 66.3581 74.2784 64.2675 73.8929 62.469C73.4754 60.9506 71.8881 60.243 70.5249 59.7803C63.5295 57.566 55.9364 58.3695 49.0086 55.8654C46.1961 54.8708 43.4764 52.9903 42.3959 50.0989C40.8881 46.0067 41.579 40.9451 44.7533 37.8104C47.8484 34.6923 52.3163 33.4919 56.5642 33.0621Z" fill="#EC7323"/>
</svg>
