<svg width="76" height="80" viewBox="0 0 76 80" fill="none" xmlns="http://www.w3.org/2000/svg">
<g clip-path="url(#clip0_3151_5680)">
<path d="M75.8221 18.2516C75.8502 18.3577 75.8646 18.4669 75.8648 18.5768V35.6441C75.8649 35.8631 75.8081 36.0783 75.7002 36.2678C75.5924 36.4574 75.4373 36.6146 75.2506 36.7236L61.1805 44.971V61.3181C61.1805 61.763 60.9483 62.1737 60.5693 62.3976L31.1991 79.6112C31.1319 79.6501 31.0585 79.6749 30.9852 79.7014C30.9577 79.7107 30.9317 79.7278 30.9027 79.7356C30.6974 79.7907 30.4816 79.7907 30.2763 79.7356C30.2427 79.7263 30.2121 79.7076 30.18 79.6952C30.1128 79.6703 30.0425 79.6485 29.9783 79.6112L0.614204 62.3976C0.427662 62.2885 0.272665 62.1313 0.164834 61.9418C0.0570024 61.7523 0.000147805 61.5371 0 61.3181L0 10.1162C0 10.0042 0.0152787 9.89533 0.0427804 9.78955C0.0519476 9.75377 0.0733378 9.72111 0.0855607 9.68533C0.108479 9.62 0.129869 9.55311 0.163482 9.49244C0.1864 9.452 0.220013 9.41933 0.247515 9.382C0.282656 9.33222 0.314741 9.28089 0.355994 9.23734C0.391135 9.20156 0.436971 9.17512 0.476695 9.14401C0.521004 9.10667 0.560728 9.06623 0.611148 9.03667L15.2955 0.429914C15.4814 0.320996 15.6922 0.263672 15.9067 0.263672C16.1211 0.263672 16.3319 0.320996 16.5178 0.429914L31.2006 9.03667H31.2037C31.2526 9.06778 31.2938 9.10667 31.3381 9.14245C31.3779 9.17356 31.4222 9.20156 31.4573 9.23578C31.5001 9.28089 31.5306 9.33222 31.5673 9.382C31.5933 9.41933 31.6284 9.452 31.6498 9.49244C31.685 9.55467 31.7048 9.62 31.7293 9.68533C31.7415 9.72111 31.7629 9.75377 31.7721 9.79111C31.8002 9.89711 31.8146 10.0064 31.8148 10.1162V42.0964L44.05 34.9238V18.5752C44.05 18.4663 44.0653 18.3559 44.0928 18.2516C44.1035 18.2143 44.1234 18.1816 44.1356 18.1459C44.16 18.0805 44.1814 18.0136 44.215 17.953C44.2379 17.9125 44.2716 17.8799 44.2975 17.8425C44.3342 17.7928 44.3648 17.7414 44.4075 17.6979C44.4427 17.6621 44.487 17.6357 44.5267 17.6045C44.5725 17.5672 44.6123 17.5268 44.6612 17.4972L59.347 8.89045C59.5329 8.78138 59.7437 8.72397 59.9582 8.72397C60.1727 8.72397 60.3835 8.78138 60.5693 8.89045L75.2522 17.4972C75.3041 17.5283 75.3438 17.5672 75.3897 17.603C75.4279 17.6341 75.4722 17.6621 75.5073 17.6963C75.5501 17.7414 75.5807 17.7928 75.6173 17.8425C75.6448 17.8799 75.6785 17.9125 75.6998 17.953C75.735 18.0136 75.7548 18.0805 75.7793 18.1459C75.793 18.1816 75.8129 18.2143 75.8221 18.2516ZM73.4172 34.9238V20.7312L68.279 23.7427L61.1805 27.9037V42.0964L73.4187 34.9238H73.4172ZM58.7344 60.5979V46.3959L51.752 50.4558L31.8133 62.0414V76.3772L58.7344 60.5979ZM2.44765 12.2706V60.5979L29.3657 76.3757V62.043L15.3031 53.9402L15.2986 53.9371L15.2924 53.934C15.2451 53.906 15.2054 53.8656 15.1611 53.8313C15.1229 53.8002 15.0785 53.7753 15.0449 53.7411L15.0419 53.7364C15.0022 53.6976 14.9747 53.6493 14.941 53.6058C14.9105 53.5638 14.8738 53.528 14.8494 53.4845L14.8478 53.4798C14.8203 53.4331 14.8035 53.3771 14.7837 53.3242C14.7638 53.2776 14.7378 53.234 14.7256 53.1842C14.7103 53.1251 14.7073 53.0613 14.7012 53.0007C14.6951 52.954 14.6828 52.9073 14.6828 52.8607V19.4432L7.58587 15.2806L2.44765 12.2706ZM15.9082 2.94676L3.67453 10.1162L15.9051 17.2857L28.1373 10.1147L15.9051 2.94676H15.9082ZM22.2702 47.6901L29.3672 43.5306V12.2706L24.229 15.2821L17.1305 19.4432V50.7032L22.2702 47.6901ZM59.9582 11.4073L47.7261 18.5768L59.9582 25.7462L72.1888 18.5752L59.9582 11.4073ZM58.7344 27.9037L51.6359 23.7427L46.4977 20.7312V34.9238L53.5946 39.0833L58.7344 42.0964V27.9037ZM30.588 59.887L48.5297 49.4587L57.4983 44.2477L45.2754 37.0829L31.2022 45.3319L18.3757 52.8498L30.588 59.887Z" fill="#EC7323"/>
</g>
<defs>
<clipPath id="clip0_3151_5680">
<rect width="76" height="80" fill="white"/>
</clipPath>
</defs>
</svg>
