<svg width="85" height="85" viewBox="0 0 85 85" fill="none" xmlns="http://www.w3.org/2000/svg">
<path d="M6.22317 57.1539C0.700891 46.4698 -0.956225 32.4478 6.62071 20.5136C3.30821 35.5157 8.76899 49.2811 18.6072 59.149C29.2658 69.8397 45.1369 76.0495 60.8262 74.4436L60.8263 74.4436C66.1338 73.9001 72.4277 71.7309 77.7827 68.4279C71.269 77.1488 61.4479 82.3439 48.26 82.6187C40.8504 82.7714 33.7705 80.8658 29.1757 78.8086C19.2051 74.3329 10.7989 66.013 6.22337 57.1543L6.22317 57.1539Z" fill="#EC7323" stroke="#EC7323" stroke-width="3"/>
<path d="M26.6507 26.8251L26.6508 26.8258C27.2724 33.2078 30.6219 39.684 35.4981 44.8005C40.3746 49.9174 46.6525 53.5433 52.9752 54.3885C64.5513 55.9338 73.7131 52.719 79.2299 46.9899C74.8313 49.3868 69.6534 50.8404 64.6024 50.8061C64.6023 50.8061 64.6022 50.8061 64.6021 50.8061L26.6507 26.8251ZM26.6507 26.8251C26.1892 22.11 26.7826 18.413 28.1354 15.0533C28.3481 14.525 28.5802 14.0033 28.8313 13.4855L26.6507 26.8251Z" fill="#EC7323" stroke="#EC7323" stroke-width="3"/>
<path d="M72.8573 29.8307L72.8573 29.8307C73.3859 29.7183 74.2214 29.3671 75.2683 28.7737C75.4455 28.6732 75.6258 28.5675 75.8085 28.4571C74.3558 28.8405 73.0094 29.0389 71.7671 29.1067C68.5068 29.2844 66.0589 28.5481 64.5348 28.0896C64.4017 28.0496 64.2758 28.0117 64.1569 27.9767C63.3116 27.7345 61.6511 26.9734 60.1666 26.0827L60.166 26.0824C60.0569 26.0169 59.9491 25.9522 59.8424 25.8883C58.4276 25.04 57.2247 24.3188 56.1032 23.3941C54.8677 22.3755 53.7651 21.1431 52.4704 19.2627L72.8573 29.8307ZM72.8573 29.8307C67.1708 31.0409 62.6007 30.2864 59.0034 28.5354C55.3877 26.7754 52.6616 23.9621 50.77 20.9235C50.5348 20.5435 50.1477 19.7362 49.7713 18.8715C49.3938 18.004 49.104 17.2567 49.0346 17.0217L72.8573 29.8307ZM49.0346 17.0215C48.3278 14.6204 48.1243 11.5533 48.6389 8.60794C48.6919 9.78821 48.8404 10.8899 49.0797 11.8556L49.0799 11.8564C49.57 13.8301 51.0054 17.1371 52.4699 19.262L49.0346 17.0215Z" fill="#EC7323" stroke="#EC7323" stroke-width="3"/>
</svg>
