<svg width="50" height="50" viewBox="0 0 50 50" fill="none" xmlns="http://www.w3.org/2000/svg">
<g clip-path="url(#clip0_64_1287)">
<path d="M17.6879 49.9999C14.4796 48.5833 12.3004 45.5291 12.015 42.0333C12.2025 38.4354 14.1025 35.1479 17.1192 33.1874C16.6233 34.3958 16.7442 35.7708 17.4317 36.8749C18.215 37.9687 19.5608 38.4937 20.8796 38.2208C22.7587 37.6916 23.8587 35.7416 23.3296 33.8624C23.1421 33.2041 22.7671 32.6083 22.2546 32.1583C20.1296 30.4291 19.0629 27.7145 19.4421 24.9999C19.8067 23.5624 20.6025 22.2624 21.7254 21.2812C20.8817 23.5312 23.2608 25.752 24.8587 26.8437C27.6921 28.5437 30.4212 30.4124 33.0337 32.4395C35.8879 34.6895 37.4442 38.2103 37.2004 41.8145C36.5587 45.6478 33.8462 48.8145 30.1483 50.002C37.5442 48.3562 45.1692 42.4812 45.315 34.1479C45.1692 27.4812 41.19 21.4978 35.1067 18.7729H34.8358C34.9712 19.0999 35.0358 19.452 35.0233 19.8062C35.0442 19.577 35.0442 19.3478 35.0233 19.1187C35.0567 19.3895 35.0567 19.6604 35.0233 19.9312C34.5608 21.827 32.6483 22.9937 30.7483 22.5312C29.99 22.3437 29.3108 21.9166 28.8233 21.302C26.3858 18.177 28.8233 14.6208 29.2317 11.1833C29.4817 6.78744 27.4733 2.58535 23.9108 0.0166016C25.6942 2.98952 23.3192 6.8916 21.5921 9.11244C19.8629 11.3333 17.3629 12.9874 15.3254 14.9249C13.1296 16.9666 11.1171 19.2124 9.31083 21.6124C5.40666 26.3833 3.87333 32.6749 5.14416 38.7062C6.88583 44.5187 11.7171 48.8854 17.6754 50.0187H17.7087L17.6879 49.9999Z" fill="#EC7323"/>
</g>
<defs>
<clipPath id="clip0_64_1287">
<rect width="50" height="50" fill="white"/>
</clipPath>
</defs>
</svg>
