<svg width="100" height="100" viewBox="0 0 100 100" fill="none" xmlns="http://www.w3.org/2000/svg">
<g clip-path="url(#clip0_3151_5682)">
<path d="M12.8941 98.5C6.60141 98.5 1.5 93.3992 1.5 87.1059V12.8941C1.5 6.60144 6.60072 1.5 12.8945 1.5H87.1059C93.3986 1.5 98.5 6.60072 98.5 12.8945V87.1059C98.5 93.3986 93.3993 98.5 87.1055 98.5H12.8941Z" stroke="#EC7323" stroke-width="3"/>
<path d="M41.4699 44.2336V30.0723H53.9352C55.1227 30.0723 56.2672 30.1711 57.3695 30.3691C58.4719 30.5668 59.4473 30.9199 60.2953 31.4289C61.143 31.9379 61.8215 32.6445 62.3305 33.5488C62.8391 34.4535 63.0938 35.6125 63.0938 37.0254C63.0938 39.5695 62.3305 41.407 60.8039 42.5375C59.2777 43.6684 57.3273 44.2336 54.9527 44.2336H41.4699ZM28.1562 19.7266V80.2734H57.4969C60.2105 80.2734 62.8535 79.9344 65.4258 79.2559C67.998 78.5773 70.2875 77.5316 72.2945 76.1184C74.3012 74.7051 75.8984 72.8816 77.0855 70.6488C78.273 68.4156 78.8664 65.7727 78.8664 62.7199C78.8664 58.932 77.9477 55.6957 76.1105 53.0105C74.273 50.325 71.4887 48.4453 67.7574 47.3711C70.4711 46.0711 72.5207 44.4031 73.9059 42.368C75.2906 40.3328 75.9832 37.7891 75.9832 34.7359C75.9832 31.9094 75.5168 29.5352 74.584 27.6129C73.6512 25.691 72.3367 24.1504 70.6406 22.9914C68.9449 21.8324 66.9098 20.9984 64.5352 20.4898C62.1609 19.9809 59.532 19.7266 56.6488 19.7266H28.1562ZM41.4699 69.9277V53.307H55.9703C58.8535 53.307 61.1715 53.9711 62.9242 55.3C64.6766 56.6285 65.5531 58.8473 65.5531 61.9566C65.5531 63.5398 65.2844 64.8398 64.7473 65.8574C64.2102 66.875 63.4895 67.6809 62.5848 68.2742C61.6805 68.868 60.6344 69.2918 59.4473 69.5465C58.2598 69.8004 57.0164 69.9277 55.716 69.9277H41.4699Z" fill="#EC7323"/>
</g>
<defs>
<clipPath id="clip0_3151_5682">
<rect width="100" height="100" fill="white"/>
</clipPath>
</defs>
</svg>
