<?xml version="1.0" encoding="UTF-8"?>
<svg id="a" data-name="Layer 1" xmlns="http://www.w3.org/2000/svg" width="49" height="49" viewBox="0 0 49 49">
  <path d="m49.01,39.24c-.21,1-.59,1.9-1.39,2.6-.86.76-1.87,1.04-3,1.04-9.78,0-19.55,0-29.33,0-.41,0-.7.1-1,.4-1.66,1.7-3.35,3.37-5.04,5.04-.26.25-.56.46-.84.69h-.48c-.57-.23-.81-.64-.8-1.27.02-1.9,0-3.8.01-5.69,0-.66.28-1.05.78-1.16.68-.15,1.24.31,1.25,1.07.02.99,0,1.98,0,2.97,0,.16,0,.31,0,.56.16-.14.27-.23.36-.32,1.24-1.24,2.49-2.47,3.72-3.73.41-.42.85-.59,1.44-.59,9.94.01,19.88.01,29.81,0,.46,0,.97-.08,1.38-.28.8-.38,1.08-1.12,1.08-1.98,0-1.8,0-3.61,0-5.41,0-7.53,0-15.06,0-22.59,0-.58-.06-1.14-.44-1.63-.48-.6-1.12-.8-1.86-.8-1.56,0-3.13,0-4.69,0-.72,0-1.15-.39-1.17-.99-.01-.54.39-1.02.98-1.03,1.88-.01,3.77-.07,5.64.06,1.82.13,3.14,1.48,3.5,3.29.02.09.05.18.08.27v29.49Z"/>
  <path d="m38.78,15.3c1.08.07,1.98.38,2.73,1.06.71.65,1.2,1.43,1.28,2.39.12,1.35.28,2.72-.18,4.03-.55,1.56-1.69,2.46-3.34,2.69-.15.02-.31.05-.38.06-.18,1.03-.29,2.02-.52,2.97-1,4.07-4.76,7.47-8.92,8.07-.91.13-1.84.15-2.76.18-.69.02-1.01-.28-1.15-.96-.04-.17-.07-.35-.14-.5-.19-.41-.62-.61-1.07-.54-.44.07-.76.42-.81.88-.05.43.2.88.61,1.03.19.07.4.09.6.14.54.14.84.57.77,1.1-.07.53-.46.87-1.01.88-1.53.04-2.88-1.21-3.02-2.82-.14-1.5,1-2.99,2.47-3.23,1.43-.23,2.65.39,3.35,1.67.08.14.3.29.45.29,3.94-.11,7.2-2.43,8.49-6.16.35-1,.47-2.11.52-3.18.09-1.59.02-3.19.02-4.78,0-.69.38-1.12.96-1.15.6-.03,1.05.37,1.06,1.03.02.89,0,1.79.01,2.68,0,.09.02.19.03.28.88.11,1.85-.58,1.94-1.53.1-.96.08-1.94,0-2.91-.06-.8-.79-1.45-1.6-1.56-.41-.06-.83-.05-1.24-.06-.79-.03-1.15-.4-1.18-1.19-.05-1.29-.01-2.59-.2-3.86-.46-3.1-2-5.62-4.43-7.57-2.2-1.77-4.75-2.71-7.56-2.66-4.91.08-8.58,2.34-10.94,6.64-1,1.83-1.38,3.82-1.37,5.9,0,3.17,0,6.35,0,9.52,0,1.05-.35,1.4-1.4,1.41-1.12.02-2.19-.14-3.11-.86-.97-.76-1.55-1.76-1.58-2.98-.03-1.14-.07-2.32.18-3.42.4-1.69,1.62-2.64,3.35-2.91.14-.02.28-.05.42-.07.02,0,.03-.01.1-.04-.16-4.81,1.5-8.88,5.24-12C18.11,1.03,21.22-.06,24.68,0c4.07.07,7.54,1.61,10.31,4.61,2.77,3,3.95,6.59,3.79,10.69Zm-28.6,2.11c-.94-.05-1.85.62-1.94,1.56-.09.96-.09,1.94,0,2.9.09.94,1.05,1.63,1.94,1.54v-6Z"/>
  <path d="m0,24.44C0,19.77,0,15.1,0,10.42c0-1.75.72-3.1,2.31-3.87.53-.26,1.16-.4,1.74-.42,1.67-.06,3.35-.03,5.02-.02.62,0,1,.33,1.09.86.07.46-.16.92-.6,1.08-.22.08-.47.09-.7.09-1.48,0-2.97,0-4.45,0-1.58,0-2.39.8-2.39,2.39,0,9.3,0,18.6,0,27.9,0,1.47.6,2.17,2.04,2.4.73.12,1.1.56,1,1.19-.09.57-.61.9-1.3.82C1.49,42.59,0,40.93,0,38.61c0-4.72,0-9.44,0-14.16Z"/>
  <path d="m24.5,4.06c5.57.03,10.11,4.5,10.21,10.06.01.65-.37,1.12-.95,1.17-.54.05-.98-.35-1.09-.98-.17-.95-.22-1.94-.54-2.85-1.19-3.42-4.63-5.6-8.26-5.33-3.62.27-6.7,3-7.39,6.56-.11.59-.1,1.21-.22,1.8-.15.76-1.04,1.07-1.59.54-.22-.22-.38-.61-.37-.92.08-5.03,3.8-9.23,8.76-9.93.47-.07.95-.09,1.43-.13Z"/>
  <path d="m23.52,26.56h2.01c0,.61.01,1.19-.01,1.78,0,.09-.16.17-.26.25-.02.02-.06,0-.09,0-.55-.02-1.1-.05-1.65-.07v-1.95Z"/>
  <path d="m21.4,28.56h-1.97v-1.99h1.97v1.99Z"/>
  <path d="m29.57,26.56v2h-1.98v-2h1.98Z"/>
</svg>