<svg width="58" height="58" viewBox="0 0 58 58" fill="none" xmlns="http://www.w3.org/2000/svg">
<path d="M37.3085 28.6403L37.132 28.9369L37.3086 29.2336L47.7098 46.7087L48.3952 47.8603L48.7656 46.5724L53.7919 29.0972L53.795 29.0863L53.8866 29.2376L57.3608 34.973L51.2341 57.1516L28.3379 51.1998L24.9485 45.4087L24.8837 45.2981L42.9999 49.8148L44.3506 50.1515L43.6386 48.9553L33.2357 31.4788L33.0671 31.1955H32.7373H11.9344H10.5243L11.5263 32.1876L24.5881 45.1206L24.4438 45.1217L17.5692 45.1711L0.833008 28.9384L17.5693 12.7017L24.4461 12.7497L24.5874 12.7506L11.5263 25.684L10.5244 26.6761H11.9344H32.7373H33.0672L33.2358 26.3927L43.6364 8.91325L44.3482 7.717L42.9975 8.05392L24.8869 12.5718L24.9509 12.4623L28.3354 6.67149L51.2341 0.718658L57.361 22.9017L53.8866 28.6366L53.7951 28.7877L53.7919 28.7766L48.7658 11.2972L48.3954 10.009L47.71 11.1609L37.3085 28.6403Z" stroke="#EC7323" stroke-width="2"/>
</svg>
