<svg width="58" height="61" viewBox="0 0 58 61" fill="none" xmlns="http://www.w3.org/2000/svg">
<path d="M21.4212 57.9858H26.9968C27.4939 57.9858 27.8964 57.5805 27.8964 57.0803C27.8964 56.58 27.4939 56.1747 26.9968 56.1747H21.4212C20.924 56.1747 20.5215 56.58 20.5215 57.0803C20.5215 57.5805 20.924 57.9858 21.4212 57.9858ZM25.6117 29.6898C25.1146 29.6898 24.7002 30.0949 24.7002 30.6072V32.3945C24.7002 32.8947 25.1027 33.3117 25.6117 33.3117C26.1208 33.3117 26.5232 32.9067 26.5232 32.3945V30.6072C26.5232 30.0949 26.1208 29.6898 25.6117 29.6898ZM25.6117 34.2886C25.1146 34.2886 24.7002 34.6936 24.7002 35.2061V36.993C24.7002 37.4936 25.1027 37.9106 25.6117 37.9106C26.1208 37.9106 26.5232 37.5056 26.5232 36.993V35.2061C26.5232 34.7055 26.1208 34.2886 25.6117 34.2886ZM16.1297 23.709L17.7396 24.4119C17.858 24.4596 17.9764 24.4834 18.0947 24.4834C18.4499 24.4834 18.7813 24.2809 18.9352 23.9354C19.1365 23.4707 18.9234 22.9346 18.4617 22.732L16.8518 22.0291C16.3901 21.8266 15.8574 22.041 15.6561 22.5057C15.4667 22.9703 15.668 23.5064 16.1297 23.709ZM20.261 25.508L21.871 26.2109C21.9894 26.2586 22.1077 26.2824 22.2261 26.2824C22.5813 26.2824 22.9127 26.0799 23.0666 25.7344C23.2678 25.2697 23.0548 24.7336 22.5931 24.5311L20.9831 23.8281C20.5215 23.6256 19.9888 23.84 19.7875 24.3047C19.5863 24.7693 19.7994 25.3055 20.261 25.508ZM25.9787 25.9965L25.1146 25.6152C24.6529 25.4127 24.1202 25.6271 23.9189 26.0918C23.8361 26.2824 23.8242 26.485 23.8716 26.6756L23.5164 26.8305C23.0548 27.033 22.8417 27.5691 23.0429 28.0338C23.1968 28.3793 23.5283 28.5818 23.8716 28.5818C23.9899 28.5818 24.1202 28.558 24.2386 28.5104L24.8304 28.2482C24.9843 28.5223 25.2803 28.701 25.6117 28.701C26.1089 28.701 26.5232 28.2959 26.5232 27.7836V26.8305C26.5232 26.4731 26.3102 26.1394 25.9787 25.9965ZM21.4093 11.8426H26.9849C27.4821 11.8426 27.8846 11.4375 27.8846 10.9371C27.8846 10.4367 27.4821 10.0316 26.9849 10.0316H21.4093C20.9121 10.0316 20.5096 10.4367 20.5096 10.9371C20.5096 11.4375 20.9121 11.8426 21.4093 11.8426ZM17.5265 30.4642C17.3253 29.9996 16.7926 29.7852 16.3309 29.9877L14.6026 30.7502C14.1409 30.9527 13.9278 31.4889 14.1291 31.9536C14.2829 32.2989 14.6144 32.5017 14.9577 32.5017C15.0761 32.5017 15.2063 32.4778 15.3247 32.43L17.053 31.6675C17.5147 31.4769 17.7278 30.9289 17.5265 30.4642ZM51.2286 39.8764C51.726 39.8764 52.1284 39.4714 52.1284 38.9708C52.1284 38.4706 51.726 38.0656 51.2286 38.0656H50.4357C49.9383 38.0656 49.5359 38.4706 49.5359 38.9708C49.5359 39.4714 49.9383 39.8764 50.4357 39.8764H51.2286ZM42.966 46.0956H48.1153C48.6127 46.0956 49.0151 45.6906 49.0151 45.19C49.0151 44.6897 48.6127 44.2844 48.1153 44.2844H42.966C42.4687 44.2844 42.0663 44.6897 42.0663 45.19C42.0663 45.6906 42.4687 46.0956 42.966 46.0956ZM42.966 39.8883H48.1153C48.6127 39.8883 49.0151 39.4833 49.0151 38.9828C49.0151 38.4825 48.6127 38.0772 48.1153 38.0772H42.966C42.4687 38.0772 42.0663 38.4825 42.0663 38.9828C42.0663 39.4833 42.4687 39.8883 42.966 39.8883ZM50.4476 46.0956H51.2405C51.7379 46.0956 52.1402 45.6906 52.1402 45.19C52.1402 44.6897 51.7379 44.2844 51.2405 44.2844H50.4476C49.9502 44.2844 49.5478 44.6897 49.5478 45.19C49.5478 45.6906 49.9502 46.0956 50.4476 46.0956ZM17.8343 43.2122L16.2599 43.9153C15.7982 44.1178 15.597 44.6539 15.7982 45.1186C16.0231 45.6189 16.5913 45.7858 16.9938 45.5834L18.5682 44.8803C19.0299 44.6778 19.2312 44.1417 19.0299 43.6769C18.8405 43.2122 18.296 43.0097 17.8343 43.2122ZM42.966 42.9978H43.759C44.2563 42.9978 44.6587 42.5928 44.6587 42.0925C44.6587 41.5919 44.2563 41.187 43.759 41.187H42.966C42.4687 41.187 42.0663 41.5919 42.0663 42.0925C42.0663 42.5928 42.4687 42.9978 42.966 42.9978ZM52.1284 42.0806C52.1284 41.58 51.726 41.175 51.2286 41.175H46.0793C45.5822 41.175 45.1795 41.58 45.1795 42.0806C45.1795 42.5808 45.5822 42.9858 46.0793 42.9858H51.2286C51.726 42.9858 52.1284 42.5808 52.1284 42.0806ZM21.9775 28.5104C21.7763 28.0457 21.2436 27.8312 20.7819 28.0338L19.0536 28.7963C18.5919 28.9988 18.3788 29.535 18.5801 29.9996C18.734 30.3451 19.0654 30.5477 19.4087 30.5477C19.5271 30.5477 19.6573 30.5238 19.7757 30.4762L21.504 29.7137C21.9657 29.5111 22.1788 28.975 21.9775 28.5104ZM56.9465 1.06035C56.2598 0.38125 55.3601 0 54.4012 0L35.4017 0.0119141C33.4247 0.0119141 31.8029 1.63223 31.8029 3.63378V6.62422L12.5191 6.63614C10.5896 6.63614 9.02698 8.20878 9.02698 10.1508V22.3031L0.551115 26.0322C0.302523 26.1394 0.124955 26.3539 0.0420922 26.6041C-0.0052613 26.7471 -0.00526126 25.8892 0.00657634 40.7936C0.00657634 41.1631 0.219659 41.4847 0.551115 41.6278L9.02698 45.357V57.4853C9.02698 59.4272 10.5896 61 12.5191 61L36.2421 60.9881C36.7867 60.9881 37.2956 60.8569 37.7574 60.6425C38.9292 60.0709 39.7344 58.8675 39.7344 57.4733V49.2647H51.2998C51.7969 49.2647 52.1993 48.8594 52.1993 48.3592C52.1993 47.8589 51.7969 47.4536 51.2998 47.4536H39.7344L39.7225 17.9664C39.7934 17.9664 39.8525 17.9545 39.9237 17.9545L54.3894 17.9426C55.3482 17.9426 56.248 17.5613 56.9347 16.8822C57.6092 16.2031 57.9881 15.2858 57.9881 14.3207L58 3.62186C58 2.65684 57.621 1.75137 56.9465 1.06035ZM9.03882 43.3553L1.84144 40.1861V28.2959L9.03882 31.4769V43.3553ZM9.05066 29.4754L3.15545 26.8781L9.05066 24.2928V29.4754ZM37.9586 57.4733C37.9704 58.4147 37.2128 59.1892 36.2777 59.1892C10.779 59.1892 12.4718 59.2011 12.3771 59.1772C11.5247 59.0939 10.85 58.3669 10.85 57.4853V54.9714L37.9586 54.9594V57.4733ZM37.9704 53.1845L10.8618 53.1964L10.85 46.155C12.8151 47.0128 13.0755 47.275 13.6437 47.0725L14.5079 46.6911C14.9696 46.4886 15.1708 45.9525 14.9696 45.4878C14.7683 45.0233 14.2356 44.8208 13.7739 45.0233L13.2767 45.2497L10.85 44.1656V32.2872L11.8799 32.7397C11.9983 32.7875 12.1167 32.8114 12.2469 32.8114C12.602 32.8114 12.9335 32.6089 13.0755 32.2633C13.2767 31.7986 13.0637 31.2625 12.602 31.06L10.8737 30.2975C10.8618 30.2975 10.8618 30.2856 10.85 30.2856V23.4945L13.1347 22.4104C13.4898 22.5533 13.6674 22.6963 13.9752 22.6963C14.9696 22.6963 15.2418 21.3381 14.3422 20.9449L13.478 20.5637C13.4662 20.5637 13.111 20.4088 12.7204 20.5875L10.8382 21.4811V10.1627C10.8382 9.22147 11.5958 8.45897 12.531 8.45897L31.8148 8.44708V21.8146C31.8148 22.1602 32.0041 22.458 32.3119 22.6129H32.3237C32.7027 22.7678 33.0223 22.6963 33.2473 22.4818L37.4021 18.9195C37.568 18.7766 37.7574 18.6455 37.9467 18.5264L37.9586 47.4655H28.074L24.2622 41.9375C24.8423 42.3189 25.375 41.8183 25.9787 41.6158C26.3102 41.4728 26.5232 41.1392 26.5232 40.782V39.8286C26.5232 39.3283 26.1089 38.8994 25.5999 38.9114C25.0909 38.9233 24.7002 39.3642 24.7002 39.8644V40.1861L24.3806 40.3292C23.9781 40.5078 23.7769 40.9367 23.8598 41.3536L21.871 38.4586C21.5869 38.0536 21.0305 37.9464 20.628 38.2322C20.2137 38.518 20.119 39.078 20.4031 39.495L21.7881 41.4847L20.3439 42.128C19.8822 42.3305 19.681 42.8666 19.8822 43.3314C20.1071 43.832 20.6754 43.9986 21.0779 43.7961L22.6523 43.093C22.7115 43.0695 22.7707 43.0336 22.8299 42.9858L26.8902 48.8833C27.0559 49.1217 27.3282 49.2767 27.6242 49.2767H37.9823V53.1845H37.9704ZM56.3307 14.3445C56.3307 14.8568 56.1295 15.3334 55.7743 15.7027C55.4075 16.0721 54.922 16.2746 54.4131 16.2746L39.9474 16.2865C38.0888 16.2865 36.9051 17.1324 36.3249 17.6328L33.4838 20.0633L33.4719 3.63378C33.4719 2.56152 34.336 1.6918 35.4017 1.6918L54.4012 1.67988C54.9102 1.67988 55.3957 1.88242 55.7625 2.25176C56.1295 2.62109 56.3307 3.10957 56.3307 3.62186V14.3445ZM49.3347 3.84825H47.05C46.5882 3.84825 46.2215 4.21758 46.2215 4.68222V13.2604C46.2215 13.725 46.5882 14.0943 47.05 14.0943C47.5117 14.0943 47.8785 13.725 47.8785 13.2604V10.5082H48.8848L50.8856 13.7012C51.0393 13.9514 51.3117 14.0943 51.5838 14.0943C51.7379 14.0943 51.8916 14.0586 52.0218 13.9633C52.4124 13.7131 52.5308 13.2008 52.2824 12.8076L50.6488 10.1984C51.6904 9.69806 52.4008 8.63769 52.4008 7.41056V6.93397C52.4008 5.23028 51.0274 3.84825 49.3347 3.84825ZM50.7434 7.41056C50.7434 8.19689 50.1042 8.82833 49.3347 8.82833H47.8785V5.51622H49.3347C50.1161 5.51622 50.7434 6.15958 50.7434 6.93397V7.41056ZM41.8888 4.37247C41.7585 4.03886 41.4389 3.83633 41.1074 3.83633C40.776 3.83633 40.4564 4.03886 40.3261 4.37247L37.0469 12.8672C36.8813 13.2961 37.0944 13.7846 37.5205 13.9514C37.6152 13.9871 37.7217 14.0109 37.8164 14.0109C38.1479 14.0109 38.4675 13.8084 38.5859 13.4748L39.4975 11.1158H42.7055L43.6171 13.4748C43.7474 13.8084 44.0551 14.0109 44.3866 14.0109C44.4813 14.0109 44.5878 13.9871 44.6825 13.9514C45.1086 13.7846 45.3217 13.2961 45.1558 12.8672L41.8888 4.37247ZM40.1486 9.43594L41.1074 6.9578L42.0663 9.43594H40.1486Z" fill="#EC7323"/>
</svg>
