<svg width="61" height="61" viewBox="0 0 61 61" fill="none" xmlns="http://www.w3.org/2000/svg">
<path d="M51.9913 1.385L51.9935 1.38577C54.1979 2.16028 56.1634 3.53034 57.6522 5.37648L57.6553 5.38027C59.1453 7.16825 60.1584 9.37352 60.516 11.696C60.6356 12.5343 60.6956 13.4342 60.6956 14.274V46.909C60.6956 47.9327 60.6355 48.9494 60.4571 49.9621C59.9795 52.2267 58.9066 54.37 57.3004 56.0952L57.2965 56.0994C55.7484 57.8261 53.6621 59.1376 51.4587 59.7926L51.4568 59.7932C50.0859 60.2104 48.7133 60.39 47.2756 60.39H47.2713H47.2663H47.2605H47.254H47.2467H47.2388H47.23H47.2206H47.2105H47.1996H47.188H47.1757H47.1627H47.149H47.1346H47.1194H47.1036H47.0871H47.0699H47.052H47.0334H47.0142H46.9943H46.9737H46.9524H46.9304H46.9078H46.8845H46.8605H46.8359H46.8106H46.7847H46.7581H46.7309H46.7031H46.6745H46.6454H46.6156H46.5851H46.5541H46.5224H46.4901H46.4572H46.4237H46.3895H46.3547H46.3193H46.2833H46.2468H46.2096H46.1718H46.1334H46.0944H46.0548H46.0147H45.9739H45.9326H45.8907H45.8482H45.8051H45.7615H45.7174H45.6726H45.6273H45.5815H45.535H45.4881H45.4405H45.3925H45.3439H45.2947H45.245H45.1948H45.144H45.0927H45.0409H44.9886H44.9358H44.8824H44.8285H44.7741H44.7192H44.6638H44.6079H44.5515H44.4946H44.4372H44.3793H44.3209H44.2621H44.2027H44.1429H44.0826H44.0219H43.9606H43.8989H43.8367H43.7741H43.711H43.6474H43.5835H43.519H43.4541H43.3888H43.323H43.2568H43.1901H43.123H43.0556H42.9876H42.9192H42.8504H42.7813H42.7116H42.6416H42.5712H42.5003H42.4291H42.3574H42.2854H42.2129H42.1401H42.0669H41.9933H41.9193H41.8449H41.7702H41.6951H41.6196H41.5437H41.4675H41.3909H41.314H41.2367H41.159H41.081H41.0027H40.924H40.8449H40.7656H40.6858H40.6058H40.5254H40.4447H40.3636H40.2823H40.2006H40.1187H40.0364H39.9538H39.8708H39.7876H39.7041H39.6203H39.5362H39.4517H39.3671H39.2821H39.1968H39.1113H39.0255H38.9393H38.853H38.7664H38.6794H38.5923H38.5048H38.4172H38.3292H38.241H38.1526H38.0639H37.975H37.8858H37.7964H37.7068H37.6169H37.5268H37.4365H37.3459H37.2551H37.1642H37.073H36.9816H36.8899H36.7981H36.7061H36.6139H36.5215H36.4288H36.336H36.2431H36.1499H36.0565H35.963H35.8693H35.7754H35.6814H35.5872H35.4928H35.3982H35.3035H35.2086H35.1137H35.0185H34.9232H34.8278H34.7322H34.6364H34.5406H34.4446H34.3484H34.2522H34.1558H34.0593H33.9627H33.866H33.7692H33.6722H33.5752H33.478H33.3808H33.2834H33.1859H33.0884H32.9908H32.8931H32.7953H32.6975H32.5995H32.5015H32.4034H32.3052H32.207H32.1087H32.0104H31.912H31.8135H31.715H31.6164H31.5178H31.4192H31.3205H31.2218H31.123H31.0243H30.9255H30.8267H30.7278H30.6289H30.53H30.4311H30.3322H30.2333H30.1344H30.0355H29.9366H29.8377H29.7388H29.6399H29.541H29.4421H29.3433H29.2445H29.1457H29.0469H28.9482H28.8495H28.7508H28.6522H28.5536H28.4551H28.3566H28.2582H28.1598H28.0615H27.9632H27.865H27.7669H27.6688H27.5708H27.4729H27.3751H27.2773H27.1796H27.082H26.9846H26.8871H26.7899H26.6926H26.5955H26.4985H26.4016H26.3048H26.2082H26.1116H26.0152H25.9188H25.8226H25.7266H25.6306H25.5348H25.4392H25.3437H25.2483H25.153H25.0579H24.963H24.8682H24.7736H24.6791H24.5848H24.4906H24.3966H24.3028H24.2092H24.1157H24.0225H23.9294H23.8365H23.7438H23.6512H23.5589H23.4668H23.3748H23.2831H23.1916H23.1003H23.0091H22.9182H22.8276H22.7371H22.6469H22.5569H22.4671H22.3776H22.2883H22.1992H22.1104H22.0218H21.9335H21.8454H21.7576H21.67H21.5827H21.4957H21.4089H21.3224H21.2361H21.1501H21.0644H20.979H20.8938H20.809H20.7244H20.6401H20.5561H20.4724H20.3891H20.306H20.2232H20.1407H20.0586H19.9768H19.8952H19.814H19.7331H19.6525H19.5723H19.4924H19.4128H19.3336H19.2547H19.1762H19.098H19.0201H18.9426H18.8655H18.7887H18.7122H18.6362H18.5605H18.4852H18.4102H18.3356H18.2614H18.1876H18.1142H18.0411H17.9685H17.8962H17.8243H17.7528H17.6818H17.6111H17.5409H17.471H17.4016H17.3325H17.264H17.1958H17.128H17.0607H16.9938H16.9273H16.8613H16.7957H16.7306H16.6659H16.6016H16.5378H16.4744H16.4116H16.3492H16.2872H16.2257H16.1646H16.1041H16.044H15.9844H15.9253H15.8666H15.8085H15.7507H15.6936H15.6369H15.5807H15.525H15.4698H15.4152H15.361H15.3073H15.2542H15.2016H15.1495H15.0979H15.0469H14.9963H14.9463H14.8969H14.8479H14.7996H14.7517H14.7045H14.6577H14.6116H14.5659H14.5209H14.4764H14.4324H14.389H14.3463H14.304H14.2624H14.2213H14.1808H14.141H14.1016H14.0629H14.0247H13.9872H13.9503H13.914H13.8782H13.8431H13.8086H13.7747H13.7415H13.7088H13.6767H13.6453H13.6146H13.5845H13.5549H13.526H13.4978H13.4702H13.4433H13.417H13.3913H13.3664H13.342H13.3184H13.2954H13.273H13.2513H13.2303H13.21H13.1904H13.1714H13.1532H13.1356H13.1187H13.1025H13.087H13.0722H13.058H13.0447H13.032H13.02H13.0087H12.9981H12.9883H12.9792H12.9708H12.9631H12.9562H12.95H12.9446H12.9402C10.5589 60.2695 8.23658 59.495 6.27159 58.1854C4.35981 56.8706 2.7505 55.0803 1.73898 52.9977L1.73741 52.9946C0.84554 51.2109 0.427609 49.2453 0.427609 47.275V13.725V13.7204L0.427468 13.7158C0.368016 11.7538 0.783699 9.84975 1.618 8.06117C2.631 5.9765 4.18001 4.18862 6.08688 2.87677C8.11702 1.56399 10.4431 0.789771 12.8259 0.670638L12.8556 0.669143L12.8846 0.661909C13.0863 0.611468 13.2929 0.610016 13.5426 0.610016H47.3366C48.953 0.610016 50.5035 0.849374 51.9913 1.385Z" stroke="#EC7323" stroke-width="2"/>
<path d="M38.1391 31.4855L38.1385 31.4851L38.1364 31.4837L38.1282 31.4778L38.0959 31.455L37.9701 31.3656C37.8596 31.2869 37.6968 31.1709 37.4871 31.0206C37.0677 30.7199 36.4606 30.2824 35.709 29.7342C34.2059 28.638 32.1242 27.0986 29.8092 25.3261C26.7905 23.0147 23.3642 20.2986 20.3053 17.6473C20.796 18.3147 21.3169 19.0175 21.8536 19.733C23.2235 21.5596 24.6927 23.4652 26.0225 25.0791C27.3635 26.7067 28.5293 27.9959 29.2996 28.6236L28.6344 29.6385L28.9143 29.0965C28.6344 29.6385 28.6337 29.6382 28.6335 29.6381L28.6321 29.6373L28.6278 29.6351L28.6131 29.6273C28.6006 29.6207 28.5826 29.6112 28.5591 29.5985C28.5121 29.5731 28.4431 29.5353 28.3516 29.4838C28.1688 29.3809 27.896 29.2234 27.5302 29.0013C26.7986 28.5571 25.6943 27.8547 24.1907 26.8152C21.9402 25.2594 18.7944 22.9479 14.6639 19.6159C15.9697 21.2192 17.542 23.1134 19.2349 25.0762C21.5021 27.7048 23.9806 30.4504 26.3216 32.7829C28.6742 35.127 30.848 37.0127 32.5104 37.9606L33.3636 38.4471L32.5494 38.9962L32.2083 38.4905C32.5494 38.9963 32.549 38.9965 32.5486 38.9967L32.5476 38.9975L32.5448 38.9993L32.5364 39.0049C32.5295 39.0094 32.52 39.0156 32.5079 39.0234C32.4839 39.0389 32.4497 39.0605 32.4054 39.0876C32.3169 39.1419 32.1883 39.2179 32.021 39.3097C31.6863 39.4934 31.1964 39.7406 30.5622 40.0034C29.294 40.5288 27.4468 41.1175 25.1099 41.3841C20.9257 41.8615 15.2086 41.3019 8.47559 37.5601C9.47623 38.8413 10.9474 40.508 12.9011 42.1744C16.9701 45.6449 23.1178 49.1045 31.4763 49.1045C35.1979 49.1045 37.5905 48.1644 39.535 47.2144C39.8626 47.0544 40.1873 46.8887 40.5082 46.725C41.1238 46.411 41.725 46.1043 42.3041 45.8589C43.2109 45.4745 44.1453 45.2005 45.2013 45.2005C47.3637 45.2005 49.0743 46.281 50.2152 47.3094C50.6368 47.6894 50.988 48.0688 51.2638 48.3968C51.7553 46.1781 51.0599 43.854 50.0996 41.9269C49.5469 40.818 48.9225 39.8735 48.4352 39.2055C48.192 38.8722 47.9841 38.6093 47.8382 38.431C47.7652 38.3418 47.7078 38.274 47.6692 38.2291C47.65 38.2067 47.6355 38.19 47.6261 38.1793L47.6159 38.1677L47.6136 38.1651L47.3525 37.8734L47.509 37.515L47.5093 37.5144L47.5111 37.51C47.5133 37.5049 47.5169 37.4964 47.5218 37.4843C47.5317 37.4601 47.5469 37.422 47.5665 37.3705C47.6057 37.2674 47.6624 37.1106 47.7284 36.9041C47.8606 36.4909 48.0302 35.8793 48.1737 35.1012C48.4608 33.5444 48.6426 31.3248 48.2135 28.6913C47.4397 23.9419 44.6661 17.7682 36.7665 11.6782C37.3684 12.7392 38.0354 14.0703 38.6262 15.6106C40.1906 19.6888 41.2365 25.2783 39.064 31.1977L38.7896 31.9452L38.1391 31.4855ZM38.1391 31.4855C38.1392 31.4856 38.1393 31.4857 38.4913 30.9875L38.1391 31.4855Z" stroke="#EC7323" stroke-width="2"/>
</svg>
