<svg width="61" height="46" viewBox="0 0 61 46" fill="none" xmlns="http://www.w3.org/2000/svg">
<path d="M58.2823 24.6638H58.0404V21.4549C58.0404 19.2423 56.683 17.3443 54.7633 16.559C54.7375 16.5159 54.7123 16.4728 54.6861 16.4297C50.4782 9.52801 43.6193 4.76948 35.7807 3.28256V0.912747C35.7807 0.670669 35.6852 0.438496 35.5153 0.267313C35.3454 0.0961665 35.115 0 34.8747 0H26.1252C25.8849 0 25.6545 0.0962023 25.4846 0.267349C25.3147 0.438532 25.2192 0.670669 25.2192 0.912747V3.28375C22.137 3.86678 19.1733 4.96554 16.4512 6.53449C16.3479 6.59396 16.2572 6.67332 16.1844 6.76807C16.1115 6.86279 16.0579 6.97107 16.0266 7.08672C15.9953 7.20234 15.9868 7.32305 16.0018 7.44192C16.0168 7.56083 16.0549 7.67558 16.1139 7.77966C16.1729 7.88374 16.2517 7.97507 16.3457 8.04849C16.4397 8.12188 16.5472 8.17589 16.662 8.20746C16.7767 8.23902 16.8965 8.24748 17.0145 8.2324C17.1325 8.21729 17.2464 8.17893 17.3497 8.1195C19.8106 6.70318 22.4535 5.70479 25.2191 5.14326V10.2751C19.528 10.7705 14.3511 12.0622 10.3461 13.9472C11.6276 12.4426 13.0707 11.0857 14.649 9.90146C14.7445 9.82984 14.8249 9.73997 14.8858 9.63701C14.9468 9.53404 14.9869 9.42002 15.0041 9.3014C15.0213 9.18278 15.0151 9.06192 14.9859 8.94569C14.9567 8.8295 14.9051 8.72025 14.8339 8.62412C14.7629 8.52802 14.6737 8.44697 14.5715 8.38558C14.4693 8.32419 14.3562 8.2837 14.2384 8.26642C14.1207 8.2491 14.0008 8.25532 13.8854 8.28475C13.7701 8.31418 13.6617 8.36617 13.5663 8.43782C10.6537 10.6253 8.21354 13.3141 6.3135 16.4302C6.28741 16.4731 6.2624 16.5163 6.23653 16.5591C4.31708 17.3443 2.95933 19.2425 2.95933 21.455V24.6639H2.71772C1.21917 24.6639 0 25.8922 0 27.4022V34.7702C0 36.2803 1.21917 37.5088 2.71784 37.5088H2.95945V40.7174C2.95945 43.6302 5.31152 46 8.20249 46H52.7977C55.6887 46 58.0404 43.6302 58.0404 40.7174V37.5088H58.2823C59.7807 37.5088 61 36.2803 61 34.7702V27.4022C61 25.8922 59.7807 24.6638 58.2823 24.6638ZM35.7807 12.1083C37.4554 12.2588 39.0988 12.4807 40.6773 12.7722C40.9116 12.8114 41.152 12.7562 41.3465 12.6185C41.541 12.4808 41.6741 12.2716 41.7168 12.0361C41.7595 11.8005 41.7089 11.5574 41.5754 11.3592C41.442 11.1611 41.2367 11.0236 41.0038 10.9765C39.3199 10.6659 37.5667 10.4307 35.7807 10.2751V5.14507C41.5998 6.32781 46.8229 9.44077 50.6598 13.9538C48.9694 13.1576 47.0633 12.4602 44.9932 11.8886C44.8784 11.8569 44.7589 11.8483 44.6409 11.8633C44.5228 11.8782 44.4087 11.9165 44.3054 11.9758C44.202 12.0352 44.1113 12.1144 44.0384 12.2091C43.9652 12.3038 43.9114 12.4121 43.8802 12.5277C43.8486 12.6433 43.84 12.764 43.8551 12.8829C43.8698 13.0018 43.9078 13.1167 43.9666 13.2208C44.0255 13.325 44.1044 13.4164 44.1981 13.4899C44.2921 13.5635 44.3997 13.6176 44.5146 13.6493C46.9707 14.3276 49.1743 15.1845 51.0229 16.1726H35.7807V12.1083ZM33.9688 1.82553V16.1725H27.0311V1.82553H33.9688ZM25.2192 12.108V16.1724H9.97041C13.8582 14.0852 19.2201 12.6459 25.2192 12.108ZM2.71784 35.6831C2.21828 35.6831 1.81189 35.2739 1.81189 34.7702V27.4022C1.81189 26.8989 2.21828 26.4894 2.71784 26.4894H6.43349V35.6831H2.71784ZM56.2287 40.7174C56.2287 42.6237 54.6897 44.1743 52.7977 44.1743H8.20235C6.31041 44.1743 4.77124 42.6237 4.77124 40.7174V37.5088H7.33941C7.57968 37.5088 7.81008 37.4126 7.97998 37.2413C8.14989 37.0703 8.24533 36.8378 8.24537 36.596V31.9988H35.7225C35.9627 31.9988 36.1931 31.9026 36.3632 31.7316C36.5329 31.5603 36.6283 31.3281 36.6283 31.0863C36.6283 30.8441 36.5329 30.612 36.3632 30.4406C36.1931 30.2696 35.9627 30.1734 35.7225 30.1734H8.24537V25.5765C8.24533 25.3345 8.14989 25.1023 7.97998 24.9311C7.81008 24.76 7.57968 24.6638 7.33941 24.6638H4.77135V21.4549C4.77135 19.5487 6.31063 17.9979 8.20249 17.9979H52.7977C54.6897 17.9979 56.2287 19.5488 56.2287 21.4549V24.6638H53.6606C53.4202 24.6638 53.1898 24.7599 53.0201 24.9311C52.85 25.1023 52.7546 25.3345 52.7546 25.5765V30.1734H38.9392C38.6988 30.1734 38.4684 30.2696 38.2983 30.4406C38.1286 30.612 38.0331 30.8441 38.0331 31.0863C38.0331 31.3281 38.1286 31.5603 38.2983 31.7316C38.4684 31.9026 38.6988 31.9988 38.9392 31.9988H52.7546V36.596C52.7546 36.8382 52.85 37.0703 53.0198 37.2413C53.1898 37.4126 53.4202 37.5088 53.6606 37.5088H56.2287V40.7174ZM59.1879 34.7702C59.1879 35.2739 58.7818 35.6831 58.2823 35.6831H54.5667V26.4894H58.2823C58.7818 26.4894 59.1879 26.8989 59.1879 27.4022V34.7702Z" fill="#EC7323"/>
</svg>
