<svg width="63" height="40" viewBox="0 0 63 40" fill="none" xmlns="http://www.w3.org/2000/svg">
<path d="M6.89679 19.9995C6.89567 21.7854 7.24688 23.5542 7.93036 25.2047C8.61388 26.8552 9.61639 28.3553 10.8808 29.6191C12.1453 30.8828 13.6469 31.8855 15.2999 32.5695C16.9529 33.2535 18.7248 33.6053 20.5142 33.6048M6.89679 19.9995L7.69417 20M6.89679 19.9995C6.89679 19.9998 6.89679 20 6.89679 20.0002L7.69417 20M6.89679 19.9995C6.89635 18.2149 7.24764 16.4475 7.93076 14.7983C8.614 13.1488 9.61583 11.6495 10.8793 10.3864C12.1428 9.12313 13.6433 8.12069 15.2951 7.43645C16.9469 6.75225 18.7176 6.39972 20.506 6.39917H42.4975C44.2865 6.39917 46.0575 6.75126 47.7101 7.43526C49.3622 8.11922 50.8633 9.12159 52.1272 10.3849C53.391 11.6481 54.3933 13.1475 55.0767 14.7973C55.7601 16.447 56.1117 18.2148 56.1113 19.9999M20.5142 33.6048C20.5143 33.6048 20.5141 33.6048 20.5142 33.6048ZM20.5142 33.6048H42.5015C44.2905 33.6042 46.0619 33.2516 47.7136 32.5671C49.3658 31.8826 50.8665 30.8798 52.13 29.6161C53.3938 28.3525 54.3953 26.8527 55.0783 25.2028C55.7613 23.5529 56.1121 21.785 56.1113 19.9999M56.1113 19.9999C56.1113 20 56.1113 19.9998 56.1113 19.9999ZM56.1113 19.9999L55.3139 20M7.69417 20C7.69365 18.3184 8.02465 16.6532 8.66822 15.0993C9.31183 13.5455 10.2554 12.1336 11.4451 10.9442C12.6349 9.75476 14.0474 8.8111 15.6021 8.16708C17.1568 7.5231 18.8233 7.19135 20.5063 7.19083L20.5142 32.8131C18.8302 32.8136 17.1626 32.4826 15.6067 31.8388C14.0508 31.195 12.6371 30.2511 11.4465 29.0612C10.2559 27.8712 9.31171 26.4585 8.66786 24.9037C8.02401 23.3489 7.69314 21.6826 7.69417 20ZM19.9992 1C14.9606 1.0021 10.1281 3.00363 6.5648 6.56605C3.00125 10.1287 0.998992 14.961 1 20C1 30.497 9.51058 39 19.9992 39H43.0007C48.0394 38.9979 52.8719 36.9964 56.435 33.434C59.9986 29.8713 62.0012 25.039 62 20C62 9.50301 53.4895 1 43.0007 1H19.9992ZM19.9992 1C19.9993 1 19.9991 1 19.9992 1Z" stroke="#EC7323" stroke-width="2"/>
</svg>
