<svg width="49" height="60" viewBox="0 0 49 60" fill="none" xmlns="http://www.w3.org/2000/svg">
<path d="M23.685 15.8187C23.7786 15.8216 23.8727 15.8229 23.9662 15.8229C27.2864 15.8229 30.8894 13.9511 33.1437 11.0549C35.4705 8.0696 36.5277 4.48844 36.0443 1.22941C35.9338 0.485099 35.2669 -0.0502296 34.5186 0.00374504C31.2465 0.232897 27.5422 2.22247 25.3012 4.95404C22.863 7.92341 21.7458 11.5437 22.313 14.6383C22.3724 14.9623 22.5409 15.2561 22.7906 15.4708C23.0402 15.6856 23.3559 15.8084 23.685 15.8187ZM27.5284 6.78227C28.9183 5.08811 31.1681 3.68862 33.2762 3.12736C33.1759 5.99398 31.6193 8.32431 30.8708 9.2847C29.4156 11.154 27.178 12.4991 25.0434 12.8508C25.0859 10.0002 26.9045 7.54214 27.5284 6.78227Z" fill="#EC7323"/>
<path d="M48.8895 43.4738C48.814 43.2923 48.7021 43.1282 48.5608 42.9915C48.4194 42.8548 48.2516 42.7485 48.0676 42.6792C42.1348 40.4422 40.2768 34.0125 41.9581 29.3371C42.7892 27.0181 44.4244 25.1334 46.6867 23.8868C46.8706 23.7854 47.0301 23.645 47.1541 23.4755C47.2781 23.306 47.3635 23.1114 47.4044 22.9054C47.4452 22.6994 47.4406 22.487 47.3907 22.283C47.3409 22.0789 47.2471 21.8883 47.1158 21.7243C44.109 17.9719 39.8348 15.7317 35.6822 15.7317C32.7749 15.7317 30.8068 16.478 29.0704 17.1365C27.7914 17.6215 26.6869 18.0404 25.4207 18.0404C24.02 18.0404 22.7427 17.5829 21.2633 17.053C19.534 16.4335 17.5742 15.7314 15.1248 15.7314C10.404 15.7314 5.61971 18.5864 2.6371 23.1848C1.5334 24.8952 0.759508 27.0081 0.335972 29.4673C-0.855502 36.4633 1.16326 44.7996 5.73691 51.7679C8.33053 55.7117 11.599 59.7485 16.1721 59.787L16.2654 59.7875C18.1702 59.7875 19.4518 59.2154 20.6911 58.6618C22.0007 58.0768 23.2377 57.5242 25.4783 57.5129H25.5521C27.7505 57.5129 28.9483 58.0624 30.2164 58.6443C31.4313 59.2015 32.6877 59.7778 34.5875 59.7778L34.6746 59.7772C39.1562 59.7392 42.5503 55.4932 45.2822 51.3403C46.9614 48.7681 47.6008 47.4535 48.8739 44.6169C48.9543 44.4375 48.9972 44.2435 48.9999 44.047C49.0025 43.8504 48.965 43.6554 48.8895 43.4738ZM42.8722 49.7612C40.6961 53.0695 37.7949 56.8698 34.6485 56.8965L34.5874 56.897C33.3168 56.897 32.4785 56.512 31.4175 56.0252C30.0641 55.4042 28.3797 54.6316 25.5517 54.6316H25.4628C22.6163 54.646 20.8971 55.414 19.5158 56.0309C18.4207 56.5202 17.5558 56.9068 16.2652 56.9068L16.1984 56.9063C12.9595 56.8785 10.1926 53.2997 8.1446 50.1861C3.96111 43.8121 2.10369 36.2478 3.17569 29.9539C3.53258 27.8815 4.16587 26.1297 5.05616 24.7498C7.5115 20.9643 11.3697 18.6127 15.1248 18.6127C17.0737 18.6127 18.6368 19.1726 20.2918 19.7653C21.8787 20.3339 23.5197 20.9217 25.4207 20.9217C27.2149 20.9217 28.6776 20.3669 30.0921 19.8304C31.6706 19.2317 33.3031 18.6127 35.6824 18.6127C38.5135 18.6127 41.4539 19.9759 43.7903 22.3202C41.6771 23.8607 40.1212 25.9229 39.2467 28.3633C36.9663 34.705 39.8202 41.7363 45.6495 44.7508C44.783 46.6301 44.1674 47.7768 42.8722 49.7612Z" fill="#EC7323"/>
</svg>
