<svg width="45" height="62" viewBox="0 0 45 62" fill="none" xmlns="http://www.w3.org/2000/svg">
<path d="M25.3407 29.1942C28.2834 32.5845 24.5677 35.6355 24.5677 35.6355C24.5677 35.6355 32.0393 31.7756 28.6079 26.9421C25.403 22.4344 22.9452 20.195 36.2506 12.4731C36.2506 12.4731 15.3655 17.6926 25.3407 29.1942Z" fill="#EC7323"/>
<path d="M28.6012 0C28.6012 0 34.9401 6.34516 22.589 16.1026C12.6847 23.9295 20.3305 28.3922 22.5849 33.4913C16.8038 28.2714 12.561 23.6767 15.4074 19.4002C19.585 13.1227 31.1588 10.0791 28.6012 0Z" fill="#EC7323"/>
<path d="M14.4967 47.2018C14.4967 47.2018 12.1654 48.5587 16.1558 49.0176C20.9902 49.5697 23.4609 49.4905 28.7884 48.4812C28.7884 48.4812 30.1891 49.3602 32.1451 50.1213C20.2024 55.2434 5.11629 49.8249 14.4967 47.2018ZM13.0374 40.5181C13.0374 40.5181 10.4226 42.4549 14.416 42.8684C19.5801 43.4015 23.6584 43.4448 30.7154 42.085C30.7154 42.085 31.6916 43.0754 33.2264 43.6168C18.7867 47.8421 2.70372 43.9503 13.0374 40.5181Z" fill="#EC7323"/>
<path d="M41.1294 52.1521C41.1294 52.1521 42.8548 53.575 39.2294 54.675C32.3359 56.765 10.5378 57.3959 4.4824 54.7587C2.30564 53.8108 6.38771 52.496 7.67176 52.2198C9.01089 51.9291 9.77617 51.9835 9.77617 51.9835C7.3554 50.277 -5.8708 55.3339 3.05792 56.7823C27.4078 60.7339 47.4458 55.0032 41.1294 52.1521ZM15.6119 33.5995C15.6119 33.5995 4.524 36.2349 11.6854 37.1919C14.7091 37.597 20.7369 37.5053 26.3515 37.0346C30.9402 36.6472 35.5479 35.8239 35.5479 35.8239C35.5479 35.8239 33.9299 36.5172 32.7593 37.317C21.4998 40.2804 -0.251621 38.9017 6.01033 35.8706C11.306 33.309 15.6119 33.5995 15.6119 33.5995ZM35.5022 44.7248C46.9482 38.7733 41.6562 33.0536 37.9621 33.8243C37.0568 34.0129 36.6531 34.1763 36.6531 34.1763C36.6531 34.1763 36.9893 33.6494 37.631 33.4214C44.9386 30.8505 50.5583 41.0037 35.272 45.025C35.272 45.025 35.4494 44.8667 35.5022 44.7248Z" fill="#EC7323"/>
<path d="M16.7365 60.8446C27.7231 61.5484 44.5944 60.4541 44.9935 55.2524C44.9935 55.2524 44.2258 57.2241 35.9138 58.7905C26.5367 60.5564 14.971 60.3502 8.11133 59.2184C8.11133 59.2184 9.51573 60.3815 16.7365 60.8446Z" fill="#EC7323"/>
</svg>
