<svg width="57" height="33" viewBox="0 0 57 33" fill="none" xmlns="http://www.w3.org/2000/svg">
<path d="M15.2 10.7884C12.0334 10.7884 9.50001 13.3269 9.50001 16.5C9.50001 19.6731 12.0334 22.2115 15.2 22.2115C18.3667 22.2115 20.9 19.6731 20.9 16.5C20.9 13.3269 18.3667 10.7884 15.2 10.7884ZM15.2 19.6731C13.4267 19.6731 12.0334 18.2769 12.0334 16.5C12.0334 14.7231 13.4267 13.3269 15.2 13.3269C16.9734 13.3269 18.3667 14.7231 18.3667 16.5C18.3667 18.2769 16.9734 19.6731 15.2 19.6731ZM41.7999 10.7884C38.6333 10.7884 36.1001 13.3269 36.1001 16.5C36.1001 19.6731 38.6333 22.2115 41.7999 22.2115C44.9666 22.2115 47.5 19.6731 47.5 16.5C47.5 13.3269 44.9666 10.7884 41.7999 10.7884ZM41.7999 19.6731C40.0266 19.6731 38.6333 18.2769 38.6333 16.5C38.6333 14.7231 40.0266 13.3269 41.7999 13.3269C43.5733 13.3269 44.9666 14.7231 44.9666 16.5C44.9666 18.2769 43.5733 19.6731 41.7999 19.6731ZM49.4 0H7.60001C3.41999 0 0 3.42692 0 7.61538V25.3846C0 29.5731 3.41999 33 7.60001 33H16.7834C19 33 21.09 32.0481 22.4834 30.3981L24.7001 27.8596C25.6501 26.7808 27.0434 26.1462 28.5001 26.1462C29.9567 26.1462 31.3501 26.7808 32.3001 27.8596L34.5168 30.3981C35.9734 32.0481 38.0633 33 40.2166 33H49.4C53.58 33 57 29.5731 57 25.3846V7.61538C57 3.42692 53.58 0 49.4 0ZM54.4667 25.3846C54.4667 28.1769 52.1866 30.4615 49.4 30.4615H40.2166C38.7599 30.4615 37.3666 29.8269 36.4168 28.7481L34.2001 26.2096C32.7434 24.5596 30.6534 23.6077 28.5001 23.6077C26.2834 23.6077 24.1934 24.5596 22.8001 26.2096L20.5834 28.7481C19.6334 29.8269 18.24 30.4615 16.7834 30.4615H7.60001C4.81333 30.4615 2.53332 28.1769 2.53332 25.3846V7.61538C2.53332 4.82307 4.81333 2.53846 7.60001 2.53846H49.4C52.1866 2.53846 54.4667 4.82307 54.4667 7.61538V25.3846Z" fill="#EC7323"/>
</svg>
