<svg width="50" height="50" viewBox="0 0 50 50" fill="none" xmlns="http://www.w3.org/2000/svg">
<path d="M1.08696 15.2174C1.37525 15.2174 1.65171 15.1029 1.85556 14.899C2.05941 14.6952 2.17391 14.4187 2.17391 14.1304V5.67826C2.17506 4.74919 2.54463 3.85854 3.20158 3.20158C3.85854 2.54463 4.74919 2.17506 5.67826 2.17391H14.1304C14.4187 2.17391 14.6952 2.05941 14.899 1.85556C15.1029 1.65171 15.2174 1.37525 15.2174 1.08696C15.2174 0.798665 15.1029 0.522205 14.899 0.318354C14.6952 0.114503 14.4187 0 14.1304 0H5.67826C4.17283 0.00173913 2.72953 0.600528 1.66503 1.66503C0.600528 2.72953 0.00173913 4.17283 0 5.67826V14.1304C0 14.4187 0.114503 14.6952 0.318354 14.899C0.522205 15.1029 0.798665 15.2174 1.08696 15.2174ZM44.3217 0H35.8696C35.5814 0 35.305 0.114503 35.1009 0.318354C34.8972 0.522205 34.7826 0.798665 34.7826 1.08696C34.7826 1.37525 34.8972 1.65171 35.1009 1.85556C35.305 2.05941 35.5814 2.17391 35.8696 2.17391H44.3217C45.2509 2.17506 46.1416 2.54463 46.7984 3.20158C47.4553 3.85854 47.8248 4.74919 47.8261 5.67826V14.1304C47.8261 14.4187 47.9407 14.6952 48.1444 14.899C48.3484 15.1029 48.6248 15.2174 48.913 15.2174C49.2012 15.2174 49.478 15.1029 49.6817 14.899C49.8854 14.6952 50 14.4187 50 14.1304V5.67826C49.9981 4.17283 49.3994 2.72953 48.3351 1.66503C47.2705 0.600528 45.8273 0.00173913 44.3217 0ZM14.1304 47.8261H5.67826C4.74919 47.8248 3.85854 47.4553 3.20158 46.7984C2.54463 46.1416 2.17506 45.2509 2.17391 44.3217V35.8696C2.17391 35.5814 2.05941 35.305 1.85556 35.1009C1.65171 34.8972 1.37525 34.7826 1.08696 34.7826C0.798665 34.7826 0.522205 34.8972 0.318354 35.1009C0.114503 35.305 0 35.5814 0 35.8696V44.3217C0.00173913 45.8273 0.600528 47.2705 1.66503 48.3351C2.72953 49.3994 4.17283 49.9981 5.67826 50H14.1304C14.4187 50 14.6952 49.8854 14.899 49.6817C15.1029 49.478 15.2174 49.2012 15.2174 48.913C15.2174 48.6248 15.1029 48.3484 14.899 48.1444C14.6952 47.9407 14.4187 47.8261 14.1304 47.8261ZM48.913 34.7826C48.6248 34.7826 48.3484 34.8972 48.1444 35.1009C47.9407 35.305 47.8261 35.5814 47.8261 35.8696V44.3217C47.8248 45.2509 47.4553 46.1416 46.7984 46.7984C46.1416 47.4553 45.2509 47.8248 44.3217 47.8261H35.8696C35.5814 47.8261 35.305 47.9407 35.1009 48.1444C34.8972 48.3484 34.7826 48.6248 34.7826 48.913C34.7826 49.2012 34.8972 49.478 35.1009 49.6817C35.305 49.8854 35.5814 50 35.8696 50H44.3217C45.8273 49.9981 47.2705 49.3994 48.3351 48.3351C49.3994 47.2705 49.9981 45.8273 50 44.3217V35.8696C50 35.5814 49.8854 35.305 49.6817 35.1009C49.478 34.8972 49.2012 34.7826 48.913 34.7826ZM40.2174 33.1522V16.8478C40.2174 16.657 40.1671 16.4696 40.0717 16.3044C39.9764 16.1391 39.8391 16.0019 39.6739 15.9065L25.5435 7.75435C25.3782 7.65894 25.1908 7.60873 25 7.60873C24.8092 7.60873 24.6218 7.65894 24.4565 7.75435L10.337 15.9065C10.1717 16.0019 10.0345 16.1391 9.9391 16.3044C9.8437 16.4696 9.79348 16.657 9.79348 16.8478V33.1522C9.79348 33.3429 9.8437 33.5304 9.9391 33.6957C10.0345 33.8609 10.1717 33.9981 10.337 34.0935L24.4674 42.2457C24.6326 42.341 24.8201 42.3913 25.0109 42.3913C25.2017 42.3913 25.3891 42.341 25.5543 42.2457L39.6848 34.0935C39.8481 33.9966 39.9829 33.859 40.0764 33.6938C40.1699 33.5286 40.2186 33.3419 40.2174 33.1522ZM25 9.95L36.9565 16.8478L25 23.7457L13.0543 16.8478L25 9.95ZM11.9674 18.7304L23.913 25.6283V39.4217L11.9674 32.5239V18.7304ZM26.087 39.4217V25.6283L38.0435 18.7304V32.5239L26.087 39.4217Z" fill="#EC7323"/>
</svg>
