<svg width="274" height="936" viewBox="0 0 274 936" fill="none" xmlns="http://www.w3.org/2000/svg">
<g clip-path="url(#clip0_116_1073)">
<path d="M167.142 137.11L166.825 137.288L43.0226 -82.6495L43.339 -82.8268L167.142 137.11Z" fill="#D1D1D1"/>
<path d="M273.52 28.8728L144.945 246.054L144.633 245.87L273.208 28.6886L273.52 28.8728Z" fill="#D1D1D1"/>
<path d="M159.353 400.212L58.2769 571.032L57.9991 570.867L159.076 400.047L159.353 400.212Z" fill="#D1D1D1"/>
<path d="M53.5115 858.821L53.2392 858.974L-37.608 697.583L-37.3358 697.429L53.5115 858.821Z" fill="#D1D1D1"/>
<path d="M50.7244 927.838L50.4521 927.992L-40.3957 766.6L-40.1229 766.447L50.7244 927.838Z" fill="#D1D1D1"/>
<path d="M184.356 389.589L184.084 389.742L93.2367 228.353L93.509 228.195L184.356 389.589Z" fill="#D1D1D1"/>
<path d="M98.0981 680.658L98.1475 680.749L118.746 717.343L160.84 717.802L160.891 717.712L182.285 681.577L161.636 644.893L119.542 644.433L119.491 644.523L98.0981 680.658ZM118.962 716.982L98.5165 680.662L119.75 644.798L161.425 645.253L181.866 681.572L160.637 717.437L118.962 716.982Z" fill="#D1D1D1"/>
<path d="M57.8019 535.107L57.8512 535.199L78.4502 571.792L120.544 572.252L120.595 572.161L141.988 536.026L141.938 535.935L121.34 499.342L79.2463 498.882L79.1949 498.972L57.8019 535.107ZM78.6607 571.432L58.2151 535.112L79.4489 499.247L121.124 499.702L141.57 536.022L120.336 571.887L78.6607 571.432Z" fill="#D1D1D1"/>
<path d="M57.2746 571.379L57.4127 571.622L78.0959 608.368L120.537 608.831L120.681 608.591L142.161 572.306L121.34 535.317L78.8985 534.854L78.7552 535.094L57.2746 571.379ZM78.6662 607.407L58.3928 571.391L79.4477 535.827L120.775 536.278L141.047 572.293L119.993 607.858L78.6662 607.407Z" fill="#D1D1D1"/>
<path d="M121.647 463.254L121.697 463.345L142.296 499.938L184.389 500.398L184.44 500.308L205.834 464.173L185.185 427.488L143.092 427.028L143.04 427.118L121.647 463.254ZM142.506 499.578L122.061 463.258L143.294 427.393L184.969 427.848L205.415 464.168L184.181 500.033L142.506 499.578Z" fill="#D1D1D1"/>
<path d="M100.302 499.298L100.351 499.389L120.95 535.983L163.044 536.442L163.095 536.352L184.488 500.217L163.84 463.532L121.746 463.073L121.695 463.163L100.302 499.298ZM121.166 535.617L100.72 499.298L121.954 463.433L163.629 463.888L184.075 500.208L162.841 536.072L121.166 535.617Z" fill="#D1D1D1"/>
<path d="M77.0373 680.428L77.176 680.672L97.8592 717.417L140.3 717.881L161.924 681.355L141.103 644.366L98.6619 643.903L98.5178 644.143L77.0373 680.428ZM98.4289 716.456L78.1562 680.44L99.2104 644.876L140.537 645.328L160.806 681.343L139.751 716.907L98.4289 716.456Z" fill="#D1D1D1"/>
<path d="M56.0441 716.477L56.0934 716.568L76.6924 753.162L118.786 753.621L118.837 753.531L140.23 717.396L119.582 680.711L77.4884 680.251L77.4371 680.342L56.0441 716.477ZM76.9029 752.801L56.4572 716.481L77.6911 680.616L119.366 681.071L139.812 717.391L118.578 753.256L76.9029 752.801Z" fill="#D1D1D1"/>
<path d="M78.1762 607.885L78.2256 607.977L98.8245 644.57L140.918 645.029L140.969 644.939L162.363 608.804L141.714 572.12L99.6206 571.66L99.5692 571.75L78.1762 607.885ZM99.0403 644.209L78.5998 607.89L99.8284 572.025L141.503 572.48L161.95 608.8L140.715 644.664L99.0403 644.209Z" fill="#D1D1D1"/>
<path d="M120.063 608.342L120.113 608.434L140.712 645.027L182.805 645.487L182.856 645.397L204.25 609.262L183.601 572.577L141.508 572.118L141.456 572.208L120.063 608.342ZM140.922 644.667L120.477 608.347L141.71 572.483L183.385 572.938L203.831 609.257L182.597 645.122L140.922 644.667Z" fill="#D1D1D1"/>
<path d="M14.9526 643.473L15.0026 643.564L35.6015 680.158L77.6949 680.617L77.7462 680.527L99.1392 644.392L99.0899 644.301L78.4909 607.708L36.3976 607.248L36.3462 607.338L14.9526 643.473ZM35.8173 679.797L15.3761 643.477L36.6054 607.613L78.2804 608.068L98.726 644.387L77.4922 680.252L35.8173 679.797Z" fill="#D1D1D1"/>
<path d="M-25.3443 497.926L-25.295 498.017L-4.69531 534.606L37.398 535.066L37.4494 534.975L58.8424 498.84L58.793 498.749L38.194 462.156L-3.89927 461.696L-3.95061 461.786L-25.3443 497.926ZM-4.47959 534.246L-24.9259 497.926L-3.69146 462.061L37.9835 462.516L58.424 498.836L37.1954 534.701L-4.47959 534.246Z" fill="#D1D1D1"/>
<path d="M16.7179 462.108L16.7673 462.199L37.3662 498.793L79.4595 499.252L79.5109 499.162L100.904 463.027L100.855 462.936L80.2556 426.343L38.1623 425.883L38.1109 425.973L16.7179 462.108ZM37.5768 498.432L17.1304 462.113L38.3649 426.248L80.0399 426.703L100.481 463.023L79.2517 498.887L37.5768 498.432Z" fill="#D1D1D1"/>
<path d="M-4.19509 425.601L-4.05699 425.844L16.6262 462.591L59.0675 463.054L59.2108 462.813L80.6914 426.528L80.5533 426.285L59.8701 389.539L17.4288 389.076L17.2854 389.316L-4.19509 425.601ZM17.1965 461.629L-3.07689 425.614L17.978 390.049L59.305 390.5L79.5777 426.516L58.5234 462.08L17.1965 461.629Z" fill="#D1D1D1"/>
<path d="M60.004 353.747L60.0534 353.838L80.6523 390.432L122.746 390.891L122.797 390.801L144.19 354.667L123.542 317.982L81.4484 317.522L81.397 317.613L60.004 353.747ZM80.8629 390.071L60.4217 353.752L81.651 317.887L123.326 318.342L143.772 354.662L122.538 390.526L80.8629 390.071Z" fill="#D1D1D1"/>
<path d="M38.6558 389.792L38.7051 389.883L59.3047 426.477L101.398 426.936L101.449 426.846L122.842 390.711L122.793 390.62L102.194 354.027L60.1008 353.567L60.0494 353.657L38.6558 389.792ZM59.5204 426.116L39.0793 389.796L60.3086 353.932L101.984 354.387L122.429 390.706L101.195 426.571L59.5204 426.116Z" fill="#D1D1D1"/>
<path d="M59.2121 426.294L59.2614 426.386L79.8604 462.979L121.954 463.439L122.005 463.348L143.398 427.213L122.75 390.529L80.6564 390.069L80.6051 390.159L59.2121 426.294ZM80.0709 462.618L59.6298 426.299L80.8591 390.434L122.534 390.889L142.98 427.209L121.746 463.074L80.0709 462.618Z" fill="#D1D1D1"/>
<path d="M-23.5838 316.557L-23.5345 316.648L-2.93551 353.242L39.1578 353.701L39.2091 353.611L60.6021 317.476L60.5528 317.385L39.9538 280.789L-2.13944 280.329L-2.19078 280.419L-23.5838 316.557ZM-2.7198 352.881L-23.1609 316.561L-1.93171 280.7L39.7432 281.155L60.1889 317.471L38.9552 353.336L-2.7198 352.881Z" fill="#D1D1D1"/>
<path d="M-44.9283 352.602L-44.8789 352.693L-24.2793 389.286L17.8134 389.746L17.8653 389.656L39.2584 353.521L39.209 353.429L18.6094 316.836L-23.4833 316.376L-23.5346 316.467L-44.9283 352.602ZM-24.0688 388.926L-44.5151 352.606L-23.2806 316.742L18.3943 317.197L38.84 353.516L17.6062 389.381L-24.0688 388.926Z" fill="#D1D1D1"/>
<path d="M-68.1864 606.287L-68.1371 606.379L-47.5381 642.972L-5.44478 643.432L-5.39343 643.341L15.9996 607.206L15.9502 607.116L-4.64874 570.522L-46.7421 570.063L-46.7934 570.152L-68.1864 606.287ZM-47.3276 642.612L-67.7681 606.292L-46.5394 570.428L-4.86446 570.883L15.5767 607.202L-5.65258 643.067L-47.3276 642.612Z" fill="#D1D1D1"/>
<path d="M-46.2469 533.971L-46.1976 534.062L-25.5986 570.656L16.4947 571.115L16.546 571.025L37.939 534.89L37.8897 534.799L17.2907 498.206L-24.8026 497.746L-24.8539 497.836L-46.2469 533.971ZM-25.3881 570.295L-45.8337 533.975L-24.5999 498.111L17.075 498.566L37.5213 534.885L16.2869 570.75L-25.3881 570.295Z" fill="#D1D1D1"/>
<path d="M-63.1004 98.464L-63.051 98.5549L-42.4521 135.151L-0.358822 135.611L-0.307477 135.521L21.0856 99.3831L21.0362 99.2922L0.437286 62.6956L-41.656 62.2361L-41.7074 62.3324L-63.1004 98.464ZM-42.2363 134.786L-62.682 98.4685L-41.4483 62.6063L0.226667 63.0613L20.6724 99.3786L-0.561406 135.241L-42.2363 134.786Z" fill="#D1D1D1"/>
<path opacity="0.3" d="M-84.7947 134.501L-84.6566 134.748L-63.9735 171.494L-21.5322 171.958L-21.3887 171.714L0.091797 135.428L-0.0463302 135.188L-20.7295 98.4418L-63.1708 97.9784L-63.3142 98.2222L-84.7947 134.501ZM-63.4031 170.532L-83.6765 134.514L-62.6216 98.9529L-21.2946 99.4042L-1.02189 135.416L-22.0762 170.983L-63.4031 170.532Z" fill="#FFC300"/>
<path d="M-63.8925 171.004L-63.8431 171.095L-43.2442 207.692L-1.15084 208.152L-1.09949 208.062L20.2936 171.924L20.2442 171.833L-0.354797 135.243L-42.4481 134.783L-42.4995 134.873L-63.8925 171.004ZM-43.0284 207.326L-63.4741 171.009L-42.2403 135.147L-0.565344 135.602L19.8804 171.919L-1.35342 207.781L-43.0284 207.326Z" fill="#D1D1D1"/>
<path d="M-22.0057 171.462L-21.9563 171.553L-1.35742 208.149L40.7359 208.609L40.7872 208.519L62.1803 172.381L62.1309 172.29L41.5319 135.7L-0.561378 135.241L-0.612723 135.33L-22.0057 171.462ZM-1.14681 207.784L-21.5874 171.467L-0.358741 135.604L41.3162 136.059L61.7626 172.377L40.5282 208.239L-1.14681 207.784Z" fill="#D1D1D1"/>
<path d="M60.9595 244.924L61.0088 245.015L81.6084 281.612L123.701 282.071L123.752 281.982L145.146 245.843L145.097 245.753L124.497 209.156L82.4045 208.696L82.3531 208.793L60.9595 244.924ZM81.819 281.246L61.3727 244.929L82.6071 209.067L124.282 209.522L144.728 245.839L123.494 281.701L81.819 281.246Z" fill="#D1D1D1"/>
<path d="M-22.8081 244.01L-22.7588 244.101L-2.15919 280.697L39.9335 281.157L39.9848 281.067L61.3785 244.929L61.3292 244.838L40.7296 208.241L-1.36308 207.782L-1.4145 207.878L-22.8081 244.01ZM-1.94857 280.332L-22.3898 244.014L-1.1605 208.152L40.5145 208.607L60.9602 244.924L39.7264 280.787L-1.94857 280.332Z" fill="#D1D1D1"/>
<path d="M41.2222 135.878L41.2715 135.968L61.8704 172.565L103.964 173.025L104.015 172.935L125.409 136.797L125.359 136.706L104.76 100.116L62.6665 99.656L62.6151 99.7458L41.2222 135.878ZM62.081 172.206L41.6353 135.882L62.8691 100.02L104.544 100.475L124.99 136.792L103.756 172.661L62.081 172.206Z" fill="#D1D1D1"/>
<path d="M19.5286 171.915L19.6666 172.162L40.3498 208.908L82.7911 209.372L82.9345 209.128L104.415 172.842L104.277 172.602L83.5938 135.856L41.1525 135.392L41.0091 135.63L19.5286 171.915ZM40.9149 207.946L20.6423 171.928L41.6965 136.367L83.0234 136.818L103.297 172.83L82.2419 208.397L40.9149 207.946Z" fill="#CB3322"/>
<path d="M82.2979 208.883L82.3473 208.973L102.946 245.564L145.04 246.023L145.091 245.933L166.484 209.802L145.836 173.114L103.742 172.655L103.691 172.744L82.2979 208.883ZM103.162 245.204L82.7163 208.887L103.95 173.018L145.625 173.473L166.071 209.797L144.837 245.659L103.162 245.204Z" fill="#D1D1D1"/>
<path d="M145.525 173.291L166.173 209.979L208.267 210.438L208.318 210.348L229.712 174.21L209.063 137.529L166.969 137.07L166.918 137.159L145.525 173.291ZM166.389 209.613L145.944 173.296L167.177 137.433L208.852 137.888L229.298 174.206L208.064 210.068L166.389 209.613Z" fill="#D1D1D1"/>
<path d="M124.179 209.34L124.228 209.43L144.827 246.021L186.92 246.48L186.972 246.39L208.365 210.259L187.716 173.571L145.623 173.111L145.572 173.201L124.179 209.34ZM145.043 245.661L124.601 209.344L145.831 173.475L187.506 173.93L207.952 210.254L186.718 246.116L145.043 245.661Z" fill="#D1D1D1"/>
<path d="M-44.1294 280.051L-44.0801 280.149L-23.4811 316.739L18.6122 317.198L18.6635 317.109L40.0572 280.97L40.0079 280.88L19.4082 244.289L-22.6851 243.83L-22.7364 243.92L-44.1294 280.051ZM-23.2706 316.378L-43.7162 280.056L-22.4824 244.194L19.1925 244.649L39.6389 280.966L18.4044 316.833L-23.2706 316.378Z" fill="#D1D1D1"/>
<path d="M18.6773 280.737L18.7266 280.835L39.3262 317.425L81.4188 317.884L81.4702 317.795L102.864 281.657L102.815 281.566L82.2149 244.975L40.1222 244.516L40.0709 244.606L18.6773 280.737ZM39.5413 317.064L19.0956 280.742L40.3294 244.88L82.0043 245.335L102.451 281.652L81.2162 317.519L39.5413 317.064Z" fill="#D1D1D1"/>
<path d="M-49.6317 824.152L-49.5824 824.243L-28.9834 860.836L13.1099 861.296L13.1613 861.206L34.5543 825.071L34.5049 824.979L13.906 788.386L-28.1874 787.926L-28.2387 788.017L-49.6317 824.152ZM-28.7677 860.475L-49.2088 824.156L-27.9796 788.291L13.6954 788.746L34.1411 825.066L12.9073 860.931L-28.7677 860.475Z" fill="#D1D1D1"/>
<path d="M-71.326 860.192L-71.1879 860.436L-50.5047 897.181L-8.06407 897.645L-7.92002 897.404L13.5605 861.119L13.4224 860.876L-7.26142 824.13L-49.7021 823.667L-49.8455 823.907L-71.326 860.192ZM-49.9344 896.22L-70.2078 860.205L-49.1529 824.641L-7.8259 825.092L12.4468 861.107L-8.60742 896.671L-49.9344 896.22Z" fill="#D1D1D1"/>
<path d="M-28.3006 788.111L-28.2513 788.203L-7.65234 824.796L34.441 825.256L34.4923 825.166L55.8853 789.031L55.836 788.94L35.237 752.346L-6.85629 751.887L-6.90764 751.977L-28.3006 788.111ZM-7.43662 824.436L-27.8778 788.116L-6.64849 752.252L35.0265 752.707L55.4721 789.026L34.2383 824.891L-7.43662 824.436Z" fill="#D1D1D1"/>
<path d="M-48.855 751.61L-48.8056 751.701L-28.206 788.294L13.8866 788.754L13.9386 788.664L35.3316 752.529L35.2822 752.437L14.6827 715.844L-27.41 715.384L-27.4613 715.475L-48.855 751.61ZM-27.9955 787.933L-48.4366 751.614L-27.2074 715.749L14.4676 716.204L34.9133 752.524L13.6795 788.388L-27.9955 787.933Z" fill="#D1D1D1"/>
<path d="M41.6418 63.3326L41.7806 63.5731L62.4637 100.319L104.904 100.782L105.048 100.539L126.528 64.2594L126.39 64.0126L105.707 27.2665L63.2664 26.8031L63.1223 27.0469L41.6418 63.3326ZM63.0282 99.3567L42.7555 63.3447L63.8097 27.7776L105.137 28.2288L125.41 64.2472L104.356 99.8079L63.0282 99.3567Z" fill="#D1D1D1"/>
<path d="M0.118243 62.879L0.167615 62.97L20.7666 99.5601L62.8599 100.02L62.9113 99.9299L84.3042 63.7982L84.2549 63.7009L63.656 27.1107L21.5626 26.6512L21.5113 26.741L0.118243 62.879ZM20.9823 99.2009L0.535958 62.8836L21.7704 27.015L63.4454 27.4701L83.8911 63.7937L62.6573 99.6559L20.9823 99.2009Z" fill="#D1D1D1"/>
<path d="M-5.75536 643.247L-5.70599 643.338L14.8936 679.932L56.9862 680.391L57.0382 680.301L78.4312 644.166L78.3819 644.075L57.7823 607.482L15.6896 607.022L15.6383 607.112L-5.75536 643.247ZM15.1041 679.571L-5.33702 643.251L15.8923 607.386L57.5672 607.841L78.0077 644.161L56.7791 680.026L15.1041 679.571Z" fill="#D1D1D1"/>
<path d="M-27.1021 679.291L-27.0527 679.383L-6.45315 715.976L35.6395 716.436L35.6909 716.345L57.0845 680.21L57.0352 680.119L36.4356 643.526L-5.6571 643.066L-5.7091 643.156L-27.1021 679.291ZM-6.23808 715.616L-26.6837 679.296L-5.44995 643.432L36.225 643.887L56.6713 680.206L35.4369 716.071L-6.23808 715.616Z" fill="#D1D1D1"/>
<path d="M50.6697 858.864C50.6861 857.364 51.9157 856.161 53.4155 856.177C54.9152 856.194 56.1183 857.423 56.1019 858.923C56.0855 860.423 54.8559 861.626 53.3562 861.61C51.8564 861.593 50.6533 860.364 50.6697 858.864Z" fill="#C5C8CD"/>
<path d="M156.51 400.089C156.527 398.589 157.756 397.386 159.255 397.402C160.756 397.419 161.958 398.648 161.942 400.148C161.925 401.648 160.696 402.851 159.196 402.835C157.696 402.818 156.494 401.589 156.51 400.089Z" fill="#C5C8CD"/>
<path d="M122.481 136.765C122.498 135.267 123.727 134.066 125.227 134.083C126.727 134.099 127.93 135.326 127.913 136.824C127.897 138.328 126.667 139.529 125.168 139.512C123.668 139.496 122.465 138.269 122.481 136.765Z" fill="#C5C8CD"/>
<path d="M77.6271 677.719C76.1254 677.703 74.8977 678.904 74.8813 680.405C74.8649 681.907 76.0661 683.134 77.5678 683.151C79.0688 683.167 80.2965 681.966 80.3129 680.465C80.3292 678.963 79.1236 677.735 77.6271 677.719Z" fill="#C5C8CD"/>
<path d="M37.1287 280.945C37.1451 279.441 38.3747 278.241 39.8744 278.257C41.3742 278.273 42.5773 279.5 42.5609 281.005C42.5445 282.503 41.3149 283.703 39.8151 283.687C38.3154 283.67 37.1123 282.443 37.1287 280.945Z" fill="#C5C8CD"/>
</g>
<defs>
<clipPath id="clip0_116_1073">
<rect width="929.738" height="521.686" fill="white" transform="matrix(0.0109176 -0.99994 -0.99994 -0.0109176 263.655 935.378)"/>
</clipPath>
</defs>
</svg>
