<?xml version="1.0" encoding="utf-8"?>
<!-- Generator: Adobe Illustrator 26.0.0, SVG Export Plug-In . SVG Version: 6.00 Build 0)  -->
<svg version="1.1" id="Layer_1" xmlns="http://www.w3.org/2000/svg" xmlns:xlink="http://www.w3.org/1999/xlink" x="0px" y="0px"
	 viewBox="0 0 576.3 576.3" style="enable-background:new 0 0 576.3 576.3;" xml:space="preserve">
<style type="text/css">
	.st0{fill:#111335;}
	.st1{fill:#FFFFFF;}
	.st2{fill:#F04F2C;}
</style>
<rect x="0" y="0" class="st0" width="576.3" height="576.3"/>
<path class="st1" d="M226.1,438l24.6-51c12.4,5.6,24.2,12,36.5,16.3c18.2,7.1,38.3,7.9,57,2.5c17.4-4.3,29.5-20,29.2-37.9
	c-0.5-0.1-1-0.1-1.5,0c-37,23-74.2,20.8-109.9-1.4c-26-16.1-38.3-41.9-41.6-72c-3.5-23.1,0.3-46.6,10.8-67.5
	c18.8-34.9,49-51.8,88.3-52.9c23.5-0.6,33.2,2.5,58.3,17.9v-12.5h64.3v181.6c0,51-28.3,89.4-77.4,102.1
	c-46.5,13.1-96.4,4.5-135.8-23.4L226.1,438z M373.9,280c-0.7-22.5-19.5-40.3-42.1-39.6c-22.5,0.7-40.3,19.5-39.6,42.1
	c0.7,22.5,19.5,40.3,42.1,39.6c21.2-0.7,38.3-17.4,39.5-38.5c0.1-1.1,0.1-2.2,0-3.3V280H373.9z"/>
<path class="st1" d="M62.1,238.6H32.3v-59.4h25.5c3.9,0,5-1.2,5-5v-67h70.8v71.7H195v59.6h-60.1v54.3c0,4.5,0.5,9,1.6,13.3
	c1.6,10.1,11,17.1,21.1,15.9c8.8-1.3,17.6-3.3,26.1-5.9c2-0.7,3.9-1.4,5.8-2.3c6.1,19.2,12.2,38.1,18.6,58.3
	c-7.3,3.1-14.6,6.6-21.9,9.1c-21.8,7.2-45,8.9-67.6,4.8c-29.2-5.3-48.6-26-53.7-58.3c-1.3-8.5-2-17.1-2-25.7
	C61.9,281,62.1,260.1,62.1,238.6z"/>
<path class="st2" d="M500.2,382c-24.2,0-43.8-19.6-43.8-43.7c0-24.2,19.6-43.8,43.7-43.8c23.9,0,43.4,19.2,43.8,43.1
	c0.9,23.7-17.6,43.5-41.3,44.4l0,0C501.9,382,501,382,500.2,382z"/>
</svg>
