<svg width="288" height="247" viewBox="0 0 288 247" fill="none" xmlns="http://www.w3.org/2000/svg">
<rect width="288" height="247" rx="20" fill="#27536B"/>
<path d="M111.088 47H107.848L104.296 41.024H101.512V47H98.704V30.992H105.736C108.904 30.992 110.968 33.056 110.968 36.008C110.968 38.864 109.096 40.4 107.176 40.712L111.088 47ZM105.352 38.552C106.936 38.552 108.088 37.544 108.088 36.008C108.088 34.472 106.936 33.464 105.352 33.464H101.512V38.552H105.352ZM118.328 47.288C114.848 47.288 112.256 44.864 112.256 41.192C112.256 37.832 114.704 35.12 118.136 35.12C121.616 35.12 123.848 37.784 123.848 41.432V42.032H114.896C115.088 43.784 116.408 45.224 118.592 45.224C119.72 45.224 121.064 44.768 121.88 43.952L123.032 45.608C121.88 46.712 120.176 47.288 118.328 47.288ZM121.4 40.256C121.352 38.888 120.416 37.184 118.136 37.184C115.976 37.184 114.992 38.84 114.872 40.256H121.4ZM132.095 47H129.383L124.655 35.408H127.343L130.727 44.096L134.111 35.408H136.823L132.095 47ZM143.757 47.288C140.277 47.288 137.685 44.864 137.685 41.192C137.685 37.832 140.133 35.12 143.565 35.12C147.045 35.12 149.277 37.784 149.277 41.432V42.032H140.325C140.517 43.784 141.837 45.224 144.021 45.224C145.149 45.224 146.493 44.768 147.309 43.952L148.461 45.608C147.309 46.712 145.605 47.288 143.757 47.288ZM146.829 40.256C146.781 38.888 145.845 37.184 143.565 37.184C141.405 37.184 140.421 38.84 140.301 40.256H146.829ZM162.109 47H159.589V39.752C159.589 37.952 158.677 37.352 157.261 37.352C155.965 37.352 154.861 38.12 154.285 38.912V47H151.765V35.408H154.285V36.992C155.053 36.08 156.541 35.12 158.365 35.12C160.861 35.12 162.109 36.464 162.109 38.84V47ZM175.726 47H173.206V45.464C172.366 46.4 170.926 47.288 169.102 47.288C166.606 47.288 165.382 45.992 165.382 43.616V35.408H167.902V42.704C167.902 44.504 168.814 45.056 170.23 45.056C171.502 45.056 172.606 44.336 173.206 43.544V35.408H175.726V47ZM184.351 47.288C180.871 47.288 178.279 44.864 178.279 41.192C178.279 37.832 180.727 35.12 184.159 35.12C187.639 35.12 189.871 37.784 189.871 41.432V42.032H180.919C181.111 43.784 182.431 45.224 184.615 45.224C185.743 45.224 187.087 44.768 187.903 43.952L189.055 45.608C187.903 46.712 186.199 47.288 184.351 47.288ZM187.423 40.256C187.375 38.888 186.439 37.184 184.159 37.184C181.999 37.184 181.015 38.84 180.895 40.256H187.423Z" fill="white"/>
<path d="M81.15 216H76.78V209.33H81.15V210.07H77.61V212.22H81.08V212.96H77.61V215.26H81.15V216ZM86.2134 216H85.4634V215.45C85.0734 215.89 84.5134 216.12 83.8634 216.12C83.0534 216.12 82.1834 215.57 82.1834 214.52C82.1834 213.43 83.0434 212.93 83.8634 212.93C84.5234 212.93 85.0734 213.14 85.4634 213.58V212.71C85.4634 212.07 84.9434 211.7 84.2434 211.7C83.6634 211.7 83.1934 211.9 82.7634 212.37L82.4134 211.85C82.9334 211.31 83.5534 211.05 84.3434 211.05C85.3734 211.05 86.2134 211.51 86.2134 212.68V216ZM84.1434 215.58C84.6634 215.58 85.1734 215.38 85.4634 214.98V214.06C85.1734 213.67 84.6634 213.47 84.1434 213.47C83.4334 213.47 82.9434 213.91 82.9434 214.52C82.9434 215.14 83.4334 215.58 84.1434 215.58ZM89.2666 216.12C88.4666 216.12 87.8066 215.87 87.3166 215.36L87.6966 214.82C88.0166 215.19 88.6266 215.51 89.2866 215.51C90.0266 215.51 90.4366 215.16 90.4366 214.68C90.4366 213.51 87.4466 214.23 87.4466 212.44C87.4466 211.68 88.0866 211.05 89.2366 211.05C90.0666 211.05 90.6466 211.36 91.0266 211.75L90.6766 212.27C90.3866 211.92 89.8666 211.66 89.2366 211.66C88.5766 211.66 88.1666 211.99 88.1666 212.42C88.1666 213.47 91.1566 212.78 91.1566 214.66C91.1566 215.47 90.5066 216.12 89.2666 216.12ZM93.605 216.12C92.885 216.12 92.525 215.71 92.525 214.99V211.83H91.725V211.17H92.525V209.85H93.285V211.17H94.265V211.83H93.285V214.83C93.285 215.19 93.445 215.45 93.765 215.45C93.985 215.45 94.175 215.35 94.275 215.24L94.495 215.81C94.305 215.99 94.035 216.12 93.605 216.12Z" fill="#8BB2C8"/>
<path d="M139.78 216H138.88L137.41 210.62L135.94 216H135.04L133.14 209.33H134.06L135.54 214.89L137.07 209.33H137.76L139.29 214.89L140.76 209.33H141.69L139.78 216ZM145.948 216H145.198V215.45C144.808 215.89 144.248 216.12 143.598 216.12C142.788 216.12 141.918 215.57 141.918 214.52C141.918 213.43 142.778 212.93 143.598 212.93C144.258 212.93 144.808 213.14 145.198 213.58V212.71C145.198 212.07 144.678 211.7 143.978 211.7C143.398 211.7 142.928 211.9 142.498 212.37L142.148 211.85C142.668 211.31 143.288 211.05 144.078 211.05C145.108 211.05 145.948 211.51 145.948 212.68V216ZM143.878 215.58C144.398 215.58 144.908 215.38 145.198 214.98V214.06C144.908 213.67 144.398 213.47 143.878 213.47C143.168 213.47 142.678 213.91 142.678 214.52C142.678 215.14 143.168 215.58 143.878 215.58ZM149.001 216.12C148.201 216.12 147.541 215.87 147.051 215.36L147.431 214.82C147.751 215.19 148.361 215.51 149.021 215.51C149.761 215.51 150.171 215.16 150.171 214.68C150.171 213.51 147.181 214.23 147.181 212.44C147.181 211.68 147.821 211.05 148.971 211.05C149.801 211.05 150.381 211.36 150.761 211.75L150.411 212.27C150.121 211.92 149.601 211.66 148.971 211.66C148.311 211.66 147.901 211.99 147.901 212.42C147.901 213.47 150.891 212.78 150.891 214.66C150.891 215.47 150.241 216.12 149.001 216.12ZM153.339 216.12C152.619 216.12 152.259 215.71 152.259 214.99V211.83H151.459V211.17H152.259V209.85H153.019V211.17H153.999V211.83H153.019V214.83C153.019 215.19 153.179 215.45 153.499 215.45C153.719 215.45 153.909 215.35 154.009 215.24L154.229 215.81C154.039 215.99 153.769 216.12 153.339 216.12Z" fill="#8BB2C8"/>
<path d="M196.94 216.12C195.02 216.12 193.51 214.72 193.51 212.67C193.51 210.62 195.02 209.22 196.94 209.22C198.12 209.22 198.94 209.78 199.47 210.54L198.78 210.93C198.4 210.36 197.7 209.96 196.94 209.96C195.48 209.96 194.37 211.07 194.37 212.67C194.37 214.25 195.48 215.38 196.94 215.38C197.7 215.38 198.4 214.97 198.78 214.41L199.48 214.79C198.92 215.56 198.12 216.12 196.94 216.12ZM202.698 216.12C201.258 216.12 200.228 215.09 200.228 213.58C200.228 212.18 201.228 211.05 202.608 211.05C204.068 211.05 204.928 212.19 204.928 213.64V213.83H201.028C201.088 214.74 201.718 215.5 202.758 215.5C203.318 215.5 203.868 215.28 204.258 214.88L204.618 215.37C204.128 215.85 203.478 216.12 202.698 216.12ZM204.188 213.27C204.178 212.56 203.698 211.67 202.598 211.67C201.568 211.67 201.058 212.54 201.018 213.27H204.188ZM210.153 216H209.413V212.84C209.413 211.98 208.973 211.72 208.323 211.72C207.733 211.72 207.183 212.08 206.893 212.47V216H206.143V211.17H206.893V211.87C207.233 211.46 207.893 211.05 208.623 211.05C209.623 211.05 210.153 211.56 210.153 212.61V216ZM212.89 216.12C212.17 216.12 211.81 215.71 211.81 214.99V211.83H211.01V211.17H211.81V209.85H212.57V211.17H213.55V211.83H212.57V214.83C212.57 215.19 212.73 215.45 213.05 215.45C213.27 215.45 213.46 215.35 213.56 215.24L213.78 215.81C213.59 215.99 213.32 216.12 212.89 216.12ZM215.35 216H214.6V211.17H215.35V211.94C215.74 211.44 216.3 211.06 216.96 211.06V211.83C216.87 211.82 216.78 211.81 216.67 211.81C216.2 211.81 215.57 212.19 215.35 212.58V216ZM221.67 216H220.92V215.45C220.53 215.89 219.97 216.12 219.32 216.12C218.51 216.12 217.64 215.57 217.64 214.52C217.64 213.43 218.5 212.93 219.32 212.93C219.98 212.93 220.53 213.14 220.92 213.58V212.71C220.92 212.07 220.4 211.7 219.7 211.7C219.12 211.7 218.65 211.9 218.22 212.37L217.87 211.85C218.39 211.31 219.01 211.05 219.8 211.05C220.83 211.05 221.67 211.51 221.67 212.68V216ZM219.6 215.58C220.12 215.58 220.63 215.38 220.92 214.98V214.06C220.63 213.67 220.12 213.47 219.6 213.47C218.89 213.47 218.4 213.91 218.4 214.52C218.4 215.14 218.89 215.58 219.6 215.58ZM223.934 216H223.184V209.33H223.934V216Z" fill="#8BB2C8"/>
<rect x="64" y="209" width="8" height="8" fill="#EF4D2D"/>
<rect x="121" y="209" width="8" height="8" fill="#007DFF"/>
<rect x="181" y="209" width="8" height="8" fill="white"/>
<path d="M203.558 124.549C203.558 157.691 176.691 184.558 143.549 184.558C110.407 184.558 83.5402 157.691 83.5402 124.549C83.5402 91.4072 110.407 64.5403 143.549 64.5403C176.691 64.5403 203.558 91.4072 203.558 124.549ZM108.811 124.549C108.811 143.735 124.364 159.288 143.549 159.288C162.735 159.288 178.288 143.735 178.288 124.549C178.288 105.364 162.735 89.8108 143.549 89.8108C124.364 89.8108 108.811 105.364 108.811 124.549Z" fill="#F59814"/>
<path d="M185.982 166.982C179.811 173.153 172.369 177.903 164.174 180.903C155.979 183.902 147.228 185.078 138.532 184.348C129.836 183.619 121.404 181.001 113.823 176.678C106.242 172.356 99.6958 166.431 94.6395 159.319L115.236 144.677C118.163 148.794 121.953 152.224 126.341 154.726C130.73 157.229 135.611 158.744 140.645 159.166C145.679 159.588 150.745 158.908 155.489 157.171C160.233 155.435 164.541 152.685 168.113 149.113L185.982 166.982Z" fill="white"/>
<path d="M112.654 73.419C125.276 65.7724 140.274 63.0456 154.781 65.7597C169.288 68.4738 182.285 76.4385 191.29 88.1314C200.295 99.8243 204.674 114.425 203.593 129.144C202.511 143.863 196.043 157.666 185.426 167.917L167.874 149.737C174.02 143.803 177.764 135.812 178.39 127.292C179.016 118.771 176.481 110.319 171.268 103.55C166.056 96.781 158.531 92.1704 150.134 90.5992C141.736 89.0281 133.054 90.6066 125.747 95.0331L112.654 73.419Z" fill="#EF4D2D"/>
</svg>
