<svg width="288" height="239" viewBox="0 0 288 239" fill="none" xmlns="http://www.w3.org/2000/svg">
<rect width="288" height="239" rx="20" fill="#27536B"/>
<path d="M24.512 39H21.704V22.992H28.736C32.096 22.992 33.968 25.296 33.968 28.008C33.968 30.72 32.072 33.024 28.736 33.024H24.512V39ZM28.352 30.552C29.936 30.552 31.088 29.544 31.088 28.008C31.088 26.472 29.936 25.464 28.352 25.464H24.512V30.552H28.352ZM41.234 39.288C37.754 39.288 35.162 36.864 35.162 33.192C35.162 29.832 37.61 27.12 41.042 27.12C44.522 27.12 46.754 29.784 46.754 33.432V34.032H37.802C37.994 35.784 39.314 37.224 41.498 37.224C42.626 37.224 43.97 36.768 44.786 35.952L45.938 37.608C44.786 38.712 43.082 39.288 41.234 39.288ZM44.306 32.256C44.258 30.888 43.322 29.184 41.042 29.184C38.882 29.184 37.898 30.84 37.778 32.256H44.306ZM51.7614 39H49.2414V27.408H51.7614V29.112C52.6254 28.008 54.0174 27.144 55.5294 27.144V29.64C55.3134 29.592 55.0494 29.568 54.7374 29.568C53.6814 29.568 52.2654 30.288 51.7614 31.104V39ZM60.6817 39H58.1617V29.616H56.2417V27.408H58.1617V26.76C58.1617 24.24 59.6257 22.752 61.8337 22.752C62.8657 22.752 63.8977 23.016 64.6177 23.76L63.6337 25.32C63.2977 25.008 62.8657 24.816 62.2897 24.816C61.3057 24.816 60.6817 25.464 60.6817 26.76V27.408H63.0337V29.616H60.6817V39ZM70.1765 39.288C66.5045 39.288 64.2245 36.528 64.2245 33.192C64.2245 29.88 66.5045 27.12 70.1765 27.12C73.8965 27.12 76.1525 29.88 76.1525 33.192C76.1525 36.528 73.8965 39.288 70.1765 39.288ZM70.1765 37.056C72.3365 37.056 73.5365 35.256 73.5365 33.192C73.5365 31.152 72.3365 29.352 70.1765 29.352C68.0405 29.352 66.8405 31.152 66.8405 33.192C66.8405 35.256 68.0405 37.056 70.1765 37.056ZM81.2223 39H78.7023V27.408H81.2223V29.112C82.0863 28.008 83.4783 27.144 84.9903 27.144V29.64C84.7743 29.592 84.5103 29.568 84.1983 29.568C83.1423 29.568 81.7263 30.288 81.2223 31.104V39ZM103.751 39H101.231V31.44C101.231 30.192 100.679 29.352 99.3346 29.352C98.2066 29.352 97.1506 30.144 96.6466 30.888V39H94.1266V31.44C94.1266 30.192 93.5746 29.352 92.2066 29.352C91.1026 29.352 90.0706 30.144 89.5426 30.912V39H87.0226V27.408H89.5426V28.992C90.0226 28.272 91.5586 27.12 93.3106 27.12C95.0386 27.12 96.0946 27.984 96.4786 29.256C97.1506 28.2 98.6866 27.12 100.415 27.12C102.551 27.12 103.751 28.272 103.751 30.624V39ZM116.615 39H114.095V37.752C113.231 38.736 111.887 39.288 110.351 39.288C108.455 39.288 106.319 38.016 106.319 35.448C106.319 32.784 108.455 31.68 110.351 31.68C111.911 31.68 113.255 32.184 114.095 33.168V31.44C114.095 30.096 112.991 29.28 111.383 29.28C110.087 29.28 108.959 29.76 107.951 30.744L106.919 28.992C108.263 27.72 109.943 27.12 111.791 27.12C114.359 27.12 116.615 28.2 116.615 31.32V39ZM111.335 37.56C112.439 37.56 113.519 37.152 114.095 36.36V34.608C113.519 33.816 112.439 33.408 111.335 33.408C109.919 33.408 108.863 34.224 108.863 35.496C108.863 36.744 109.919 37.56 111.335 37.56ZM130.226 39H127.706V31.752C127.706 29.952 126.794 29.352 125.378 29.352C124.082 29.352 122.978 30.12 122.402 30.912V39H119.882V27.408H122.402V28.992C123.17 28.08 124.658 27.12 126.482 27.12C128.978 27.12 130.226 28.464 130.226 30.84V39ZM138.779 39.288C135.251 39.288 132.779 36.72 132.779 33.192C132.779 29.688 135.251 27.12 138.779 27.12C141.035 27.12 142.403 28.08 143.219 29.184L141.563 30.72C140.915 29.808 140.027 29.352 138.899 29.352C136.787 29.352 135.395 30.936 135.395 33.192C135.395 35.448 136.787 37.056 138.899 37.056C140.027 37.056 140.915 36.576 141.563 35.688L143.219 37.224C142.403 38.328 141.035 39.288 138.779 39.288ZM150.781 39.288C147.301 39.288 144.709 36.864 144.709 33.192C144.709 29.832 147.157 27.12 150.589 27.12C154.069 27.12 156.301 29.784 156.301 33.432V34.032H147.349C147.541 35.784 148.861 37.224 151.045 37.224C152.173 37.224 153.517 36.768 154.333 35.952L155.485 37.608C154.333 38.712 152.629 39.288 150.781 39.288ZM153.853 32.256C153.805 30.888 152.869 29.184 150.589 29.184C148.429 29.184 147.445 30.84 147.325 32.256H153.853Z" fill="white"/>
<path d="M22.576 140.192C20.224 140.192 18.752 138.368 18.752 136.128C18.752 133.888 20.224 132.08 22.576 132.08C24.928 132.08 26.4 133.888 26.4 136.128C26.4 138.368 24.928 140.192 22.576 140.192ZM22.576 139.12C24.224 139.12 25.136 137.712 25.136 136.128C25.136 134.56 24.224 133.152 22.576 133.152C20.928 133.152 20.016 134.56 20.016 136.128C20.016 137.712 20.928 139.12 22.576 139.12ZM29.5563 140H28.3563V132.272H29.5563V133.504C30.1803 132.704 31.0763 132.096 32.1323 132.096V133.328C31.9883 133.312 31.8443 133.296 31.6683 133.296C30.9163 133.296 29.9083 133.904 29.5563 134.528V140ZM36.7415 143.136C35.4455 143.136 34.5495 142.88 33.6215 141.968L34.2295 141.104C34.8695 141.856 35.6375 142.144 36.7415 142.144C38.0215 142.144 39.2375 141.52 39.2375 139.888V138.72C38.6615 139.504 37.7175 140.096 36.6295 140.096C34.6135 140.096 33.1895 138.592 33.1895 136.096C33.1895 133.616 34.5975 132.08 36.6295 132.08C37.6695 132.08 38.6135 132.592 39.2375 133.44V132.272H40.4375V139.888C40.4375 142.336 38.6295 143.136 36.7415 143.136ZM36.9335 139.024C37.8775 139.024 38.8055 138.448 39.2375 137.776V134.384C38.8055 133.728 37.8775 133.152 36.9335 133.152C35.3655 133.152 34.4375 134.384 34.4375 136.096C34.4375 137.792 35.3655 139.024 36.9335 139.024ZM50.7893 140.192C49.7333 140.192 48.8213 139.68 48.1813 138.832V142.944H46.9813V132.272H48.1813V133.424C48.7413 132.64 49.7013 132.08 50.7893 132.08C52.8213 132.08 54.2292 133.616 54.2292 136.128C54.2292 138.624 52.8213 140.192 50.7893 140.192ZM50.4852 139.12C52.0373 139.12 52.9653 137.84 52.9653 136.128C52.9653 134.416 52.0373 133.152 50.4852 133.152C49.5413 133.152 48.5973 133.712 48.1813 134.384V137.872C48.5973 138.544 49.5413 139.12 50.4852 139.12ZM59.6415 140.192C57.3375 140.192 55.6895 138.544 55.6895 136.128C55.6895 133.888 57.2895 132.08 59.4975 132.08C61.8335 132.08 63.2095 133.904 63.2095 136.224V136.528H56.9695C57.0655 137.984 58.0735 139.2 59.7375 139.2C60.6335 139.2 61.5135 138.848 62.1375 138.208L62.7135 138.992C61.9295 139.76 60.8895 140.192 59.6415 140.192ZM62.0255 135.632C62.0095 134.496 61.2415 133.072 59.4815 133.072C57.8335 133.072 57.0175 134.464 56.9535 135.632H62.0255ZM66.3531 140H65.1531V132.272H66.3531V133.504C66.9771 132.704 67.8731 132.096 68.9291 132.096V133.328C68.7851 133.312 68.6411 133.296 68.4651 133.296C67.7131 133.296 66.7051 133.904 66.3531 134.528V140ZM71.9704 140H70.7704V133.328H69.4904V132.272H70.7704V131.68C70.7704 130.096 71.6504 129.168 73.0104 129.168C73.6344 129.168 74.1624 129.312 74.6424 129.76L74.1464 130.528C73.8904 130.304 73.5864 130.16 73.2024 130.16C72.4024 130.16 71.9704 130.688 71.9704 131.68V132.272H73.5384V133.328H71.9704V140ZM78.3573 140.192C76.0053 140.192 74.5333 138.368 74.5333 136.128C74.5333 133.888 76.0053 132.08 78.3573 132.08C80.7093 132.08 82.1813 133.888 82.1813 136.128C82.1813 138.368 80.7093 140.192 78.3573 140.192ZM78.3573 139.12C80.0053 139.12 80.9173 137.712 80.9173 136.128C80.9173 134.56 80.0053 133.152 78.3573 133.152C76.7093 133.152 75.7973 134.56 75.7973 136.128C75.7973 137.712 76.7093 139.12 78.3573 139.12ZM85.3375 140H84.1375V132.272H85.3375V133.504C85.9615 132.704 86.8575 132.096 87.9135 132.096V133.328C87.7695 133.312 87.6255 133.296 87.4495 133.296C86.6975 133.296 85.6895 133.904 85.3375 134.528V140ZM99.9468 140H98.7468V134.752C98.7468 133.776 98.3308 133.152 97.3228 133.152C96.5228 133.152 95.6748 133.712 95.2748 134.336V140H94.0748V134.752C94.0748 133.776 93.6748 133.152 92.6508 133.152C91.8668 133.152 91.0348 133.728 90.6188 134.352V140H89.4188V132.272H90.6188V133.392C90.9548 132.896 91.9788 132.08 93.1308 132.08C94.2988 132.08 94.9708 132.72 95.1948 133.52C95.6268 132.816 96.6667 132.08 97.7868 132.08C99.1948 132.08 99.9468 132.864 99.9468 134.416V140ZM108.373 140H107.173V139.12C106.549 139.824 105.653 140.192 104.613 140.192C103.317 140.192 101.925 139.312 101.925 137.632C101.925 135.888 103.301 135.088 104.613 135.088C105.669 135.088 106.549 135.424 107.173 136.128V134.736C107.173 133.712 106.341 133.12 105.221 133.12C104.293 133.12 103.541 133.44 102.853 134.192L102.293 133.36C103.125 132.496 104.117 132.08 105.381 132.08C107.029 132.08 108.373 132.816 108.373 134.688V140ZM105.061 139.328C105.893 139.328 106.709 139.008 107.173 138.368V136.896C106.709 136.272 105.893 135.952 105.061 135.952C103.925 135.952 103.141 136.656 103.141 137.632C103.141 138.624 103.925 139.328 105.061 139.328ZM117.21 140H116.026V134.944C116.026 133.568 115.322 133.152 114.282 133.152C113.338 133.152 112.458 133.728 111.994 134.352V140H110.794V132.272H111.994V133.392C112.538 132.736 113.594 132.08 114.762 132.08C116.362 132.08 117.21 132.896 117.21 134.576V140ZM123.03 140.192C120.726 140.192 119.174 138.416 119.174 136.128C119.174 133.84 120.726 132.08 123.03 132.08C124.438 132.08 125.27 132.656 125.862 133.424L125.062 134.144C124.55 133.44 123.894 133.152 123.094 133.152C121.462 133.152 120.422 134.416 120.422 136.128C120.422 137.84 121.462 139.12 123.094 139.12C123.894 139.12 124.55 138.8 125.062 138.112L125.862 138.848C125.27 139.616 124.438 140.192 123.03 140.192ZM131.063 140.192C128.759 140.192 127.111 138.544 127.111 136.128C127.111 133.888 128.711 132.08 130.919 132.08C133.255 132.08 134.631 133.904 134.631 136.224V136.528H128.391C128.487 137.984 129.495 139.2 131.159 139.2C132.055 139.2 132.935 138.848 133.559 138.208L134.135 138.992C133.351 139.76 132.311 140.192 131.063 140.192ZM133.447 135.632C133.431 134.496 132.663 133.072 130.903 133.072C129.255 133.072 128.439 134.464 128.375 135.632H133.447Z" fill="#8BB2C8"/>
<path d="M24.852 74.264C22.366 74.264 20.54 73.164 19.638 71.844L20.716 70.7C21.574 71.844 23.07 72.636 24.808 72.636C26.942 72.636 28.24 71.558 28.24 69.886C28.24 68.06 26.744 67.29 24.588 67.29C23.972 67.29 23.29 67.29 23.07 67.312V65.64C23.312 65.662 23.994 65.662 24.588 65.662C26.436 65.662 27.998 64.936 27.998 63.242C27.998 61.614 26.502 60.734 24.72 60.734C23.114 60.734 21.926 61.35 20.848 62.516L19.836 61.372C20.892 60.074 22.586 59.106 24.874 59.106C27.69 59.106 29.824 60.536 29.824 63C29.824 65.134 28.042 66.19 26.678 66.41C27.998 66.542 30.066 67.664 30.066 70.04C30.066 72.482 28.086 74.264 24.852 74.264ZM40.7501 74H38.9241V70.282H31.9501V68.764L38.2421 59.326H40.7501V68.676H42.8181V70.282H40.7501V74ZM38.9241 68.676V61.02L33.7761 68.676H38.9241ZM49.3657 74.264C46.8797 74.264 45.0537 73.164 44.1517 71.844L45.2297 70.7C46.0877 71.844 47.5837 72.636 49.3217 72.636C51.4557 72.636 52.7537 71.558 52.7537 69.886C52.7537 68.06 51.2577 67.29 49.1017 67.29C48.4857 67.29 47.8037 67.29 47.5837 67.312V65.64C47.8257 65.662 48.5077 65.662 49.1017 65.662C50.9497 65.662 52.5117 64.936 52.5117 63.242C52.5117 61.614 51.0157 60.734 49.2337 60.734C47.6277 60.734 46.4397 61.35 45.3617 62.516L44.3497 61.372C45.4057 60.074 47.0997 59.106 49.3877 59.106C52.2037 59.106 54.3377 60.536 54.3377 63C54.3377 65.134 52.5557 66.19 51.1917 66.41C52.5117 66.542 54.5797 67.664 54.5797 70.04C54.5797 72.482 52.5997 74.264 49.3657 74.264Z" fill="white"/>
<path d="M24.918 175.242C23.048 175.242 21.772 174.516 20.848 173.482L21.772 172.118C22.52 172.998 23.4 173.614 24.918 173.614C27.888 173.614 29.054 170.644 29.054 167.85C29.054 167.674 29.054 167.476 29.032 167.278C28.394 168.29 26.766 169.566 24.896 169.566C22.256 169.566 20.078 168.004 20.078 164.88C20.078 162.35 22.014 160.084 25.226 160.084C29.318 160.084 30.902 163.67 30.902 167.674C30.902 171.634 29.032 175.242 24.918 175.242ZM25.314 167.982C26.766 167.982 28.196 167.08 28.988 165.782C28.812 163.978 27.844 161.712 25.292 161.712C23.048 161.712 21.926 163.406 21.926 164.814C21.926 166.97 23.422 167.982 25.314 167.982ZM37.74 175H35.914V162.724L33.56 165.232L32.46 164.11L36.134 160.326H37.74V175ZM46.1851 175.264C42.1591 175.264 40.5751 171.238 40.5751 167.674C40.5751 164.088 42.1591 160.106 46.1851 160.106C50.1891 160.106 51.7951 164.088 51.7951 167.674C51.7951 171.238 50.1891 175.264 46.1851 175.264ZM46.1851 173.636C48.9791 173.636 49.9251 170.6 49.9251 167.674C49.9251 164.748 48.9791 161.734 46.1851 161.734C43.3911 161.734 42.4451 164.748 42.4451 167.674C42.4451 170.6 43.3911 173.636 46.1851 173.636Z" fill="white"/>
<rect x="18" y="83" width="130" height="7" rx="3.5" fill="#F04F2C"/>
<rect x="18" y="184" width="130" height="7" rx="3.5" fill="white"/>
<rect x="18" y="103" width="185" height="5" rx="2.5" fill="white"/>
<path d="M18 203.5C18 202.119 19.1193 201 20.5 201H200.5C201.881 201 203 202.119 203 203.5V203.5C203 204.881 201.881 206 200.5 206H20.5C19.1193 206 18 204.881 18 203.5V203.5Z" fill="white"/>
<rect x="18" y="201" width="118" height="5" rx="2.5" fill="#36EE08"/>
</svg>
