<svg width="73" height="56" viewBox="0 0 73 56" fill="none" xmlns="http://www.w3.org/2000/svg">
<path d="M5 28L5 12.36C5 9.78354 5 8.49646 5.5014 7.51252C5.94254 6.6468 6.64543 5.94208 7.51115 5.50094C8.49417 5 9.78171 5 12.3531 5L20.6469 5C23.2183 5 24.504 5 25.487 5.50094C26.3527 5.94208 27.0579 6.64727 27.4991 7.51299C28 8.49601 28 9.7817 28 12.3531L28 20.6469C28 23.2183 28 24.5058 27.4991 25.4889C27.0579 26.3546 26.3532 27.0575 25.4875 27.4986C24.5035 28 23.2165 28 20.64 28L5 28ZM5 28L5 37.2C5 44.8215 11.1783 51 18.8 51" stroke="#8F34FF" stroke-width="9.2" stroke-linecap="round" stroke-linejoin="round"/>
<path d="M45 28L45 12.36C45 9.78354 45 8.49646 45.5014 7.51252C45.9425 6.6468 46.6454 5.94208 47.5111 5.50094C48.4942 5 49.7817 5 52.3531 5L60.6469 5C63.2183 5 64.504 5 65.487 5.50094C66.3527 5.94208 67.0579 6.64727 67.4991 7.51299C68 8.49601 68 9.7817 68 12.3531L68 20.6469C68 23.2183 68 24.5058 67.4991 25.4889C67.0579 26.3546 66.3532 27.0575 65.4875 27.4986C64.5035 28 63.2165 28 60.64 28L45 28ZM45 28L45 37.2C45 44.8215 51.1783 51 58.8 51" stroke="#8F34FF" stroke-width="9.2" stroke-linecap="round" stroke-linejoin="round"/>
</svg>
