<svg width="314" height="170" viewBox="0 0 314 170" fill="none" xmlns="http://www.w3.org/2000/svg">
<path d="M18.754 103.108C17.107 103.108 16.459 101.461 16.459 100.003C16.459 98.536 17.107 96.907 18.754 96.907C20.392 96.907 21.049 98.536 21.049 100.003C21.049 101.461 20.392 103.108 18.754 103.108ZM18.754 102.442C19.897 102.442 20.284 101.2 20.284 100.003C20.284 98.806 19.897 97.573 18.754 97.573C17.611 97.573 17.224 98.806 17.224 100.003C17.224 101.2 17.611 102.442 18.754 102.442Z" fill="#82B6BA"/>
<path d="M20 86.5V91" stroke="white"/>
<rect width="314" height="170" rx="20" fill="#27536B"/>
<path d="M26.676 42.288C23.724 42.288 21.588 41.256 20.172 39.744L21.732 37.584C22.836 38.76 24.564 39.792 26.796 39.792C29.1 39.792 30.012 38.664 30.012 37.608C30.012 34.248 20.676 36.336 20.676 30.432C20.676 27.792 23.004 25.752 26.508 25.752C29.004 25.752 31.02 26.544 32.508 27.984L30.9 30.072C29.652 28.824 27.948 28.248 26.268 28.248C24.612 28.248 23.556 29.04 23.556 30.24C23.556 33.216 32.868 31.368 32.868 37.344C32.868 40.008 30.996 42.288 26.676 42.288ZM44.982 42H42.462V40.752C41.598 41.736 40.254 42.288 38.718 42.288C36.822 42.288 34.686 41.016 34.686 38.448C34.686 35.784 36.822 34.68 38.718 34.68C40.278 34.68 41.622 35.184 42.462 36.168V34.44C42.462 33.096 41.358 32.28 39.75 32.28C38.454 32.28 37.326 32.76 36.318 33.744L35.286 31.992C36.63 30.72 38.31 30.12 40.158 30.12C42.726 30.12 44.982 31.2 44.982 34.32V42ZM39.702 40.56C40.806 40.56 41.886 40.152 42.462 39.36V37.608C41.886 36.816 40.806 36.408 39.702 36.408C38.286 36.408 37.23 37.224 37.23 38.496C37.23 39.744 38.286 40.56 39.702 40.56ZM50.7692 42H48.2492V25.992H50.7692V42ZM59.3903 42.288C55.9103 42.288 53.3183 39.864 53.3183 36.192C53.3183 32.832 55.7663 30.12 59.1983 30.12C62.6783 30.12 64.9103 32.784 64.9103 36.432V37.032H55.9583C56.1503 38.784 57.4703 40.224 59.6543 40.224C60.7823 40.224 62.1263 39.768 62.9423 38.952L64.0943 40.608C62.9423 41.712 61.2383 42.288 59.3903 42.288ZM62.4623 35.256C62.4143 33.888 61.4783 32.184 59.1983 32.184C57.0383 32.184 56.0543 33.84 55.9342 35.256H62.4623ZM71.3576 42.288C69.3896 42.288 67.5896 41.664 66.3896 40.488L67.5416 38.664C68.3576 39.504 69.9656 40.296 71.4776 40.296C72.9896 40.296 73.7576 39.648 73.7576 38.736C73.7576 36.456 66.7496 38.088 66.7496 33.648C66.7496 31.752 68.3816 30.12 71.3096 30.12C73.2776 30.12 74.7656 30.816 75.8216 31.752L74.7656 33.528C74.0696 32.736 72.7736 32.136 71.3336 32.136C70.0136 32.136 69.1736 32.736 69.1736 33.552C69.1736 35.616 76.1816 34.08 76.1816 38.688C76.1816 40.728 74.4776 42.288 71.3576 42.288Z" fill="white"/>
<path d="M38.709 103.108C37.701 103.108 37.044 102.739 36.594 102.145L37.053 101.641C37.449 102.154 37.98 102.442 38.709 102.442C39.528 102.442 40.095 101.884 40.095 101.155C40.095 100.363 39.528 99.859 38.718 99.859C38.196 99.859 37.737 100.03 37.332 100.417L36.783 100.228V96.997H40.455V97.663H37.53V99.751C37.827 99.463 38.331 99.211 38.934 99.211C39.942 99.211 40.851 99.886 40.851 101.128C40.851 102.343 39.915 103.108 38.709 103.108ZM44.0626 103.108C42.4156 103.108 41.7676 101.461 41.7676 100.003C41.7676 98.536 42.4156 96.907 44.0626 96.907C45.7006 96.907 46.3576 98.536 46.3576 100.003C46.3576 101.461 45.7006 103.108 44.0626 103.108ZM44.0626 102.442C45.2056 102.442 45.5926 101.2 45.5926 100.003C45.5926 98.806 45.2056 97.573 44.0626 97.573C42.9196 97.573 42.5326 98.806 42.5326 100.003C42.5326 101.2 42.9196 102.442 44.0626 102.442ZM51.3193 103H50.4553L48.8983 101.047L48.1693 101.758V103H47.4943V96.997H48.1693V100.966L50.4553 98.653H51.3103L49.3843 100.624L51.3193 103Z" fill="#8BB2C8"/>
<path d="M66.349 103H65.602V97.978L64.639 99.004L64.189 98.545L65.692 96.997H66.349V103ZM69.8038 103.108C68.1568 103.108 67.5088 101.461 67.5088 100.003C67.5088 98.536 68.1568 96.907 69.8038 96.907C71.4418 96.907 72.0988 98.536 72.0988 100.003C72.0988 101.461 71.4418 103.108 69.8038 103.108ZM69.8038 102.442C70.9468 102.442 71.3338 101.2 71.3338 100.003C71.3338 98.806 70.9468 97.573 69.8038 97.573C68.6608 97.573 68.2738 98.806 68.2738 100.003C68.2738 101.2 68.6608 102.442 69.8038 102.442ZM75.3145 103.108C73.6675 103.108 73.0195 101.461 73.0195 100.003C73.0195 98.536 73.6675 96.907 75.3145 96.907C76.9525 96.907 77.6095 98.536 77.6095 100.003C77.6095 101.461 76.9525 103.108 75.3145 103.108ZM75.3145 102.442C76.4575 102.442 76.8445 101.2 76.8445 100.003C76.8445 98.806 76.4575 97.573 75.3145 97.573C74.1715 97.573 73.7845 98.806 73.7845 100.003C73.7845 101.2 74.1715 102.442 75.3145 102.442ZM82.5713 103H81.7073L80.1503 101.047L79.4213 101.758V103H78.7463V96.997H79.4213V100.966L81.7073 98.653H82.5623L80.6363 100.624L82.5713 103Z" fill="#8BB2C8"/>
<path d="M95.349 103H94.602V97.978L93.639 99.004L93.189 98.545L94.692 96.997H95.349V103ZM98.7588 103.108C97.7508 103.108 97.0938 102.739 96.6438 102.145L97.1028 101.641C97.4988 102.154 98.0298 102.442 98.7588 102.442C99.5778 102.442 100.145 101.884 100.145 101.155C100.145 100.363 99.5778 99.859 98.7678 99.859C98.2458 99.859 97.7868 100.03 97.3818 100.417L96.8328 100.228V96.997H100.505V97.663H97.5798V99.751C97.8768 99.463 98.3808 99.211 98.9838 99.211C99.9918 99.211 100.901 99.886 100.901 101.128C100.901 102.343 99.9648 103.108 98.7588 103.108ZM104.112 103.108C102.465 103.108 101.817 101.461 101.817 100.003C101.817 98.536 102.465 96.907 104.112 96.907C105.75 96.907 106.407 98.536 106.407 100.003C106.407 101.461 105.75 103.108 104.112 103.108ZM104.112 102.442C105.255 102.442 105.642 101.2 105.642 100.003C105.642 98.806 105.255 97.573 104.112 97.573C102.969 97.573 102.582 98.806 102.582 100.003C102.582 101.2 102.969 102.442 104.112 102.442ZM111.369 103H110.505L108.948 101.047L108.219 101.758V103H107.544V96.997H108.219V100.966L110.505 98.653H111.36L109.434 100.624L111.369 103Z" fill="#8BB2C8"/>
<path d="M122.608 103H118.486V102.397C120.646 100.705 121.825 99.706 121.825 98.671C121.825 97.897 121.186 97.573 120.565 97.573C119.845 97.573 119.287 97.879 118.936 98.329L118.477 97.852C118.936 97.24 119.719 96.907 120.565 96.907C121.564 96.907 122.581 97.474 122.581 98.671C122.581 99.895 121.339 101.011 119.665 102.334H122.608V103ZM126.045 103.108C124.398 103.108 123.75 101.461 123.75 100.003C123.75 98.536 124.398 96.907 126.045 96.907C127.683 96.907 128.34 98.536 128.34 100.003C128.34 101.461 127.683 103.108 126.045 103.108ZM126.045 102.442C127.188 102.442 127.575 101.2 127.575 100.003C127.575 98.806 127.188 97.573 126.045 97.573C124.902 97.573 124.515 98.806 124.515 100.003C124.515 101.2 124.902 102.442 126.045 102.442ZM131.556 103.108C129.909 103.108 129.261 101.461 129.261 100.003C129.261 98.536 129.909 96.907 131.556 96.907C133.194 96.907 133.851 98.536 133.851 100.003C133.851 101.461 133.194 103.108 131.556 103.108ZM131.556 102.442C132.699 102.442 133.086 101.2 133.086 100.003C133.086 98.806 132.699 97.573 131.556 97.573C130.413 97.573 130.026 98.806 130.026 100.003C130.026 101.2 130.413 102.442 131.556 102.442ZM138.812 103H137.949L136.392 101.047L135.663 101.758V103H134.988V96.997H135.663V100.966L137.949 98.653H138.804L136.878 100.624L138.812 103Z" fill="#8BB2C8"/>
<path d="M128.94 141.12C127.02 141.12 125.51 139.72 125.51 137.67C125.51 135.62 127.02 134.22 128.94 134.22C130.12 134.22 130.94 134.78 131.47 135.54L130.78 135.93C130.4 135.36 129.7 134.96 128.94 134.96C127.48 134.96 126.37 136.07 126.37 137.67C126.37 139.25 127.48 140.38 128.94 140.38C129.7 140.38 130.4 139.97 130.78 139.41L131.48 139.79C130.92 140.56 130.12 141.12 128.94 141.12ZM134.618 141.12C133.148 141.12 132.228 139.98 132.228 138.58C132.228 137.18 133.148 136.05 134.618 136.05C136.088 136.05 137.008 137.18 137.008 138.58C137.008 139.98 136.088 141.12 134.618 141.12ZM134.618 140.45C135.648 140.45 136.218 139.57 136.218 138.58C136.218 137.6 135.648 136.72 134.618 136.72C133.588 136.72 133.018 137.6 133.018 138.58C133.018 139.57 133.588 140.45 134.618 140.45ZM144.81 141H144.06V137.72C144.06 137.11 143.8 136.72 143.17 136.72C142.67 136.72 142.14 137.07 141.89 137.46V141H141.14V137.72C141.14 137.11 140.89 136.72 140.25 136.72C139.76 136.72 139.24 137.08 138.98 137.47V141H138.23V136.17H138.98V136.87C139.19 136.56 139.83 136.05 140.55 136.05C141.28 136.05 141.7 136.45 141.84 136.95C142.11 136.51 142.76 136.05 143.46 136.05C144.34 136.05 144.81 136.54 144.81 137.51V141ZM148.687 141.12C148.027 141.12 147.457 140.8 147.057 140.27V142.84H146.307V136.17H147.057V136.89C147.407 136.4 148.007 136.05 148.687 136.05C149.957 136.05 150.837 137.01 150.837 138.58C150.837 140.14 149.957 141.12 148.687 141.12ZM148.497 140.45C149.467 140.45 150.047 139.65 150.047 138.58C150.047 137.51 149.467 136.72 148.497 136.72C147.907 136.72 147.317 137.07 147.057 137.49V139.67C147.317 140.09 147.907 140.45 148.497 140.45ZM152.779 141H152.029V134.33H152.779V141ZM156.465 141.12C155.025 141.12 153.995 140.09 153.995 138.58C153.995 137.18 154.995 136.05 156.375 136.05C157.835 136.05 158.695 137.19 158.695 138.64V138.83H154.795C154.855 139.74 155.485 140.5 156.525 140.5C157.085 140.5 157.635 140.28 158.025 139.88L158.385 140.37C157.895 140.85 157.245 141.12 156.465 141.12ZM157.955 138.27C157.945 137.56 157.465 136.67 156.365 136.67C155.335 136.67 154.825 137.54 154.785 138.27H157.955ZM161.14 141.12C160.42 141.12 160.06 140.71 160.06 139.99V136.83H159.26V136.17H160.06V134.85H160.82V136.17H161.8V136.83H160.82V139.83C160.82 140.19 160.98 140.45 161.3 140.45C161.52 140.45 161.71 140.35 161.81 140.24L162.03 140.81C161.84 140.99 161.57 141.12 161.14 141.12ZM165.04 141.12C163.6 141.12 162.57 140.09 162.57 138.58C162.57 137.18 163.57 136.05 164.95 136.05C166.41 136.05 167.27 137.19 167.27 138.64V138.83H163.37C163.43 139.74 164.06 140.5 165.1 140.5C165.66 140.5 166.21 140.28 166.6 139.88L166.96 140.37C166.47 140.85 165.82 141.12 165.04 141.12ZM166.53 138.27C166.52 137.56 166.04 136.67 164.94 136.67C163.91 136.67 163.4 137.54 163.36 138.27H166.53ZM172.734 141H171.984V140.28C171.624 140.77 171.034 141.12 170.354 141.12C169.094 141.12 168.204 140.16 168.204 138.59C168.204 137.04 169.094 136.05 170.354 136.05C171.004 136.05 171.594 136.37 171.984 136.9V134.33H172.734V141ZM170.544 140.45C171.134 140.45 171.724 140.1 171.984 139.68V137.5C171.724 137.08 171.134 136.72 170.544 136.72C169.564 136.72 168.984 137.52 168.984 138.59C168.984 139.66 169.564 140.45 170.544 140.45ZM179.334 141H178.504V135.07H176.394V134.33H181.454V135.07H179.334V141ZM185.35 141H184.6V140.45C184.21 140.89 183.65 141.12 183 141.12C182.19 141.12 181.32 140.57 181.32 139.52C181.32 138.43 182.18 137.93 183 137.93C183.66 137.93 184.21 138.14 184.6 138.58V137.71C184.6 137.07 184.08 136.7 183.38 136.7C182.8 136.7 182.33 136.9 181.9 137.37L181.55 136.85C182.07 136.31 182.69 136.05 183.48 136.05C184.51 136.05 185.35 136.51 185.35 137.68V141ZM183.28 140.58C183.8 140.58 184.31 140.38 184.6 139.98V139.06C184.31 138.67 183.8 138.47 183.28 138.47C182.57 138.47 182.08 138.91 182.08 139.52C182.08 140.14 182.57 140.58 183.28 140.58ZM187.613 141H186.863V136.17H187.613V136.94C188.003 136.44 188.563 136.06 189.223 136.06V136.83C189.133 136.82 189.043 136.81 188.933 136.81C188.463 136.81 187.833 137.19 187.613 137.58V141ZM192.104 142.96C191.294 142.96 190.734 142.8 190.154 142.23L190.534 141.69C190.934 142.16 191.414 142.34 192.104 142.34C192.904 142.34 193.664 141.95 193.664 140.93V140.2C193.304 140.69 192.714 141.06 192.034 141.06C190.774 141.06 189.884 140.12 189.884 138.56C189.884 137.01 190.764 136.05 192.034 136.05C192.684 136.05 193.274 136.37 193.664 136.9V136.17H194.414V140.93C194.414 142.46 193.284 142.96 192.104 142.96ZM192.224 140.39C192.814 140.39 193.394 140.03 193.664 139.61V137.49C193.394 137.08 192.814 136.72 192.224 136.72C191.244 136.72 190.664 137.49 190.664 138.56C190.664 139.62 191.244 140.39 192.224 140.39ZM198.106 141.12C196.666 141.12 195.636 140.09 195.636 138.58C195.636 137.18 196.636 136.05 198.016 136.05C199.476 136.05 200.336 137.19 200.336 138.64V138.83H196.436C196.496 139.74 197.126 140.5 198.166 140.5C198.726 140.5 199.276 140.28 199.666 139.88L200.026 140.37C199.536 140.85 198.886 141.12 198.106 141.12ZM199.596 138.27C199.586 137.56 199.106 136.67 198.006 136.67C196.976 136.67 196.466 137.54 196.426 138.27H199.596ZM202.781 141.12C202.061 141.12 201.701 140.71 201.701 139.99V136.83H200.901V136.17H201.701V134.85H202.461V136.17H203.441V136.83H202.461V139.83C202.461 140.19 202.621 140.45 202.941 140.45C203.161 140.45 203.351 140.35 203.451 140.24L203.671 140.81C203.481 140.99 203.211 141.12 202.781 141.12Z" fill="#8BB2C8"/>
<path d="M233.31 141H232.48V135.39L230.22 141H229.88L227.61 135.39V141H226.78V134.33H227.97L230.05 139.47L232.12 134.33H233.31V141ZM238.606 141H237.856V140.45C237.466 140.89 236.906 141.12 236.256 141.12C235.446 141.12 234.576 140.57 234.576 139.52C234.576 138.43 235.436 137.93 236.256 137.93C236.916 137.93 237.466 138.14 237.856 138.58V137.71C237.856 137.07 237.336 136.7 236.636 136.7C236.056 136.7 235.586 136.9 235.156 137.37L234.806 136.85C235.326 136.31 235.946 136.05 236.736 136.05C237.766 136.05 238.606 136.51 238.606 137.68V141ZM236.536 140.58C237.056 140.58 237.566 140.38 237.856 139.98V139.06C237.566 138.67 237.056 138.47 236.536 138.47C235.826 138.47 235.336 138.91 235.336 139.52C235.336 140.14 235.826 140.58 236.536 140.58ZM244.119 141H243.259L241.799 139.02L240.349 141H239.489L241.339 138.52L239.589 136.17H240.459L241.799 138.01L243.149 136.17H244.009L242.259 138.52L244.119 141ZM245.372 135.48C245.092 135.48 244.862 135.26 244.862 134.98C244.862 134.7 245.092 134.47 245.372 134.47C245.652 134.47 245.872 134.7 245.872 134.98C245.872 135.26 245.652 135.48 245.372 135.48ZM245.742 141H244.992V136.17H245.742V141ZM253.818 141H253.068V137.72C253.068 137.11 252.808 136.72 252.178 136.72C251.678 136.72 251.148 137.07 250.898 137.46V141H250.148V137.72C250.148 137.11 249.898 136.72 249.258 136.72C248.768 136.72 248.248 137.08 247.988 137.47V141H247.238V136.17H247.988V136.87C248.198 136.56 248.838 136.05 249.558 136.05C250.288 136.05 250.708 136.45 250.848 136.95C251.118 136.51 251.768 136.05 252.468 136.05C253.348 136.05 253.818 136.54 253.818 137.51V141ZM259.324 141H258.574V140.32C258.204 140.74 257.574 141.12 256.854 141.12C255.844 141.12 255.314 140.62 255.314 139.58V136.17H256.064V139.35C256.064 140.2 256.494 140.45 257.154 140.45C257.734 140.45 258.294 140.11 258.574 139.72V136.17H259.324V141ZM267.402 141H266.652V137.72C266.652 137.11 266.392 136.72 265.762 136.72C265.262 136.72 264.732 137.07 264.482 137.46V141H263.732V137.72C263.732 137.11 263.482 136.72 262.842 136.72C262.352 136.72 261.832 137.08 261.572 137.47V141H260.822V136.17H261.572V136.87C261.782 136.56 262.422 136.05 263.142 136.05C263.872 136.05 264.292 136.45 264.432 136.95C264.702 136.51 265.352 136.05 266.052 136.05C266.932 136.05 267.402 136.54 267.402 137.51V141ZM273.996 141H273.166V135.07H271.056V134.33H276.116V135.07H273.996V141ZM280.012 141H279.262V140.45C278.872 140.89 278.312 141.12 277.662 141.12C276.852 141.12 275.982 140.57 275.982 139.52C275.982 138.43 276.842 137.93 277.662 137.93C278.322 137.93 278.872 138.14 279.262 138.58V137.71C279.262 137.07 278.742 136.7 278.042 136.7C277.462 136.7 276.992 136.9 276.562 137.37L276.212 136.85C276.732 136.31 277.352 136.05 278.142 136.05C279.172 136.05 280.012 136.51 280.012 137.68V141ZM277.942 140.58C278.462 140.58 278.972 140.38 279.262 139.98V139.06C278.972 138.67 278.462 138.47 277.942 138.47C277.232 138.47 276.742 138.91 276.742 139.52C276.742 140.14 277.232 140.58 277.942 140.58ZM282.275 141H281.525V136.17H282.275V136.94C282.665 136.44 283.225 136.06 283.885 136.06V136.83C283.795 136.82 283.705 136.81 283.595 136.81C283.125 136.81 282.495 137.19 282.275 137.58V141ZM286.766 142.96C285.956 142.96 285.396 142.8 284.816 142.23L285.196 141.69C285.596 142.16 286.076 142.34 286.766 142.34C287.566 142.34 288.326 141.95 288.326 140.93V140.2C287.966 140.69 287.376 141.06 286.696 141.06C285.436 141.06 284.546 140.12 284.546 138.56C284.546 137.01 285.426 136.05 286.696 136.05C287.346 136.05 287.936 136.37 288.326 136.9V136.17H289.076V140.93C289.076 142.46 287.946 142.96 286.766 142.96ZM286.886 140.39C287.476 140.39 288.056 140.03 288.326 139.61V137.49C288.056 137.08 287.476 136.72 286.886 136.72C285.906 136.72 285.326 137.49 285.326 138.56C285.326 139.62 285.906 140.39 286.886 140.39ZM292.768 141.12C291.328 141.12 290.298 140.09 290.298 138.58C290.298 137.18 291.298 136.05 292.678 136.05C294.138 136.05 294.998 137.19 294.998 138.64V138.83H291.098C291.158 139.74 291.788 140.5 292.828 140.5C293.388 140.5 293.938 140.28 294.328 139.88L294.688 140.37C294.198 140.85 293.548 141.12 292.768 141.12ZM294.258 138.27C294.248 137.56 293.768 136.67 292.668 136.67C291.638 136.67 291.128 137.54 291.088 138.27H294.258ZM297.443 141.12C296.723 141.12 296.363 140.71 296.363 139.99V136.83H295.563V136.17H296.363V134.85H297.123V136.17H298.103V136.83H297.123V139.83C297.123 140.19 297.283 140.45 297.603 140.45C297.823 140.45 298.013 140.35 298.113 140.24L298.333 140.81C298.143 140.99 297.873 141.12 297.443 141.12Z" fill="#8BB2C8"/>
<path d="M149.608 103H145.486V102.397C147.646 100.705 148.825 99.706 148.825 98.671C148.825 97.897 148.186 97.573 147.565 97.573C146.845 97.573 146.287 97.879 145.936 98.329L145.477 97.852C145.936 97.24 146.719 96.907 147.565 96.907C148.564 96.907 149.581 97.474 149.581 98.671C149.581 99.895 148.339 101.011 146.665 102.334H149.608V103ZM153 103.108C151.992 103.108 151.335 102.739 150.885 102.145L151.344 101.641C151.74 102.154 152.271 102.442 153 102.442C153.819 102.442 154.386 101.884 154.386 101.155C154.386 100.363 153.819 99.859 153.009 99.859C152.487 99.859 152.028 100.03 151.623 100.417L151.074 100.228V96.997H154.746V97.663H151.821V99.751C152.118 99.463 152.622 99.211 153.225 99.211C154.233 99.211 155.142 99.886 155.142 101.128C155.142 102.343 154.206 103.108 153 103.108ZM158.354 103.108C156.707 103.108 156.059 101.461 156.059 100.003C156.059 98.536 156.707 96.907 158.354 96.907C159.992 96.907 160.649 98.536 160.649 100.003C160.649 101.461 159.992 103.108 158.354 103.108ZM158.354 102.442C159.497 102.442 159.884 101.2 159.884 100.003C159.884 98.806 159.497 97.573 158.354 97.573C157.211 97.573 156.824 98.806 156.824 100.003C156.824 101.2 157.211 102.442 158.354 102.442ZM165.61 103H164.746L163.189 101.047L162.46 101.758V103H161.785V96.997H162.46V100.966L164.746 98.653H165.601L163.675 100.624L165.61 103Z" fill="#8BB2C8"/>
<path d="M175.394 103.108C174.377 103.108 173.63 102.658 173.261 102.118L173.702 101.65C174.053 102.118 174.665 102.442 175.376 102.442C176.249 102.442 176.78 102.001 176.78 101.317C176.78 100.57 176.168 100.255 175.286 100.255C175.034 100.255 174.755 100.255 174.665 100.264V99.58C174.764 99.589 175.043 99.589 175.286 99.589C176.042 99.589 176.681 99.292 176.681 98.599C176.681 97.933 176.069 97.573 175.34 97.573C174.683 97.573 174.197 97.825 173.756 98.302L173.342 97.834C173.774 97.303 174.467 96.907 175.403 96.907C176.555 96.907 177.428 97.492 177.428 98.5C177.428 99.373 176.699 99.805 176.141 99.895C176.681 99.949 177.527 100.408 177.527 101.38C177.527 102.379 176.717 103.108 175.394 103.108ZM180.764 103.108C179.117 103.108 178.469 101.461 178.469 100.003C178.469 98.536 179.117 96.907 180.764 96.907C182.402 96.907 183.059 98.536 183.059 100.003C183.059 101.461 182.402 103.108 180.764 103.108ZM180.764 102.442C181.907 102.442 182.294 101.2 182.294 100.003C182.294 98.806 181.907 97.573 180.764 97.573C179.621 97.573 179.234 98.806 179.234 100.003C179.234 101.2 179.621 102.442 180.764 102.442ZM186.275 103.108C184.628 103.108 183.98 101.461 183.98 100.003C183.98 98.536 184.628 96.907 186.275 96.907C187.913 96.907 188.57 98.536 188.57 100.003C188.57 101.461 187.913 103.108 186.275 103.108ZM186.275 102.442C187.418 102.442 187.805 101.2 187.805 100.003C187.805 98.806 187.418 97.573 186.275 97.573C185.132 97.573 184.745 98.806 184.745 100.003C184.745 101.2 185.132 102.442 186.275 102.442ZM193.531 103H192.667L191.11 101.047L190.381 101.758V103H189.706V96.997H190.381V100.966L192.667 98.653H193.522L191.596 100.624L193.531 103Z" fill="#8BB2C8"/>
<path d="M202.394 103.108C201.377 103.108 200.63 102.658 200.261 102.118L200.702 101.65C201.053 102.118 201.665 102.442 202.376 102.442C203.249 102.442 203.78 102.001 203.78 101.317C203.78 100.57 203.168 100.255 202.286 100.255C202.034 100.255 201.755 100.255 201.665 100.264V99.58C201.764 99.589 202.043 99.589 202.286 99.589C203.042 99.589 203.681 99.292 203.681 98.599C203.681 97.933 203.069 97.573 202.34 97.573C201.683 97.573 201.197 97.825 200.756 98.302L200.342 97.834C200.774 97.303 201.467 96.907 202.403 96.907C203.555 96.907 204.428 97.492 204.428 98.5C204.428 99.373 203.699 99.805 203.141 99.895C203.681 99.949 204.527 100.408 204.527 101.38C204.527 102.379 203.717 103.108 202.394 103.108ZM207.719 103.108C206.711 103.108 206.054 102.739 205.604 102.145L206.063 101.641C206.459 102.154 206.99 102.442 207.719 102.442C208.538 102.442 209.105 101.884 209.105 101.155C209.105 100.363 208.538 99.859 207.728 99.859C207.206 99.859 206.747 100.03 206.342 100.417L205.793 100.228V96.997H209.465V97.663H206.54V99.751C206.837 99.463 207.341 99.211 207.944 99.211C208.952 99.211 209.861 99.886 209.861 101.128C209.861 102.343 208.925 103.108 207.719 103.108ZM213.072 103.108C211.425 103.108 210.777 101.461 210.777 100.003C210.777 98.536 211.425 96.907 213.072 96.907C214.71 96.907 215.367 98.536 215.367 100.003C215.367 101.461 214.71 103.108 213.072 103.108ZM213.072 102.442C214.215 102.442 214.602 101.2 214.602 100.003C214.602 98.806 214.215 97.573 213.072 97.573C211.929 97.573 211.542 98.806 211.542 100.003C211.542 101.2 211.929 102.442 213.072 102.442ZM220.329 103H219.465L217.908 101.047L217.179 101.758V103H216.504V96.997H217.179V100.966L219.465 98.653H220.32L218.394 100.624L220.329 103Z" fill="#8BB2C8"/>
<path d="M230.888 103H230.141V101.479H227.288V100.858L229.862 96.997H230.888V100.822H231.734V101.479H230.888V103ZM230.141 100.822V97.69L228.035 100.822H230.141ZM234.773 103.108C233.126 103.108 232.478 101.461 232.478 100.003C232.478 98.536 233.126 96.907 234.773 96.907C236.411 96.907 237.068 98.536 237.068 100.003C237.068 101.461 236.411 103.108 234.773 103.108ZM234.773 102.442C235.916 102.442 236.303 101.2 236.303 100.003C236.303 98.806 235.916 97.573 234.773 97.573C233.63 97.573 233.243 98.806 233.243 100.003C233.243 101.2 233.63 102.442 234.773 102.442ZM240.283 103.108C238.636 103.108 237.988 101.461 237.988 100.003C237.988 98.536 238.636 96.907 240.283 96.907C241.921 96.907 242.578 98.536 242.578 100.003C242.578 101.461 241.921 103.108 240.283 103.108ZM240.283 102.442C241.426 102.442 241.813 101.2 241.813 100.003C241.813 98.806 241.426 97.573 240.283 97.573C239.14 97.573 238.753 98.806 238.753 100.003C238.753 101.2 239.14 102.442 240.283 102.442ZM247.54 103H246.676L245.119 101.047L244.39 101.758V103H243.715V96.997H244.39V100.966L246.676 98.653H247.531L245.605 100.624L247.54 103Z" fill="#8BB2C8"/>
<path d="M255.888 103H255.141V101.479H252.288V100.858L254.862 96.997H255.888V100.822H256.734V101.479H255.888V103ZM255.141 100.822V97.69L253.035 100.822H255.141ZM259.728 103.108C258.72 103.108 258.063 102.739 257.613 102.145L258.072 101.641C258.468 102.154 258.999 102.442 259.728 102.442C260.547 102.442 261.114 101.884 261.114 101.155C261.114 100.363 260.547 99.859 259.737 99.859C259.215 99.859 258.756 100.03 258.351 100.417L257.802 100.228V96.997H261.474V97.663H258.549V99.751C258.846 99.463 259.35 99.211 259.953 99.211C260.961 99.211 261.87 99.886 261.87 101.128C261.87 102.343 260.934 103.108 259.728 103.108ZM265.081 103.108C263.434 103.108 262.786 101.461 262.786 100.003C262.786 98.536 263.434 96.907 265.081 96.907C266.719 96.907 267.376 98.536 267.376 100.003C267.376 101.461 266.719 103.108 265.081 103.108ZM265.081 102.442C266.224 102.442 266.611 101.2 266.611 100.003C266.611 98.806 266.224 97.573 265.081 97.573C263.938 97.573 263.551 98.806 263.551 100.003C263.551 101.2 263.938 102.442 265.081 102.442ZM272.338 103H271.474L269.917 101.047L269.188 101.758V103H268.513V96.997H269.188V100.966L271.474 98.653H272.329L270.403 100.624L272.338 103Z" fill="#8BB2C8"/>
<path d="M280.709 103.108C279.701 103.108 279.044 102.739 278.594 102.145L279.053 101.641C279.449 102.154 279.98 102.442 280.709 102.442C281.528 102.442 282.095 101.884 282.095 101.155C282.095 100.363 281.528 99.859 280.718 99.859C280.196 99.859 279.737 100.03 279.332 100.417L278.783 100.228V96.997H282.455V97.663H279.53V99.751C279.827 99.463 280.331 99.211 280.934 99.211C281.942 99.211 282.851 99.886 282.851 101.128C282.851 102.343 281.915 103.108 280.709 103.108ZM286.063 103.108C284.416 103.108 283.768 101.461 283.768 100.003C283.768 98.536 284.416 96.907 286.063 96.907C287.701 96.907 288.358 98.536 288.358 100.003C288.358 101.461 287.701 103.108 286.063 103.108ZM286.063 102.442C287.206 102.442 287.593 101.2 287.593 100.003C287.593 98.806 287.206 97.573 286.063 97.573C284.92 97.573 284.533 98.806 284.533 100.003C284.533 101.2 284.92 102.442 286.063 102.442ZM291.573 103.108C289.926 103.108 289.278 101.461 289.278 100.003C289.278 98.536 289.926 96.907 291.573 96.907C293.211 96.907 293.868 98.536 293.868 100.003C293.868 101.461 293.211 103.108 291.573 103.108ZM291.573 102.442C292.716 102.442 293.103 101.2 293.103 100.003C293.103 98.806 292.716 97.573 291.573 97.573C290.43 97.573 290.043 98.806 290.043 100.003C290.043 101.2 290.43 102.442 291.573 102.442ZM298.83 103H297.966L296.409 101.047L295.68 101.758V103H295.005V96.997H295.68V100.966L297.966 98.653H298.821L296.895 100.624L298.83 103Z" fill="#8BB2C8"/>
<path d="M45.5 86.5V91" stroke="white"/>
<path d="M73.5 86.5V91" stroke="white"/>
<path d="M100.5 86.5V91" stroke="white"/>
<path d="M127.5 86.5V91" stroke="white"/>
<path d="M155.5 86.5V91" stroke="white"/>
<path d="M182.5 86.5V91" stroke="white"/>
<path d="M209.5 86.5V91" stroke="white"/>
<path d="M235.5 86.5V91" stroke="white"/>
<path d="M262.5 86.5V91" stroke="white"/>
<path d="M289 86.5V91" stroke="white"/>
<rect x="19.5" y="60" width="179" height="28" fill="#EF4D2D"/>
<rect x="200.5" y="60" width="89" height="28" fill="#D9D9D9"/>
<path d="M156.412 77.9V77.09C155.476 77.018 154.783 76.667 154.315 76.154L154.9 75.344C155.242 75.713 155.755 76.046 156.412 76.145V74.408C155.485 74.174 154.504 73.841 154.504 72.662C154.504 71.744 155.251 71.024 156.412 70.925V70.088H157.132V70.934C157.861 71.015 158.473 71.294 158.941 71.744L158.338 72.527C157.996 72.194 157.573 71.987 157.132 71.897V73.445C158.068 73.697 159.076 74.048 159.076 75.254C159.076 76.172 158.482 76.973 157.132 77.09V77.9H156.412ZM158.005 75.353C158.005 74.948 157.627 74.75 157.132 74.597V76.154C157.753 76.055 158.005 75.695 158.005 75.353ZM155.584 72.59C155.584 72.941 155.935 73.121 156.412 73.256V71.852C155.899 71.906 155.584 72.194 155.584 72.59ZM163.616 77H162.563V75.641H159.701V74.795L162.167 70.997H163.616V74.714H164.417V75.641H163.616V77ZM162.563 74.714V71.942L160.736 74.714H162.563ZM169.467 77H165.12V76.172C167.451 74.408 168.36 73.625 168.36 72.761C168.36 72.131 167.82 71.843 167.271 71.843C166.569 71.843 166.029 72.131 165.651 72.563L165.039 71.87C165.57 71.231 166.416 70.907 167.253 70.907C168.414 70.907 169.431 71.564 169.431 72.761C169.431 73.868 168.414 74.858 166.803 76.073H169.467V77ZM172.794 77.108C171.111 77.108 170.391 75.515 170.391 74.003C170.391 72.491 171.111 70.907 172.794 70.907C174.477 70.907 175.197 72.491 175.197 74.003C175.197 75.515 174.477 77.108 172.794 77.108ZM172.794 76.172C173.775 76.172 174.126 75.146 174.126 74.003C174.126 72.86 173.775 71.843 172.794 71.843C171.813 71.843 171.462 72.86 171.462 74.003C171.462 75.146 171.813 76.172 172.794 76.172ZM178.34 77.108C176.657 77.108 175.937 75.515 175.937 74.003C175.937 72.491 176.657 70.907 178.34 70.907C180.023 70.907 180.743 72.491 180.743 74.003C180.743 75.515 180.023 77.108 178.34 77.108ZM178.34 76.172C179.321 76.172 179.672 75.146 179.672 74.003C179.672 72.86 179.321 71.843 178.34 71.843C177.359 71.843 177.008 72.86 177.008 74.003C177.008 75.146 177.359 76.172 178.34 76.172ZM183.886 77.108C182.203 77.108 181.483 75.515 181.483 74.003C181.483 72.491 182.203 70.907 183.886 70.907C185.569 70.907 186.289 72.491 186.289 74.003C186.289 75.515 185.569 77.108 183.886 77.108ZM183.886 76.172C184.867 76.172 185.218 75.146 185.218 74.003C185.218 72.86 184.867 71.843 183.886 71.843C182.905 71.843 182.554 72.86 182.554 74.003C182.554 75.146 182.905 76.172 183.886 76.172ZM189.432 77.108C187.749 77.108 187.029 75.515 187.029 74.003C187.029 72.491 187.749 70.907 189.432 70.907C191.115 70.907 191.835 72.491 191.835 74.003C191.835 75.515 191.115 77.108 189.432 77.108ZM189.432 76.172C190.413 76.172 190.764 75.146 190.764 74.003C190.764 72.86 190.413 71.843 189.432 71.843C188.451 71.843 188.1 72.86 188.1 74.003C188.1 75.146 188.451 76.172 189.432 76.172Z" fill="white"/>
<rect x="113" y="133" width="8" height="8" fill="#EF4D2D"/>
<rect x="214" y="133" width="8" height="8" fill="white"/>
</svg>
