<svg width="81" height="80" viewBox="0 0 81 80" fill="none" xmlns="http://www.w3.org/2000/svg">
<circle cx="40.7725" cy="40" r="40" fill="#EF4D2D"/>
<g clip-path="url(#clip0_2026_17)">
<path d="M26.5744 60.5104L41.9136 42.3994L39.7133 41.3429L24.3742 59.4538L26.5744 60.5104Z" fill="#D1D1D1"/>
<path d="M75.3624 43.3657L75.832 41.6213L41.0515 40.9935L40.5818 42.738L75.3624 43.3657Z" fill="#D1D1D1"/>
<path d="M50.2781 47.9307L51.0884 47.0667L39.7383 40.6827L38.928 41.5467L50.2781 47.9307Z" fill="#D1D1D1"/>
<path d="M39.6017 41.556L39.9517 41.1829L16.3848 27.9257L16.0349 28.2988L39.6017 41.556Z" fill="#D1D1D1"/>
<path d="M38.232 43.0447C37.7839 42.003 38.5347 40.6721 39.9218 40.0753C41.3003 39.4823 42.7887 39.8421 43.2397 40.8903C43.6878 41.932 42.937 43.2629 41.5498 43.8596C40.1627 44.4564 38.6829 44.0929 38.232 43.0447Z" fill="url(#paint0_radial_2026_17)"/>
<path d="M38.6406 42.9626C38.2407 42.033 38.9178 40.8432 40.1479 40.314C41.3781 39.7848 42.7075 40.1114 43.1074 41.041C43.5073 41.9706 42.8302 43.1604 41.6001 43.6896C40.3612 44.2225 39.0433 43.8988 38.6406 42.9626Z" fill="url(#paint1_linear_2026_17)"/>
<path d="M38.7727 42.7886C38.4267 41.9843 39.0124 40.9666 40.0681 40.5125C41.1324 40.0546 42.2682 40.3395 42.6114 41.1372C42.9574 41.9415 42.3716 42.9592 41.316 43.4133C40.2517 43.8712 39.1187 43.5929 38.7727 42.7886Z" fill="url(#paint2_radial_2026_17)"/>
<path d="M39.3295 42.6661C39.0516 42.02 39.5167 41.2027 40.3717 40.8348C41.2267 40.467 42.14 40.6914 42.4179 41.3375C42.6959 41.9836 42.2307 42.8009 41.3757 43.1687C40.5208 43.5365 39.6075 43.3122 39.3295 42.6661Z" fill="url(#paint3_radial_2026_17)"/>
</g>
<defs>
<radialGradient id="paint0_radial_2026_17" cx="0" cy="0" r="1" gradientUnits="userSpaceOnUse" gradientTransform="translate(40.7335 41.9717) rotate(156.723) scale(2.72478 2.05909)">
<stop offset="0.7681" stop-color="#1C1C1C"/>
<stop offset="1" stop-color="white"/>
</radialGradient>
<linearGradient id="paint1_linear_2026_17" x1="42.9341" y1="42.5127" x2="39.3341" y2="40.4639" gradientUnits="userSpaceOnUse">
<stop stop-color="#B3B3B3"/>
<stop offset="1" stop-color="#DBDBDB"/>
</linearGradient>
<radialGradient id="paint2_radial_2026_17" cx="0" cy="0" r="1" gradientUnits="userSpaceOnUse" gradientTransform="translate(40.6804 41.9479) rotate(156.723) scale(1.94277 1.46813)">
<stop offset="0.6361" stop-color="#1C1C1C"/>
<stop offset="1" stop-color="white"/>
</radialGradient>
<radialGradient id="paint3_radial_2026_17" cx="0" cy="0" r="1" gradientUnits="userSpaceOnUse" gradientTransform="translate(41.1889 42.0728) rotate(156.723) scale(1.41766 1.07131)">
<stop stop-color="white"/>
<stop offset="1" stop-color="#BDBDBD"/>
</radialGradient>
<clipPath id="clip0_2026_17">
<rect width="54.3152" height="37.4928" fill="white" transform="translate(76.3921 42.9258) rotate(156.723)"/>
</clipPath>
</defs>
</svg>
