<svg width="80" height="80" viewBox="0 0 80 80" fill="none" xmlns="http://www.w3.org/2000/svg">
<circle cx="40" cy="40" r="40" fill="#EF4D2D"/>
<g clip-path="url(#clip0_2026_3)">
<path d="M62.4088 30.2009L41.1611 40.7759L42.7648 42.6159L64.0125 32.0409L62.4088 30.2009Z" fill="#D1D1D1"/>
<path d="M10.8166 26.6699L9.6958 28.0867L41.3972 42.408L42.518 40.9912L10.8166 26.6699Z" fill="#D1D1D1"/>
<path d="M35.6634 32.3893L34.5776 32.8628L42.481 43.2125L43.5668 42.739L35.6634 32.3893Z" fill="#D1D1D1"/>
<path d="M42.9513 42.4642L42.4824 42.6687L58.892 64.16L59.3609 63.9555L42.9513 42.4642Z" fill="#D1D1D1"/>
<path d="M44.7981 41.6379C44.7981 42.7719 43.5825 43.6977 42.0724 43.6977C40.5718 43.6977 39.3467 42.7791 39.3467 41.6379C39.3467 40.504 40.5623 39.5781 42.0724 39.5781C43.5825 39.5781 44.7981 40.4968 44.7981 41.6379Z" fill="url(#paint0_radial_2026_3)"/>
<path d="M44.39 41.5519C44.39 42.5639 43.2978 43.3892 41.9587 43.3892C40.6195 43.3892 39.5273 42.5639 39.5273 41.5519C39.5273 40.54 40.6195 39.7146 41.9587 39.7146C43.3073 39.7146 44.39 40.5328 44.39 41.5519Z" fill="url(#paint1_linear_2026_3)"/>
<path d="M44.2003 41.6595C44.2003 42.5351 43.2601 43.2385 42.1109 43.2385C40.9522 43.2385 40.0215 42.5279 40.0215 41.6595C40.0215 40.7839 40.9617 40.0806 42.1109 40.0806C43.2696 40.0806 44.2003 40.7839 44.2003 41.6595Z" fill="url(#paint2_radial_2026_3)"/>
<path d="M43.6404 41.5521C43.6404 42.2554 42.8901 42.8224 41.9593 42.8224C41.0286 42.8224 40.2783 42.2554 40.2783 41.5521C40.2783 40.8487 41.0286 40.2817 41.9593 40.2817C42.8901 40.2817 43.6404 40.8487 43.6404 41.5521Z" fill="url(#paint3_radial_2026_3)"/>
</g>
<defs>
<radialGradient id="paint0_radial_2026_3" cx="0" cy="0" r="1" gradientUnits="userSpaceOnUse" gradientTransform="translate(42.0762 41.635) scale(2.72478 2.05909)">
<stop offset="0.7681" stop-color="#1C1C1C"/>
<stop offset="1" stop-color="white"/>
</radialGradient>
<linearGradient id="paint1_linear_2026_3" x1="40.2681" y1="40.2685" x2="42.7654" y2="43.5732" gradientUnits="userSpaceOnUse">
<stop stop-color="#B3B3B3"/>
<stop offset="1" stop-color="#DBDBDB"/>
</linearGradient>
<radialGradient id="paint2_radial_2026_3" cx="0" cy="0" r="1" gradientUnits="userSpaceOnUse" gradientTransform="translate(42.1156 41.678) scale(1.94277 1.46813)">
<stop offset="0.6361" stop-color="#1C1C1C"/>
<stop offset="1" stop-color="white"/>
</radialGradient>
<radialGradient id="paint3_radial_2026_3" cx="0" cy="0" r="1" gradientUnits="userSpaceOnUse" gradientTransform="translate(41.6979 41.3622) scale(1.41766 1.07131)">
<stop stop-color="white"/>
<stop offset="1" stop-color="#BDBDBD"/>
</radialGradient>
<clipPath id="clip0_2026_3">
<rect width="54.3152" height="37.4928" fill="white" transform="translate(9.69727 26.6667)"/>
</clipPath>
</defs>
</svg>
