<svg width="81" height="80" viewBox="0 0 81 80" fill="none" xmlns="http://www.w3.org/2000/svg">
<circle cx="40.106" cy="40" r="40" fill="#EF4D2D"/>
<g clip-path="url(#clip0_2026_4)">
<path d="M58.3405 57.0155L40.1646 41.7534L39.1174 43.9581L57.2934 59.2202L58.3405 57.0155Z" fill="#D1D1D1"/>
<path d="M40.9886 8.3004L39.2422 7.83813L38.7622 42.621L40.5086 43.0833L40.9886 8.3004Z" fill="#D1D1D1"/>
<path d="M45.66 33.3652L44.7925 32.5586L38.4568 43.9357L39.3243 44.7423L45.66 33.3652Z" fill="#D1D1D1"/>
<path d="M39.3307 44.0686L38.9561 43.7202L25.7992 67.3432L26.1738 67.6915L39.3307 44.0686Z" fill="#D1D1D1"/>
<path d="M40.8255 45.4321C39.7857 45.8847 38.4517 45.1395 37.849 43.7549C37.2502 42.379 37.6036 40.889 38.6499 40.4336C39.6897 39.9811 41.0237 40.7262 41.6264 42.1108C42.229 43.4954 41.8718 44.9767 40.8255 45.4321Z" fill="url(#paint0_radial_2026_4)"/>
<path d="M40.7413 45.0236C39.8134 45.4275 38.6207 44.7554 38.0863 43.5276C37.5519 42.2997 37.8728 40.9689 38.8007 40.565C39.7286 40.1612 40.9212 40.8332 41.4556 42.0611C41.9939 43.2977 41.6757 44.6169 40.7413 45.0236Z" fill="url(#paint1_linear_2026_4)"/>
<path d="M40.5671 44.8924C39.7643 45.2419 38.7441 44.6604 38.2855 43.6067C37.8231 42.5443 38.1031 41.4074 38.8994 41.0608C39.7023 40.7114 40.7224 41.2928 41.181 42.3465C41.6434 43.4089 41.37 44.543 40.5671 44.8924Z" fill="url(#paint2_radial_2026_4)"/>
<path d="M40.4421 44.336C39.7972 44.6167 38.9779 44.155 38.6064 43.3016C38.235 42.4482 38.4554 41.534 39.1003 41.2533C39.7453 40.9726 40.5646 41.4343 40.936 42.2877C41.3074 43.1411 41.087 44.0553 40.4421 44.336Z" fill="url(#paint3_radial_2026_4)"/>
</g>
<defs>
<radialGradient id="paint0_radial_2026_4" cx="0" cy="0" r="1" gradientUnits="userSpaceOnUse" gradientTransform="translate(39.7419 42.9352) rotate(66.4791) scale(2.72478 2.05909)">
<stop offset="0.7681" stop-color="#1C1C1C"/>
<stop offset="1" stop-color="white"/>
</radialGradient>
<linearGradient id="paint1_linear_2026_4" x1="40.2732" y1="40.7321" x2="38.2396" y2="44.3407" gradientUnits="userSpaceOnUse">
<stop stop-color="#B3B3B3"/>
<stop offset="1" stop-color="#DBDBDB"/>
</linearGradient>
<radialGradient id="paint2_radial_2026_4" cx="0" cy="0" r="1" gradientUnits="userSpaceOnUse" gradientTransform="translate(39.7182 42.9883) rotate(66.4791) scale(1.94277 1.46813)">
<stop offset="0.6361" stop-color="#1C1C1C"/>
<stop offset="1" stop-color="white"/>
</radialGradient>
<radialGradient id="paint3_radial_2026_4" cx="0" cy="0" r="1" gradientUnits="userSpaceOnUse" gradientTransform="translate(39.8409 42.4792) rotate(66.4791) scale(1.41766 1.07131)">
<stop stop-color="white"/>
<stop offset="1" stop-color="#BDBDBD"/>
</radialGradient>
<clipPath id="clip0_2026_4">
<rect width="54.3152" height="37.4928" fill="white" transform="translate(40.5444 7.27271) rotate(66.4791)"/>
</clipPath>
</defs>
</svg>
